<svg width="18" height="20" viewBox="0 0 18 20" fill="none" xmlns="http://www.w3.org/2000/svg">
<path opacity="0.4" d="M13.2353 19.166H4.76472C2.29846 19.166 0.291668 17.1778 0.291668 14.7335V9.8485C0.291668 7.40421 2.29846 5.41602 4.76472 5.41602H13.2353C15.7015 5.41602 17.7083 7.40421 17.7083 9.8485V14.7335C17.7083 17.1778 15.7015 19.166 13.2353 19.166Z" fill="#696984"/>
<path d="M12.4422 8.16634C12.0653 8.16634 11.7594 7.86965 11.7594 7.50409V4.82683C11.7594 3.35486 10.5249 2.15751 9.00819 2.15751C8.30992 2.15751 7.57705 2.42948 7.0554 2.93014C6.53283 3.43257 6.24332 4.101 6.24059 4.81446V7.50409C6.24059 7.86965 5.9347 8.16634 5.5578 8.16634C5.18089 8.16634 4.875 7.86965 4.875 7.50409V4.82683C4.87955 3.74162 5.3129 2.74029 6.09402 1.99062C6.87423 1.23919 7.88295 0.862147 9.01092 0.833008C11.2778 0.833008 13.125 2.62462 13.125 4.82683V7.50409C13.125 7.86965 12.8191 8.16634 12.4422 8.16634Z" fill="#696984"/>
</svg>
