<svg width="19" height="20" viewBox="0 0 19 20" fill="none" xmlns="http://www.w3.org/2000/svg">
<path fill-rule="evenodd" clip-rule="evenodd" d="M1.4013 3.23077C1.46457 2.96277 1.7038 2.77344 1.97917 2.77344H15.4375C15.5297 2.77344 15.6206 2.7949 15.703 2.83612L15.4375 3.36719C15.703 2.83612 15.7033 2.83625 15.7036 2.83639L15.7041 2.83668L15.7054 2.83731L15.7084 2.83882L15.716 2.84277L15.7381 2.85448C15.7556 2.864 15.7789 2.87698 15.807 2.89353C15.8631 2.9266 15.939 2.9742 16.0281 3.0373C16.2056 3.16302 16.4393 3.3531 16.6729 3.61595C17.1447 4.14664 17.6146 4.97459 17.6146 6.13802C17.6146 7.30145 17.1447 8.1294 16.6729 8.66009C16.4393 8.92294 16.2056 9.11302 16.0281 9.23875C15.939 9.30184 15.8631 9.34944 15.807 9.38251C15.7789 9.39907 15.7556 9.41205 15.7381 9.42156L15.716 9.43327L15.7084 9.43722L15.7054 9.43873L15.7041 9.43936L15.7036 9.43965C15.7033 9.43979 15.703 9.43992 15.4375 8.90885L15.703 9.43992C15.6206 9.48114 15.5297 9.5026 15.4375 9.5026H1.97917C1.7038 9.5026 1.46457 9.31327 1.4013 9.04527C1.33835 8.7786 1.46606 8.50368 1.70998 8.37963L1.71416 8.3774C1.71978 8.37435 1.73056 8.36839 1.74576 8.35943C1.77623 8.34148 1.824 8.31177 1.88337 8.26972C2.00274 8.18516 2.16487 8.05362 2.32706 7.87116C2.647 7.51122 2.96875 6.95376 2.96875 6.13802C2.96875 5.32228 2.647 4.76482 2.32706 4.40488C2.16487 4.22242 2.00274 4.09088 1.88337 4.00632C1.824 3.96427 1.77623 3.93456 1.74576 3.91661C1.73056 3.90765 1.71978 3.90169 1.71416 3.89864L1.70998 3.89641C1.46606 3.77236 1.33835 3.49744 1.4013 3.23077ZM3.48713 3.96094C3.85187 4.48261 4.15625 5.20166 4.15625 6.13802C4.15625 7.07438 3.85187 7.79343 3.48713 8.3151H15.2752C15.2951 8.30201 15.3175 8.28689 15.3417 8.26972C15.4611 8.18516 15.6232 8.05362 15.7854 7.87116C16.1053 7.51122 16.4271 6.95376 16.4271 6.13802C16.4271 5.32228 16.1053 4.76482 15.7854 4.40488C15.6232 4.22242 15.4611 4.09088 15.3417 4.00632C15.3175 3.98915 15.2951 3.97403 15.2752 3.96094H3.48713ZM1.71314 8.37804C1.71314 8.37804 1.71314 8.37804 1.71313 8.37804L1.71282 8.3782L1.71267 8.37827L1.71258 8.37832C1.71266 8.37828 1.71274 8.37824 1.71282 8.3782C1.71293 8.37814 1.71303 8.37809 1.71314 8.37804Z" fill="#696984"/>
<path fill-rule="evenodd" clip-rule="evenodd" d="M3.29696 11.5441C3.37941 11.5029 3.47032 11.4814 3.5625 11.4814H17.0208C17.2962 11.4814 17.5354 11.6708 17.5987 11.9388C17.6617 12.2055 17.5339 12.4804 17.29 12.6044C17.2888 12.605 17.2876 12.6057 17.2864 12.6063L17.0208 12.0752C17.2864 12.6063 17.2866 12.6061 17.2869 12.606L17.2873 12.6058L17.2882 12.6054L17.2894 12.6047L17.2858 12.6066C17.2802 12.6097 17.2694 12.6157 17.2542 12.6246C17.2238 12.6426 17.176 12.6723 17.1166 12.7143C16.9973 12.7989 16.8351 12.9304 16.6729 13.1129C16.353 13.4728 16.0312 14.0303 16.0312 14.846C16.0312 15.6618 16.353 16.2192 16.6729 16.5792C16.8351 16.7616 16.9973 16.8932 17.1166 16.9777C17.176 17.0198 17.2238 17.0495 17.2542 17.0674C17.2694 17.0764 17.2802 17.0824 17.2858 17.0854L17.2894 17.0873L17.2882 17.0867L17.2873 17.0863L17.2869 17.086C17.2879 17.0866 17.289 17.0871 17.29 17.0876C17.5339 17.2117 17.6617 17.4866 17.5987 17.7533C17.5354 18.0213 17.2962 18.2106 17.0208 18.2106H3.5625C3.47032 18.2106 3.37941 18.1892 3.29696 18.1479L3.5625 17.6169C3.29696 18.1479 3.2967 18.1478 3.29643 18.1477L3.29585 18.1474L3.29459 18.1467L3.29163 18.1452L3.28396 18.1413L3.26192 18.1296C3.24436 18.1201 3.22112 18.1071 3.19302 18.0905C3.1369 18.0574 3.06098 18.0098 2.9719 17.9468C2.7944 17.821 2.5607 17.6309 2.32706 17.3681C1.85533 16.8374 1.38541 16.0095 1.38541 14.846C1.38541 13.6826 1.85533 12.8546 2.32706 12.324C2.5607 12.0611 2.7944 11.871 2.9719 11.7453C3.06098 11.6822 3.1369 11.6346 3.19302 11.6015C3.22112 11.585 3.24436 11.572 3.26192 11.5625L3.28396 11.5508L3.29163 11.5468L3.29459 11.5453L3.29585 11.5447L3.29643 11.5444C3.2967 11.5443 3.29696 11.5441 3.5625 12.0752L3.29696 11.5441ZM3.72485 12.6689C3.70486 12.682 3.68255 12.6972 3.6583 12.7143C3.53892 12.7989 3.3768 12.9304 3.21461 13.1129C2.89466 13.4728 2.57291 14.0303 2.57291 14.846C2.57291 15.6618 2.89466 16.2192 3.21461 16.5792C3.3768 16.7616 3.53892 16.8932 3.6583 16.9777C3.68255 16.9949 3.70486 17.01 3.72485 17.0231H15.5129C15.1481 16.5014 14.8437 15.7824 14.8437 14.846C14.8437 13.9097 15.1481 13.1906 15.5129 12.6689H3.72485ZM3.83195 17.0878L3.83194 17.0878L3.83195 17.0878Z" fill="#696984"/>
</svg>
