<svg width="15" height="17" viewBox="0 0 15 17" fill="none" xmlns="http://www.w3.org/2000/svg">
<path fill-rule="evenodd" clip-rule="evenodd" d="M0.375 12.3473V6.32031H14.625V12.3956C14.625 14.8806 13.0608 16.4085 10.558 16.4085H4.43414C1.95486 16.4085 0.375 14.8489 0.375 12.3473ZM4.30118 10.3998C3.94141 10.4164 3.64421 10.1306 3.62857 9.76723C3.62857 9.40306 3.91013 9.10223 4.2699 9.0856C4.62184 9.0856 4.91122 9.36348 4.91904 9.71894C4.93469 10.0839 4.65313 10.3847 4.30118 10.3998ZM7.51564 10.3998C7.15587 10.4164 6.85867 10.1306 6.84303 9.76723C6.84303 9.40306 7.12459 9.10223 7.48436 9.0856C7.83631 9.0856 8.12569 9.36348 8.13351 9.71894C8.14915 10.0839 7.86759 10.3847 7.51564 10.3998ZM10.7066 13.3131C10.3469 13.3052 10.0575 13.0044 10.0575 12.6402C10.0497 12.276 10.3391 11.976 10.6988 11.9681H10.7066C11.0742 11.9681 11.3714 12.2689 11.3714 12.6402C11.3714 13.0123 11.0742 13.3131 10.7066 13.3131ZM6.84303 12.6402C6.85867 13.0044 7.15587 13.2901 7.51564 13.2735C7.86759 13.2585 8.14915 12.9576 8.13351 12.5935C8.12569 12.2372 7.83631 11.9594 7.48436 11.9594C7.12459 11.976 6.84303 12.276 6.84303 12.6402ZM3.62075 12.6402C3.63639 13.0044 3.93359 13.2901 4.29336 13.2735C4.64531 13.2585 4.92687 12.9576 4.91122 12.5935C4.9034 12.2372 4.61402 11.9594 4.26207 11.9594C3.90231 11.976 3.62075 12.276 3.62075 12.6402ZM10.0653 9.75931C10.0653 9.39515 10.3469 9.10223 10.7066 9.09431C11.0586 9.09431 11.3401 9.37852 11.3558 9.72765C11.3636 10.0918 11.0821 10.3926 10.7301 10.3998C10.3703 10.4077 10.0731 10.1306 10.0653 9.76723V9.75931Z" fill="#696984"/>
<path opacity="0.4" d="M0.377655 6.32042C0.387822 5.85572 0.426928 4.93342 0.500446 4.63655C0.875858 2.96692 2.15069 1.90609 3.973 1.75488H11.0276C12.8343 1.91401 14.1248 2.98197 14.5002 4.63655C14.5729 4.92551 14.612 5.85492 14.6222 6.32042H0.377655Z" fill="#696984"/>
<path d="M4.5747 4.20895C4.91882 4.20895 5.17692 3.94849 5.17692 3.59936V1.18557C5.17692 0.836445 4.91882 0.575195 4.5747 0.575195C4.23057 0.575195 3.97247 0.836445 3.97247 1.18557V3.59936C3.97247 3.94849 4.23057 4.20895 4.5747 4.20895Z" fill="#696984"/>
<path d="M10.4252 4.20895C10.7615 4.20895 11.0274 3.94849 11.0274 3.59936V1.18557C11.0274 0.836445 10.7615 0.575195 10.4252 0.575195C10.081 0.575195 9.82294 0.836445 9.82294 1.18557V3.59936C9.82294 3.94849 10.081 4.20895 10.4252 4.20895Z" fill="#696984"/>
</svg>
