<svg width="17" height="18" viewBox="0 0 17 18" fill="none" xmlns="http://www.w3.org/2000/svg">
<path fill-rule="evenodd" clip-rule="evenodd" d="M15.3607 7.84082H1.25C0.92225 7.84082 0.65625 7.57482 0.65625 7.24707C0.65625 6.91932 0.92225 6.65332 1.25 6.65332H15.3607C15.6884 6.65332 15.9544 6.91932 15.9544 7.24707C15.9544 7.57482 15.6884 7.84082 15.3607 7.84082Z" fill="#696984"/>
<path fill-rule="evenodd" clip-rule="evenodd" d="M11.8274 10.9326C11.4996 10.9326 11.2305 10.6666 11.2305 10.3389C11.2305 10.0111 11.4925 9.74512 11.8203 9.74512H11.8274C12.1551 9.74512 12.4211 10.0111 12.4211 10.3389C12.4211 10.6666 12.1551 10.9326 11.8274 10.9326Z" fill="#696984"/>
<path fill-rule="evenodd" clip-rule="evenodd" d="M8.31371 10.9326C7.98596 10.9326 7.7168 10.6666 7.7168 10.3389C7.7168 10.0111 7.97884 9.74512 8.30659 9.74512H8.31371C8.64146 9.74512 8.90746 10.0111 8.90746 10.3389C8.90746 10.6666 8.64146 10.9326 8.31371 10.9326Z" fill="#696984"/>
<path fill-rule="evenodd" clip-rule="evenodd" d="M4.79302 10.9326C4.46527 10.9326 4.19531 10.6666 4.19531 10.3389C4.19531 10.0111 4.45815 9.74512 4.7859 9.74512H4.79302C5.12077 9.74512 5.38677 10.0111 5.38677 10.3389C5.38677 10.6666 5.12077 10.9326 4.79302 10.9326Z" fill="#696984"/>
<path fill-rule="evenodd" clip-rule="evenodd" d="M11.8274 14.0098C11.4996 14.0098 11.2305 13.7438 11.2305 13.416C11.2305 13.0883 11.4925 12.8223 11.8203 12.8223H11.8274C12.1551 12.8223 12.4211 13.0883 12.4211 13.416C12.4211 13.7438 12.1551 14.0098 11.8274 14.0098Z" fill="#696984"/>
<path fill-rule="evenodd" clip-rule="evenodd" d="M8.31371 14.0098C7.98596 14.0098 7.7168 13.7438 7.7168 13.416C7.7168 13.0883 7.97884 12.8223 8.30659 12.8223H8.31371C8.64146 12.8223 8.90746 13.0883 8.90746 13.416C8.90746 13.7438 8.64146 14.0098 8.31371 14.0098Z" fill="#696984"/>
<path fill-rule="evenodd" clip-rule="evenodd" d="M4.79302 14.0098C4.46527 14.0098 4.19531 13.7438 4.19531 13.416C4.19531 13.0883 4.45815 12.8223 4.7859 12.8223H4.79302C5.12077 12.8223 5.38677 13.0883 5.38677 13.416C5.38677 13.7438 5.12077 14.0098 4.79302 14.0098Z" fill="#696984"/>
<path fill-rule="evenodd" clip-rule="evenodd" d="M11.5039 4.58487C11.1762 4.58487 10.9102 4.31887 10.9102 3.99112V1.38574C10.9102 1.05799 11.1762 0.791992 11.5039 0.791992C11.8317 0.791992 12.0977 1.05799 12.0977 1.38574V3.99112C12.0977 4.31887 11.8317 4.58487 11.5039 4.58487Z" fill="#696984"/>
<path fill-rule="evenodd" clip-rule="evenodd" d="M5.10938 4.58487C4.78163 4.58487 4.51562 4.31887 4.51562 3.99112V1.38574C4.51562 1.05799 4.78163 0.791992 5.10938 0.791992C5.43713 0.791992 5.70312 1.05799 5.70312 1.38574V3.99112C5.70312 4.31887 5.43713 4.58487 5.10938 4.58487Z" fill="#696984"/>
<mask id="mask0_1593_25100" style="mask-type:alpha" maskUnits="userSpaceOnUse" x="0" y="2" width="17" height="16">
<path fill-rule="evenodd" clip-rule="evenodd" d="M0.583984 2.04199H16.0215V17.8127H0.583984V2.04199Z" fill="white"/>
</mask>
<g mask="url(#mask0_1593_25100)">
<path fill-rule="evenodd" clip-rule="evenodd" d="M4.95478 3.22949C2.90198 3.22949 1.77148 4.32437 1.77148 6.31224V13.476C1.77148 15.5074 2.90198 16.6253 4.95478 16.6253H11.6507C13.7035 16.6253 14.834 15.528 14.834 13.5362V6.31224C14.8372 5.33453 14.5743 4.57453 14.0526 4.05203C13.5159 3.5137 12.6886 3.22949 11.6578 3.22949H4.95478ZM11.6507 17.8128H4.95478C2.25915 17.8128 0.583984 16.1511 0.583984 13.476V6.31224C0.583984 3.67758 2.25915 2.04199 4.95478 2.04199H11.6578C13.0108 2.04199 14.1294 2.44733 14.8934 3.21287C15.6352 3.95783 16.0254 5.02895 16.0215 6.31383V13.5362C16.0215 16.174 14.3463 17.8128 11.6507 17.8128Z" fill="#696984"/>
</g>
</svg>
