<svg width="24" height="24" viewBox="0 0 24 24" fill="none" xmlns="http://www.w3.org/2000/svg">
<path opacity="0.3" d="M23.6668 12.0053C23.6668 18.4324 18.4303 23.6663 12.0002 23.6663C5.56998 23.6663 0.333496 18.4324 0.333496 12.0053C0.333496 5.56697 5.56998 0.333008 12.0002 0.333008C18.4303 0.333008 23.6668 5.56697 23.6668 12.0053Z" fill="#019DA4"/>
<path d="M10.8139 15.2475C10.5899 15.2475 10.3659 15.1625 10.1949 14.9915L7.82193 12.6185C7.47993 12.2765 7.47993 11.7225 7.82193 11.3815C8.16393 11.0395 8.71693 11.0385 9.05893 11.3805L10.8139 13.1355L14.9419 9.00748C15.2839 8.66548 15.8369 8.66548 16.1789 9.00748C16.5209 9.34948 16.5209 9.90348 16.1789 10.2455L11.4329 14.9915C11.2619 15.1625 11.0379 15.2475 10.8139 15.2475Z" fill="#019DA4"/>
</svg>
