<svg width="20" height="21" viewBox="0 0 20 21" fill="none" xmlns="http://www.w3.org/2000/svg">
<path opacity="0.4" d="M14.6756 0.5H5.33333C1.92889 0.5 0 2.42889 0 5.83333V15.1667C0 18.5711 1.92889 20.5 5.33333 20.5H14.6756C18.08 20.5 20 18.5711 20 15.1667V5.83333C20 2.42889 18.08 0.5 14.6756 0.5Z" fill="#696984"/>
<path d="M5.36964 7.86914C4.9163 7.86914 4.54297 8.24247 4.54297 8.7047V15.5758C4.54297 16.0291 4.9163 16.4025 5.36964 16.4025C5.83186 16.4025 6.20519 16.0291 6.20519 15.5758V8.7047C6.20519 8.24247 5.83186 7.86914 5.36964 7.86914Z" fill="#696984"/>
<path d="M10.0357 4.58887C9.58232 4.58887 9.20898 4.9622 9.20898 5.42442V15.5755C9.20898 16.0289 9.58232 16.4022 10.0357 16.4022C10.4979 16.4022 10.8712 16.0289 10.8712 15.5755V5.42442C10.8712 4.9622 10.4979 4.58887 10.0357 4.58887Z" fill="#696984"/>
<path d="M14.6402 11.4961C14.178 11.4961 13.8047 11.8694 13.8047 12.3316V15.5761C13.8047 16.0294 14.178 16.4028 14.6314 16.4028C15.0936 16.4028 15.4669 16.0294 15.4669 15.5761V12.3316C15.4669 11.8694 15.0936 11.4961 14.6402 11.4961Z" fill="#696984"/>
</svg>
