<svg width="16" height="16" viewBox="0 0 16 16" fill="none" xmlns="http://www.w3.org/2000/svg">
<path opacity="0.4" d="M11.2552 0.5H4.75274C2.21024 0.5 0.500244 2.285 0.500244 4.94V11.0675C0.500244 13.715 2.21024 15.5 4.75274 15.5H11.2552C13.7977 15.5 15.5002 13.715 15.5002 11.0675V4.94C15.5002 2.285 13.7977 0.5 11.2552 0.5Z" fill="#019DA4"/>
<path d="M7.11008 10.4359C6.94208 10.4359 6.77408 10.3721 6.64583 10.2439L4.86608 8.4641C4.60958 8.2076 4.60958 7.7921 4.86608 7.53635C5.12258 7.27985 5.53733 7.2791 5.79383 7.5356L7.11008 8.85185L10.2061 5.75585C10.4626 5.49935 10.8773 5.49935 11.1338 5.75585C11.3903 6.01235 11.3903 6.42785 11.1338 6.68435L7.57433 10.2439C7.44608 10.3721 7.27808 10.4359 7.11008 10.4359Z" fill="#019DA4"/>
</svg>
