<svg width="20" height="21" viewBox="0 0 20 21" fill="none" xmlns="http://www.w3.org/2000/svg">
<path opacity="0.4" d="M14.3399 0.556641H5.66991C2.27991 0.556641 -9.15527e-05 2.93664 -9.15527e-05 6.47664V14.6466C-9.15527e-05 18.1766 2.27991 20.5566 5.66991 20.5566H14.3399C17.7299 20.5566 19.9999 18.1766 19.9999 14.6466V6.47664C19.9999 2.93664 17.7299 0.556641 14.3399 0.556641Z" fill="#FF6161"/>
<path d="M13.0156 12.3271L11.2366 10.5491L13.0146 8.77114C13.3566 8.43014 13.3566 7.87514 13.0146 7.53414C12.6726 7.19014 12.1196 7.19114 11.7776 7.53314L9.99861 9.31114L8.21961 7.53114C7.87761 7.18914 7.32361 7.19114 6.98161 7.53114C6.64061 7.87314 6.64061 8.42814 6.98161 8.76914L8.76161 10.5491L6.98561 12.3241C6.64361 12.6661 6.64361 13.2211 6.98561 13.5611C7.15661 13.7331 7.37961 13.8181 7.60361 13.8181C7.82861 13.8181 8.05161 13.7331 8.22261 13.5621L9.99861 11.7861L11.7786 13.5651C11.9496 13.7361 12.1726 13.8211 12.3966 13.8211C12.6206 13.8211 12.8446 13.7351 13.0156 13.5651C13.3576 13.2231 13.3576 12.6691 13.0156 12.3271Z" fill="#FF6161"/>
</svg>
