<svg width="18" height="19" viewBox="0 0 18 19" fill="none" xmlns="http://www.w3.org/2000/svg">
<path opacity="0.4" d="M16.9927 16.4531H11.2984C10.7429 16.4531 10.291 16.9121 10.291 17.4765C10.291 18.0419 10.7429 18.4999 11.2984 18.4999H16.9927C17.5483 18.4999 18.0001 18.0419 18.0001 17.4765C18.0001 16.9121 17.5483 16.4531 16.9927 16.4531Z" fill="#696984"/>
<path d="M7.30902 4.40361L12.7049 8.7637C12.835 8.86797 12.8573 9.05932 12.7557 9.19261L6.35874 17.528C5.95662 18.0429 5.36402 18.3342 4.72908 18.3449L1.23696 18.3879C1.05071 18.3901 0.887748 18.2611 0.845419 18.0762L0.0517547 14.6255C-0.0858138 13.9913 0.0517547 13.3356 0.453878 12.8303L6.88256 4.45521C6.98627 4.32083 7.1778 4.29719 7.30902 4.40361Z" fill="#696984"/>
<path opacity="0.4" d="M15.1213 6.16544L14.081 7.46401C13.9763 7.59623 13.7879 7.61773 13.6578 7.51238C12.3932 6.48901 9.15503 3.86285 8.2566 3.13509C8.12538 3.02759 8.10739 2.83625 8.21322 2.70295L9.21641 1.45706C10.1265 0.285337 11.7138 0.177839 12.9942 1.19906L14.4652 2.37078C15.0684 2.84377 15.4705 3.46726 15.6081 4.12299C15.7668 4.8443 15.5975 5.5527 15.1213 6.16544Z" fill="#696984"/>
</svg>
