<svg width="25" height="24" viewBox="0 0 25 24" fill="none" xmlns="http://www.w3.org/2000/svg">
<path opacity="0.4" d="M20.4927 18.9531H14.7984C14.2429 18.9531 13.791 19.4121 13.791 19.9765C13.791 20.5419 14.2429 20.9999 14.7984 20.9999H20.4927C21.0483 20.9999 21.5001 20.5419 21.5001 19.9765C21.5001 19.4121 21.0483 18.9531 20.4927 18.9531Z" fill="#019DA4"/>
<path d="M10.809 6.90361L16.2049 11.2637C16.335 11.368 16.3573 11.5593 16.2557 11.6926L9.85874 20.028C9.45662 20.5429 8.86402 20.8342 8.22908 20.8449L4.73696 20.8879C4.55071 20.8901 4.38775 20.7611 4.34542 20.5762L3.55175 17.1255C3.41419 16.4913 3.55175 15.8356 3.95388 15.3303L10.3826 6.95521C10.4863 6.82083 10.6778 6.79719 10.809 6.90361Z" fill="#019DA4"/>
<path opacity="0.4" d="M18.6213 8.66544L17.581 9.96401C17.4763 10.0962 17.2879 10.1177 17.1578 10.0124C15.8932 8.98901 12.655 6.36285 11.7566 5.63509C11.6254 5.52759 11.6074 5.33625 11.7132 5.20295L12.7164 3.95706C13.6265 2.78534 15.2138 2.67784 16.4942 3.69906L17.9652 4.87078C18.5684 5.34377 18.9705 5.96726 19.1081 6.62299C19.2668 7.3443 19.0975 8.0527 18.6213 8.66544Z" fill="#019DA4"/>
</svg>
