<svg width="20" height="21" viewBox="0 0 20 21" fill="none" xmlns="http://www.w3.org/2000/svg">
<path d="M8.15275 4.05534C8.20368 4.15901 8.23732 4.27003 8.25239 4.38415L8.53082 8.52407L8.66903 10.6049C8.67046 10.8189 8.70403 11.0315 8.76867 11.2359C8.9356 11.6324 9.33716 11.8844 9.77405 11.8668L16.4313 11.4314C16.7196 11.4266 16.998 11.5344 17.2052 11.7311C17.3779 11.895 17.4894 12.1094 17.5246 12.34L17.5364 12.48C17.2609 16.2947 14.4592 19.4765 10.6524 20.2978C6.84555 21.1191 2.94186 19.3841 1.06071 16.0347C0.518387 15.0616 0.17965 13.9921 0.0643819 12.8888C0.0162286 12.5622 -0.00497452 12.2323 0.000979226 11.9024C-0.00496595 7.81255 2.90747 4.27677 6.98433 3.42438C7.47501 3.34798 7.95603 3.60774 8.15275 4.05534Z" fill="#696984"/>
<path opacity="0.4" d="M10.8706 0.500819C15.4304 0.616827 19.2629 3.89579 20.0006 8.31229L19.9935 8.34488L19.9734 8.39227L19.9762 8.52236C19.9657 8.69471 19.8992 8.86054 19.7845 8.99448C19.6651 9.13401 19.5019 9.22903 19.3221 9.26591L19.2125 9.28095L11.5318 9.77861C11.2763 9.8038 11.0219 9.72142 10.8319 9.55195C10.6736 9.41073 10.5724 9.22009 10.5438 9.01468L10.0282 1.34506C10.0192 1.31913 10.0192 1.29102 10.0282 1.26508C10.0353 1.05367 10.1283 0.85384 10.2866 0.71023C10.4449 0.56662 10.6552 0.4912 10.8706 0.500819Z" fill="#696984"/>
</svg>
