<svg width="48" height="49" viewBox="0 0 48 49" fill="none" xmlns="http://www.w3.org/2000/svg">
<g filter="url(#filter0_ii_1061_25958)">
<rect x="0.666016" y="0.5" width="47" height="48" rx="17" fill="url(#paint0_linear_1061_25958)"/>
<path fill-rule="evenodd" clip-rule="evenodd" d="M15.166 29.3698V21.7568H33.166V29.4308C33.166 32.5698 31.1902 34.4998 28.0288 34.4998H20.2933C17.1616 34.4998 15.166 32.5298 15.166 29.3698ZM20.1254 26.9098C19.671 26.9308 19.2955 26.5698 19.2758 26.1108C19.2758 25.6508 19.6314 25.2708 20.0859 25.2498C20.5305 25.2498 20.896 25.6008 20.9059 26.0498C20.9256 26.5108 20.57 26.8908 20.1254 26.9098ZM24.1858 26.9098C23.7313 26.9308 23.3559 26.5698 23.3362 26.1108C23.3362 25.6508 23.6918 25.2708 24.1463 25.2498C24.5908 25.2498 24.9564 25.6008 24.9662 26.0498C24.986 26.5108 24.6303 26.8908 24.1858 26.9098ZM28.2165 30.5898C27.7621 30.5798 27.3965 30.1998 27.3965 29.7398C27.3867 29.2798 27.7522 28.9008 28.2066 28.8908H28.2165C28.6808 28.8908 29.0562 29.2708 29.0562 29.7398C29.0562 30.2098 28.6808 30.5898 28.2165 30.5898ZM23.3362 29.7398C23.3559 30.1998 23.7313 30.5608 24.1858 30.5398C24.6303 30.5208 24.986 30.1408 24.9662 29.6808C24.9564 29.2308 24.5908 28.8798 24.1463 28.8798C23.6918 28.9008 23.3362 29.2798 23.3362 29.7398ZM19.2659 29.7398C19.2857 30.1998 19.6611 30.5608 20.1155 30.5398C20.5601 30.5208 20.9157 30.1408 20.896 29.6808C20.8861 29.2308 20.5206 28.8798 20.076 28.8798C19.6216 28.9008 19.2659 29.2798 19.2659 29.7398ZM27.4064 26.1008C27.4064 25.6408 27.7621 25.2708 28.2165 25.2608C28.6611 25.2608 29.0167 25.6198 29.0365 26.0608C29.0464 26.5208 28.6907 26.9008 28.2461 26.9098C27.7917 26.9198 27.4163 26.5698 27.4064 26.1108V26.1008Z" fill="white"/>
<path opacity="0.4" d="M15.1699 21.7572C15.1828 21.1702 15.2322 20.0052 15.325 19.6302C15.7992 17.5212 17.4095 16.1812 19.7114 15.9902H28.6225C30.9046 16.1912 32.5347 17.5402 33.0089 19.6302C33.1008 19.9952 33.1502 21.1692 33.163 21.7572H15.1699Z" fill="white"/>
<path d="M20.4716 19.09C20.9063 19.09 21.2323 18.761 21.2323 18.32V15.271C21.2323 14.83 20.9063 14.5 20.4716 14.5C20.037 14.5 19.7109 14.83 19.7109 15.271V18.32C19.7109 18.761 20.037 19.09 20.4716 19.09Z" fill="white"/>
<path d="M27.8603 19.09C28.2851 19.09 28.621 18.761 28.621 18.32V15.271C28.621 14.83 28.2851 14.5 27.8603 14.5C27.4256 14.5 27.0996 14.83 27.0996 15.271V18.32C27.0996 18.761 27.4256 19.09 27.8603 19.09Z" fill="white"/>
</g>
<defs>
<filter id="filter0_ii_1061_25958" x="0.666016" y="-3.5" width="47" height="56" filterUnits="userSpaceOnUse" color-interpolation-filters="sRGB">
<feFlood flood-opacity="0" result="BackgroundImageFix"/>
<feBlend mode="normal" in="SourceGraphic" in2="BackgroundImageFix" result="shape"/>
<feColorMatrix in="SourceAlpha" type="matrix" values="0 0 0 0 0 0 0 0 0 0 0 0 0 0 0 0 0 0 127 0" result="hardAlpha"/>
<feOffset dy="4"/>
<feGaussianBlur stdDeviation="2"/>
<feComposite in2="hardAlpha" operator="arithmetic" k2="-1" k3="1"/>
<feColorMatrix type="matrix" values="0 0 0 0 1 0 0 0 0 1 0 0 0 0 1 0 0 0 0.47 0"/>
<feBlend mode="normal" in2="shape" result="effect1_innerShadow_1061_25958"/>
<feColorMatrix in="SourceAlpha" type="matrix" values="0 0 0 0 0 0 0 0 0 0 0 0 0 0 0 0 0 0 127 0" result="hardAlpha"/>
<feOffset dy="-4"/>
<feGaussianBlur stdDeviation="5"/>
<feComposite in2="hardAlpha" operator="arithmetic" k2="-1" k3="1"/>
<feColorMatrix type="matrix" values="0 0 0 0 1 0 0 0 0 0.714833 0 0 0 0 0.508333 0 0 0 1 0"/>
<feBlend mode="normal" in2="effect1_innerShadow_1061_25958" result="effect2_innerShadow_1061_25958"/>
</filter>
<linearGradient id="paint0_linear_1061_25958" x1="47.666" y1="24.5" x2="0.666017" y2="28.1794" gradientUnits="userSpaceOnUse">
<stop stop-color="#FF8A00"/>
<stop offset="1" stop-color="#FF8A00" stop-opacity="0.32"/>
</linearGradient>
</defs>
</svg>
