<svg width="18" height="20" viewBox="0 0 18 20" fill="none" xmlns="http://www.w3.org/2000/svg">
<path opacity="0.4" d="M15.8088 7.021C15.3573 7.021 14.7592 7.011 14.0146 7.011C12.1987 7.011 10.7055 5.508 10.7055 3.675V0.459C10.7055 0.206 10.5036 0 10.253 0H4.96363C2.49517 0 0.5 2.026 0.5 4.509V15.284C0.5 17.889 2.59022 20 5.16958 20H13.0463C15.5058 20 17.5 17.987 17.5 15.502V7.471C17.5 7.217 17.299 7.012 17.0475 7.013C16.6247 7.016 16.1177 7.021 15.8088 7.021Z" fill="#019DA4"/>
<path opacity="0.4" d="M13.0847 0.56737C12.7857 0.25637 12.2637 0.47037 12.2637 0.90137V3.53837C12.2637 4.64437 13.1747 5.55437 14.2807 5.55437C14.9777 5.56237 15.9457 5.56437 16.7677 5.56237C17.1887 5.56137 17.4027 5.05837 17.1107 4.75437C16.0557 3.65737 14.1667 1.69137 13.0847 0.56737Z" fill="#019DA4"/>
<path d="M7.4594 13.5449C7.4594 13.0232 7.52325 12.6091 7.65094 12.3027C7.78228 11.9926 8.03767 11.6533 8.4171 11.2848C8.80018 10.9126 9.0428 10.6481 9.14496 10.4912C9.30184 10.2504 9.38028 9.99141 9.38028 9.71413C9.38028 9.34565 9.28907 9.06472 9.10665 8.87136C8.92423 8.67799 8.6579 8.58131 8.30765 8.58131C7.96835 8.58131 7.69472 8.67617 7.48676 8.86588C7.28245 9.0556 7.1803 9.31281 7.1803 9.63752H5.75195C5.7629 8.94432 6.00004 8.39524 6.46339 7.99027C6.92673 7.5853 7.54149 7.38281 8.30765 7.38281C9.0957 7.38281 9.70863 7.58347 10.1464 7.9848C10.5879 8.38612 10.8086 8.94432 10.8086 9.65941C10.8086 10.2979 10.5113 10.9272 9.91659 11.5474L9.19421 12.2589C8.93517 12.5544 8.80201 12.9831 8.79471 13.5449H7.4594ZM7.36089 15.3728C7.36089 15.1429 7.43204 14.9569 7.57432 14.8146C7.72026 14.6723 7.91727 14.6012 8.16536 14.6012C8.4171 14.6012 8.61411 14.6741 8.7564 14.8201C8.90234 14.966 8.97531 15.1502 8.97531 15.3728C8.97531 15.588 8.90416 15.7686 8.76187 15.9146C8.62324 16.0605 8.4244 16.1335 8.16536 16.1335C7.90633 16.1335 7.70749 16.0605 7.56885 15.9146C7.43021 15.7686 7.36089 15.588 7.36089 15.3728Z" fill="#019DA4"/>
</svg>
