<svg width="24" height="24" viewBox="0 0 24 24" fill="none" xmlns="http://www.w3.org/2000/svg">
<path opacity="0.3" d="M23.6668 12.0053C23.6668 18.4324 18.4303 23.6663 12.0002 23.6663C5.56998 23.6663 0.333496 18.4324 0.333496 12.0053C0.333496 5.56697 5.56998 0.333008 12.0002 0.333008C18.4303 0.333008 23.6668 5.56697 23.6668 12.0053Z" fill="#019DA4"/>
<path d="M11.9985 1.17175C11.9985 0.708526 11.6225 0.32987 11.1605 0.363149C9.91546 0.452823 8.69105 0.741891 7.53449 1.22095C6.11923 1.80717 4.83329 2.66641 3.75009 3.74961C2.6669 4.8328 1.80766 6.11874 1.22144 7.53401C0.742379 8.69056 0.453311 9.91498 0.363637 11.16C0.330358 11.622 0.709015 11.998 1.17224 11.998C1.63547 11.998 2.00733 11.6218 2.04618 11.1602C2.13243 10.1357 2.3765 9.12893 2.77124 8.17595C3.27316 6.96421 4.00883 5.8632 4.93626 4.93577C5.86369 4.00835 6.9647 3.27267 8.17644 2.77075C9.12942 2.37601 10.1362 2.13194 11.1607 2.0457C11.6223 2.00684 11.9985 1.63498 11.9985 1.17175Z" fill="#019DA4"/>
<path d="M9.5 9.0752V14.9248" stroke="#019DA4" stroke-width="2.25" stroke-linecap="round"/>
<path d="M14.5 9.0752V14.9248" stroke="#019DA4" stroke-width="2.25" stroke-linecap="round"/>
</svg>
