<svg width="18" height="21" viewBox="0 0 18 21" fill="none" xmlns="http://www.w3.org/2000/svg">
<path opacity="0.4" d="M15.8088 7.521C15.3573 7.521 14.7592 7.511 14.0146 7.511C12.1987 7.511 10.7055 6.008 10.7055 4.175V0.959C10.7055 0.706 10.5036 0.5 10.253 0.5H4.96363C2.49517 0.5 0.5 2.526 0.5 5.009V15.784C0.5 18.389 2.59022 20.5 5.16958 20.5H13.0463C15.5058 20.5 17.5 18.487 17.5 16.002V7.971C17.5 7.717 17.299 7.512 17.0475 7.513C16.6247 7.516 16.1177 7.521 15.8088 7.521Z" fill="#696984"/>
<path opacity="0.4" d="M13.0847 1.06737C12.7857 0.75637 12.2637 0.97037 12.2637 1.40137V4.03837C12.2637 5.14437 13.1747 6.05437 14.2807 6.05437C14.9777 6.06237 15.9457 6.06437 16.7677 6.06237C17.1887 6.06137 17.4027 5.55837 17.1107 5.25437C16.0557 4.15737 14.1667 2.19137 13.0847 1.06737Z" fill="#696984"/>
<path d="M7.4594 14.0449C7.4594 13.5232 7.52325 13.1091 7.65094 12.8027C7.78228 12.4926 8.03767 12.1533 8.4171 11.7848C8.80018 11.4126 9.0428 11.1481 9.14496 10.9912C9.30184 10.7504 9.38028 10.4914 9.38028 10.2141C9.38028 9.84565 9.28907 9.56472 9.10665 9.37136C8.92423 9.17799 8.6579 9.08131 8.30765 9.08131C7.96835 9.08131 7.69472 9.17617 7.48676 9.36588C7.28245 9.5556 7.1803 9.81281 7.1803 10.1375H5.75195C5.7629 9.44432 6.00004 8.89524 6.46339 8.49027C6.92673 8.0853 7.54149 7.88281 8.30765 7.88281C9.0957 7.88281 9.70863 8.08347 10.1464 8.4848C10.5879 8.88612 10.8086 9.44432 10.8086 10.1594C10.8086 10.7979 10.5113 11.4272 9.91659 12.0474L9.19421 12.7589C8.93517 13.0544 8.80201 13.4831 8.79471 14.0449H7.4594ZM7.36089 15.8728C7.36089 15.6429 7.43204 15.4569 7.57432 15.3146C7.72026 15.1723 7.91727 15.1012 8.16536 15.1012C8.4171 15.1012 8.61411 15.1741 8.7564 15.3201C8.90234 15.466 8.97531 15.6502 8.97531 15.8728C8.97531 16.088 8.90416 16.2686 8.76187 16.4146C8.62324 16.5605 8.4244 16.6335 8.16536 16.6335C7.90633 16.6335 7.70749 16.5605 7.56885 16.4146C7.43021 16.2686 7.36089 16.088 7.36089 15.8728Z" fill="#696984"/>
</svg>
