<svg width="24" height="24" viewBox="0 0 24 24" fill="none" xmlns="http://www.w3.org/2000/svg">
<path opacity="0.4" d="M23.6668 12.0053C23.6668 18.4324 18.4303 23.6663 12.0002 23.6663C5.56998 23.6663 0.333496 18.4324 0.333496 12.0053C0.333496 5.56697 5.56998 0.333008 12.0002 0.333008C18.4303 0.333008 23.6668 5.56697 23.6668 12.0053" fill="#696984"/>
<path d="M16.6667 12.0053C16.6667 12.3002 16.5739 12.5962 16.3883 12.8332C16.3535 12.8797 16.1911 13.0714 16.0634 13.1961L15.9938 13.2642C15.0194 14.2973 12.5949 15.851 11.3653 16.3488C11.3653 16.3601 10.6345 16.6561 10.2865 16.6663H10.2401C9.70644 16.6663 9.20762 16.3726 8.95241 15.8963C8.81321 15.6343 8.68561 14.8745 8.67401 14.8643C8.5696 14.1827 8.5 13.1394 8.5 11.994C8.5 10.793 8.5696 9.7032 8.69721 9.0341C8.69721 9.02276 8.82481 8.41037 8.90601 8.20624C9.03362 7.91251 9.26562 7.66189 9.55563 7.50312C9.78764 7.39085 10.0312 7.33301 10.2865 7.33301C10.5533 7.34548 11.0521 7.51446 11.2493 7.59384C12.5485 8.09283 15.031 9.72588 15.9822 10.7239C16.1446 10.8826 16.3187 11.0765 16.3651 11.1208C16.5623 11.3703 16.6667 11.6765 16.6667 12.0053Z" fill="#696984"/>
</svg>
