<svg width="22" height="19" viewBox="0 0 22 19" fill="none" xmlns="http://www.w3.org/2000/svg">
<path d="M21 16.1348V18.1348H19V16.1348H3V18.1348H1V16.1348C0.734784 16.1348 0.48043 16.0294 0.292893 15.8419C0.105357 15.6543 0 15.4 0 15.1348V3.13477C0 2.86955 0.105357 2.6152 0.292893 2.42766C0.48043 2.24013 0.734784 2.13477 1 2.13477H10.81C11.4159 1.50163 12.1439 0.997955 12.9501 0.654194C13.7562 0.310433 14.6236 0.133731 15.5 0.13477C17.343 0.13477 19.007 0.90177 20.19 2.13477H21C21.2652 2.13477 21.5196 2.24013 21.7071 2.42766C21.8946 2.6152 22 2.86955 22 3.13477V15.1348C22 15.4 21.8946 15.6543 21.7071 15.8419C21.5196 16.0294 21.2652 16.1348 21 16.1348ZM15.5 11.1348C16.0909 11.1348 16.6761 11.0184 17.2221 10.7922C17.768 10.5661 18.2641 10.2346 18.682 9.81675C19.0998 9.39889 19.4313 8.90281 19.6575 8.35685C19.8836 7.81088 20 7.22572 20 6.63477C20 6.04382 19.8836 5.45866 19.6575 4.91269C19.4313 4.36673 19.0998 3.87065 18.682 3.45279C18.2641 3.03493 17.768 2.70346 17.2221 2.47731C16.6761 2.25117 16.0909 2.13477 15.5 2.13477C14.3065 2.13477 13.1619 2.60888 12.318 3.45279C11.4741 4.2967 11 5.4413 11 6.63477C11 7.82824 11.4741 8.97284 12.318 9.81675C13.1619 10.6607 14.3065 11.1348 15.5 11.1348ZM15.5 9.13477C14.837 9.13477 14.2011 8.87138 13.7322 8.40254C13.2634 7.9337 13 7.29781 13 6.63477C13 5.97173 13.2634 5.33584 13.7322 4.867C14.2011 4.39816 14.837 4.13477 15.5 4.13477C16.163 4.13477 16.7989 4.39816 17.2678 4.867C17.7366 5.33584 18 5.97173 18 6.63477C18 7.29781 17.7366 7.9337 17.2678 8.40254C16.7989 8.87138 16.163 9.13477 15.5 9.13477ZM3 10.1348V12.1348H5V10.1348H3ZM7 10.1348V12.1348H9V10.1348H7Z" fill="#696984"/>
</svg>
