<svg width="45" height="45" viewBox="0 0 45 45" fill="none" xmlns="http://www.w3.org/2000/svg">
<g filter="url(#filter0_ii_1061_25968)">
<rect x="0.332031" y="0.5" width="44" height="44" rx="17" fill="url(#paint0_linear_1061_25968)"/>
<g clip-path="url(#clip0_1061_25968)">
<path d="M32.332 29.5V31.5H30.332V29.5H14.332V31.5H12.332V29.5C12.0668 29.5 11.8125 29.3946 11.6249 29.2071C11.4374 29.0196 11.332 28.7652 11.332 28.5V16.5C11.332 16.2348 11.4374 15.9804 11.6249 15.7929C11.8125 15.6054 12.0668 15.5 12.332 15.5H22.142C22.7479 14.8669 23.476 14.3632 24.2821 14.0194C25.0882 13.6757 25.9557 13.499 26.832 13.5C28.675 13.5 30.339 14.267 31.522 15.5H32.332C32.5972 15.5 32.8516 15.6054 33.0391 15.7929C33.2267 15.9804 33.332 16.2348 33.332 16.5V28.5C33.332 28.7652 33.2267 29.0196 33.0391 29.2071C32.8516 29.3946 32.5972 29.5 32.332 29.5ZM26.832 24.5C27.423 24.5 28.0081 24.3836 28.5541 24.1575C29.1001 23.9313 29.5961 23.5998 30.014 23.182C30.4319 22.7641 30.7633 22.268 30.9895 21.7221C31.2156 21.1761 31.332 20.591 31.332 20C31.332 19.4091 31.2156 18.8239 30.9895 18.2779C30.7633 17.732 30.4319 17.2359 30.014 16.818C29.5961 16.4002 29.1001 16.0687 28.5541 15.8425C28.0081 15.6164 27.423 15.5 26.832 15.5C25.6386 15.5 24.494 15.9741 23.6501 16.818C22.8061 17.6619 22.332 18.8065 22.332 20C22.332 21.1935 22.8061 22.3381 23.6501 23.182C24.494 24.0259 25.6386 24.5 26.832 24.5ZM26.832 22.5C26.169 22.5 25.5331 22.2366 25.0643 21.7678C24.5954 21.2989 24.332 20.663 24.332 20C24.332 19.337 24.5954 18.7011 25.0643 18.2322C25.5331 17.7634 26.169 17.5 26.832 17.5C27.4951 17.5 28.131 17.7634 28.5998 18.2322C29.0686 18.7011 29.332 19.337 29.332 20C29.332 20.663 29.0686 21.2989 28.5998 21.7678C28.131 22.2366 27.4951 22.5 26.832 22.5ZM14.332 23.5V25.5H16.332V23.5H14.332ZM18.332 23.5V25.5H20.332V23.5H18.332Z" fill="white"/>
</g>
</g>
<defs>
<filter id="filter0_ii_1061_25968" x="0.332031" y="-3.5" width="44" height="52" filterUnits="userSpaceOnUse" color-interpolation-filters="sRGB">
<feFlood flood-opacity="0" result="BackgroundImageFix"/>
<feBlend mode="normal" in="SourceGraphic" in2="BackgroundImageFix" result="shape"/>
<feColorMatrix in="SourceAlpha" type="matrix" values="0 0 0 0 0 0 0 0 0 0 0 0 0 0 0 0 0 0 127 0" result="hardAlpha"/>
<feOffset dy="4"/>
<feGaussianBlur stdDeviation="2.5"/>
<feComposite in2="hardAlpha" operator="arithmetic" k2="-1" k3="1"/>
<feColorMatrix type="matrix" values="0 0 0 0 1 0 0 0 0 1 0 0 0 0 1 0 0 0 0.43 0"/>
<feBlend mode="normal" in2="shape" result="effect1_innerShadow_1061_25968"/>
<feColorMatrix in="SourceAlpha" type="matrix" values="0 0 0 0 0 0 0 0 0 0 0 0 0 0 0 0 0 0 127 0" result="hardAlpha"/>
<feOffset dy="-4"/>
<feGaussianBlur stdDeviation="5"/>
<feComposite in2="hardAlpha" operator="arithmetic" k2="-1" k3="1"/>
<feColorMatrix type="matrix" values="0 0 0 0 0.760219 0 0 0 0 0.554184 0 0 0 0 0.970833 0 0 0 1 0"/>
<feBlend mode="normal" in2="effect1_innerShadow_1061_25968" result="effect2_innerShadow_1061_25968"/>
</filter>
<linearGradient id="paint0_linear_1061_25968" x1="44.332" y1="24.2643" x2="0.332031" y2="24.6199" gradientUnits="userSpaceOnUse">
<stop stop-color="#CC9AFF"/>
<stop offset="1" stop-color="#CC9AFF" stop-opacity="0.33"/>
</linearGradient>
<clipPath id="clip0_1061_25968">
<rect width="24" height="24" fill="white" transform="translate(10.332 10.5)"/>
</clipPath>
</defs>
</svg>
