<svg width="24" height="25" viewBox="0 0 24 25" fill="none" xmlns="http://www.w3.org/2000/svg">
<path opacity="0.4" d="M22 12.1348C22 17.6588 17.523 22.1348 12 22.1348C6.477 22.1348 2 17.6588 2 12.1348C2 6.61277 6.477 2.13477 12 2.13477C17.523 2.13477 22 6.61277 22 12.1348Z" fill="#FFA800"/>
<path d="M15.5734 15.9495C15.4424 15.9495 15.3104 15.9155 15.1894 15.8445L11.2634 13.5025C11.0374 13.3665 10.8984 13.1215 10.8984 12.8575V7.81055C10.8984 7.39655 11.2344 7.06055 11.6484 7.06055C12.0624 7.06055 12.3984 7.39655 12.3984 7.81055V12.4315L15.9584 14.5545C16.3134 14.7675 16.4304 15.2275 16.2184 15.5835C16.0774 15.8185 15.8284 15.9495 15.5734 15.9495Z" fill="#FFA800"/>
</svg>
