<svg width="20" height="21" viewBox="0 0 20 21" fill="none" xmlns="http://www.w3.org/2000/svg">
<path opacity="0.4" d="M14.34 0.556641H5.67C2.28 0.556641 0 2.93664 0 6.47664V14.6466C0 18.1766 2.28 20.5566 5.67 20.5566H14.34C17.73 20.5566 20 18.1766 20 14.6466V6.47664C20 2.93664 17.73 0.556641 14.34 0.556641Z" fill="#FFA800"/>
<path d="M13.5734 14.3714C13.4424 14.3714 13.3104 14.3374 13.1894 14.2664L9.26341 11.9244C9.03741 11.7884 8.89841 11.5434 8.89841 11.2794V6.23242C8.89841 5.81842 9.23441 5.48242 9.64841 5.48242C10.0624 5.48242 10.3984 5.81842 10.3984 6.23242V10.8534L13.9584 12.9764C14.3134 13.1894 14.4304 13.6494 14.2184 14.0054C14.0774 14.2404 13.8284 14.3714 13.5734 14.3714Z" fill="#FFA800"/>
</svg>
