<svg width="20" height="21" viewBox="0 0 20 21" fill="none" xmlns="http://www.w3.org/2000/svg">
<path opacity="0.4" d="M14.3403 0.556641H5.67031C2.28031 0.556641 0.000305176 2.93664 0.000305176 6.47664V14.6466C0.000305176 18.1766 2.28031 20.5566 5.67031 20.5566H14.3403C17.7303 20.5566 20.0003 18.1766 20.0003 14.6466V6.47664C20.0003 2.93664 17.7303 0.556641 14.3403 0.556641Z" fill="#019DA4"/>
<path d="M8.81341 13.8051C8.58941 13.8051 8.36541 13.7201 8.19441 13.5491L5.82141 11.1761C5.47941 10.8341 5.47941 10.2801 5.82141 9.93909C6.16341 9.59709 6.71641 9.59609 7.05841 9.93809L8.81341 11.6931L12.9414 7.56509C13.2834 7.22309 13.8364 7.22309 14.1784 7.56509C14.5204 7.90709 14.5204 8.46109 14.1784 8.80309L9.43241 13.5491C9.26141 13.7201 9.03741 13.8051 8.81341 13.8051Z" fill="#019DA4"/>
</svg>
