<svg width="20" height="21" viewBox="0 0 20 21" fill="none" xmlns="http://www.w3.org/2000/svg">
<path opacity="0.4" d="M0 9.57812C0.05 11.9161 0.19 15.9151 0.21 16.3561C0.281 17.2991 0.642 18.2521 1.204 18.9241C1.986 19.8671 2.949 20.2881 4.292 20.2881C6.148 20.2981 8.194 20.2981 10.181 20.2981C12.176 20.2981 14.112 20.2981 15.747 20.2881C17.071 20.2881 18.064 19.8561 18.836 18.9241C19.398 18.2521 19.759 17.2891 19.81 16.3561C19.83 15.9851 19.93 11.6441 19.99 9.57812H0Z" fill="#696984"/>
<path d="M9.24609 13.8838V15.1778C9.24609 15.5918 9.58209 15.9278 9.99609 15.9278C10.4101 15.9278 10.7461 15.5918 10.7461 15.1778V13.8838C10.7461 13.4698 10.4101 13.1338 9.99609 13.1338C9.58209 13.1338 9.24609 13.4698 9.24609 13.8838Z" fill="#696984"/>
<path fill-rule="evenodd" clip-rule="evenodd" d="M8.211 13.056C8.111 13.419 7.762 13.651 7.384 13.601C4.833 13.245 2.395 12.34 0.337 10.981C0.126 10.843 0 10.607 0 10.355V6.889C0 4.789 1.712 3.081 3.817 3.081H5.784C5.972 1.629 7.202 0.5 8.704 0.5H11.286C12.787 0.5 14.018 1.629 14.206 3.081H16.183C18.282 3.081 19.99 4.789 19.99 6.889V10.355C19.99 10.607 19.863 10.842 19.654 10.981C17.592 12.346 15.144 13.255 12.576 13.61C12.541 13.615 12.507 13.617 12.473 13.617C12.134 13.617 11.831 13.388 11.746 13.052C11.544 12.256 10.821 11.699 9.99 11.699C9.148 11.699 8.433 12.244 8.211 13.056ZM11.286 2H8.704C8.031 2 7.469 2.46 7.301 3.081H12.688C12.52 2.46 11.958 2 11.286 2Z" fill="#696984"/>
</svg>
