<svg width="162" height="42" viewBox="0 0 162 42" fill="none" xmlns="http://www.w3.org/2000/svg">
<g clip-path="url(#clip0_1989_24483)">
<path d="M133 14.9704C132.69 14.8304 132.73 15.1504 132.67 15.2604C131.67 17.4704 130.61 19.6904 129.58 21.9104C128.55 24.1304 127.65 26.0804 126.69 28.1704C125.73 30.2604 124.69 32.4804 123.69 34.6104C123.16 35.8424 122.326 36.9197 121.266 37.7417C120.206 38.5637 118.955 39.1034 117.63 39.3104C116.686 39.3985 115.738 39.4319 114.79 39.4104C114.44 39.4104 114.36 39.3104 114.45 38.9704C114.76 37.8704 115.06 36.7704 115.32 35.6604C115.4 35.3004 115.55 35.2204 115.9 35.2004C116.868 35.2311 117.82 34.9545 118.62 34.4104C119.242 33.8873 119.695 33.1912 119.92 32.4104C119.99 32.2204 119.92 32.0504 119.81 31.8804L116.58 24.9604C115.04 21.6271 113.504 18.3304 111.97 15.0704C111.82 14.7304 111.97 14.6904 112.23 14.6904H116.23C116.4 14.6904 116.53 14.6904 116.62 14.8904C117.58 16.9838 118.547 19.0671 119.52 21.1404L122.29 27.1404C122.95 26.0604 123.36 24.9604 123.87 23.9204C124.46 22.7204 124.99 21.4904 125.55 20.2804C126.34 18.5704 127.15 16.8604 127.93 15.1404C127.971 15.0052 128.056 14.8878 128.173 14.8078C128.289 14.7278 128.429 14.6899 128.57 14.7004C130.03 14.7004 131.48 14.7004 132.94 14.7004L133 14.9704Z" fill="#019DA4"/>
<path d="M76.6203 20.0403C76.6203 23.9403 76.6203 27.8403 76.6203 31.7403C76.6203 32.1903 76.5403 32.3403 76.0603 32.3203C74.9903 32.3203 73.9103 32.3203 72.8403 32.3203C72.4103 32.3203 72.2903 32.2103 72.2903 31.7803C72.2903 29.0503 72.2903 26.3303 72.2903 23.6003C72.3518 22.5843 72.0819 21.5758 71.521 20.7265C70.9602 19.8771 70.1388 19.2327 69.1803 18.8903C68.4875 18.6089 67.7403 18.4865 66.9939 18.5321C66.2475 18.5777 65.5208 18.7901 64.8674 19.1538C64.2139 19.5175 63.6504 20.0231 63.2182 20.6334C62.7861 21.2437 62.4963 21.9432 62.3703 22.6803C62.2437 23.4336 62.289 24.2059 62.5028 24.9392C62.7166 25.6726 63.0933 26.3482 63.6049 26.9156C64.1165 27.4829 64.7496 27.9273 65.4571 28.2156C66.1645 28.5038 66.9279 28.6285 67.6903 28.5803C68.1027 28.5663 68.5092 28.4782 68.8903 28.3203C69.2503 28.1503 69.2903 28.3203 69.3903 28.5803C69.7903 29.5803 70.2003 30.5803 70.6203 31.5803C70.7503 31.8803 70.7503 32.0703 70.3603 32.2003C68.8445 32.8217 67.1855 33.0087 65.5694 32.7402C63.9533 32.4717 62.4438 31.7584 61.2103 30.6803C60.2282 29.866 59.4376 28.8453 58.8949 27.6907C58.3522 26.5361 58.0706 25.2761 58.0703 24.0003C57.9842 22.4563 58.2545 20.9131 58.8603 19.4903C59.3143 18.412 59.9867 17.4395 60.8352 16.634C61.6837 15.8285 62.6899 15.2076 63.7903 14.8103C65.0794 14.2953 66.4739 14.1 67.8548 14.241C69.2358 14.3821 70.562 14.8553 71.7203 15.6203C71.8703 15.7103 72.0303 15.9203 72.2103 15.8203C72.3903 15.7203 72.3103 15.4403 72.3103 15.2503C72.3103 12.9203 72.3103 10.5903 72.3103 8.25028C72.3103 7.83028 72.3903 7.66028 72.8503 7.68028C73.9203 7.68028 75.0003 7.68028 76.0703 7.68028C76.5403 7.68028 76.6503 7.80028 76.6503 8.26028C76.6203 12.2003 76.6203 16.1203 76.6203 20.0403Z" fill="#019DA4"/>
<path d="M18.1302 25.6804C16.0502 25.6804 13.9602 25.6804 11.8802 25.6804C11.3702 25.6804 11.2802 25.8104 11.5402 26.2104C12.1755 27.2653 13.1826 28.0443 14.3633 28.3941C15.544 28.7439 16.8129 28.6391 17.9202 28.1004C18.0945 28.0211 18.285 27.9843 18.4762 27.993C18.6675 28.0017 18.8539 28.0557 19.0202 28.1504C20.1702 28.5804 21.3002 29.0804 22.4402 29.5204C22.8302 29.6704 22.7502 29.7804 22.5202 30.0204C21.7053 30.9054 20.716 31.6119 19.6145 32.0956C18.513 32.5792 17.3232 32.8294 16.1202 32.8304C13.9565 32.9546 11.8222 32.2823 10.1202 30.9404C8.81078 29.9754 7.78733 28.6736 7.15872 27.1734C6.5301 25.6731 6.31982 24.0306 6.55022 22.4204C6.79136 20.2151 7.82977 18.1739 9.47022 16.6804C10.7722 15.4488 12.4123 14.6341 14.1802 14.3404C15.3737 14.1139 16.6006 14.1299 17.7878 14.3876C18.9749 14.6453 20.0981 15.1394 21.0902 15.8404C22.2083 16.5782 23.1477 17.5562 23.8397 18.7032C24.5317 19.8502 24.9589 21.1373 25.0902 22.4704C25.1604 23.3223 25.1604 24.1785 25.0902 25.0304C25.0902 25.4504 24.9002 25.6804 24.3702 25.6704C22.3102 25.6704 20.2502 25.6704 18.1802 25.6704L18.1302 25.6804ZM11.2902 21.4604H15.2902C16.8002 21.4604 18.2902 21.4604 19.8102 21.4604C20.2102 21.4604 20.2902 21.3504 20.1002 21.0004C19.8302 20.5105 19.4862 20.0652 19.0802 19.6804C18.5404 19.2338 17.9155 18.9015 17.2433 18.7039C16.5712 18.5062 15.8659 18.4472 15.1702 18.5304C14.3215 18.6301 13.5147 18.9541 12.8328 19.4691C12.1508 19.984 11.6184 20.6714 11.2902 21.4604V21.4604Z" fill="#019DA4"/>
<path d="M97.1803 23.5103C97.1803 26.2603 97.1803 29.0003 97.1803 31.7503C97.1803 32.2203 97.0503 32.3403 96.5903 32.3303C95.5203 32.3303 94.4503 32.3303 93.3703 32.3303C92.9303 32.3303 92.8303 32.2103 92.8303 31.7803C92.8303 29.0603 92.8303 26.3303 92.8303 23.6103C92.8805 22.4342 92.5029 21.2797 91.7676 20.3605C91.0322 19.4412 89.9887 18.8195 88.8303 18.6103C88.1085 18.4536 87.361 18.4587 86.6415 18.6253C85.922 18.7919 85.2483 19.1158 84.6688 19.5738C84.0894 20.0318 83.6187 20.6125 83.2904 21.2741C82.9621 21.9357 82.7845 22.6618 82.7703 23.4003C82.7612 24.1119 82.9005 24.8175 83.1793 25.4723C83.4582 26.127 83.8705 26.7164 84.3899 27.2029C84.9093 27.6893 85.5244 28.0622 86.196 28.2976C86.8676 28.5331 87.5808 28.6259 88.2903 28.5703C88.7189 28.5211 89.1412 28.4273 89.5503 28.2903C89.7603 28.2303 89.8003 28.2903 89.8803 28.4703C90.2803 29.4703 90.7003 30.5303 91.1403 31.5403C91.3103 31.9303 91.2003 32.0603 90.8503 32.2203C90.1982 32.5228 89.4971 32.7057 88.7803 32.7603C87.3586 32.972 85.9068 32.835 84.5498 32.3612C83.1928 31.8874 81.9712 31.0909 80.9903 30.0403C79.7037 28.6117 78.8808 26.8264 78.6303 24.9203C78.3226 23.0029 78.6123 21.0373 79.4603 19.2903C79.9971 18.0955 80.8025 17.0407 81.8137 16.2082C82.8249 15.3756 84.0147 14.7877 85.2903 14.4903C86.4858 14.1762 87.7344 14.1199 88.9533 14.3251C90.1722 14.5302 91.3335 14.9922 92.3603 15.6803C92.4803 15.7703 92.6003 15.9603 92.7803 15.8503C92.9603 15.7403 92.8603 15.5903 92.8403 15.4603C92.7303 14.8303 92.9703 14.6503 93.6103 14.6903C94.6095 14.7464 95.6111 14.7464 96.6103 14.6903C97.0703 14.6903 97.2303 14.7503 97.2203 15.2703C97.1603 18.0203 97.1803 20.7703 97.1803 23.5103Z" fill="#019DA4"/>
<path d="M49.8102 14.3306C52.6502 14.3306 54.7102 14.9606 56.4202 16.5906C56.7302 16.8806 56.7402 17.0706 56.4202 17.3706C55.6802 18.0606 54.9702 18.7806 54.2802 19.5106C53.9502 19.8706 53.7302 19.9206 53.3702 19.5106C52.9973 19.083 52.5359 18.7416 52.0178 18.5102C51.4998 18.2788 50.9376 18.1629 50.3702 18.1706C49.8357 18.1938 49.3145 18.3447 48.8502 18.6106C48.6833 18.7028 48.5432 18.8369 48.4437 18.9995C48.3442 19.1622 48.2888 19.348 48.2827 19.5386C48.2766 19.7292 48.3203 19.9181 48.4092 20.0867C48.4982 20.2554 48.6295 20.398 48.7902 20.5006C49.3251 20.8495 49.923 21.0907 50.5502 21.2106C52.4739 21.5908 54.2598 22.482 55.7202 23.7906C56.1947 24.1748 56.5806 24.657 56.8516 25.2041C57.1226 25.7512 57.2722 26.3504 57.2902 26.9606C57.3405 27.7726 57.2137 28.5858 56.9184 29.3438C56.6231 30.1019 56.1665 30.7866 55.5802 31.3506C54.6348 32.2254 53.4074 32.7327 52.1202 32.7806C49.6367 33.0164 47.1515 32.3489 45.1202 30.9006C44.8702 30.7306 44.6502 30.5106 44.4102 30.3206C44.1702 30.1306 44.3402 29.9906 44.4102 29.8706C45.2402 29.0306 46.0802 28.2106 46.9002 27.3706C47.1302 27.1306 47.2302 27.2806 47.3802 27.4406C47.8828 27.9605 48.4936 28.3635 49.1693 28.621C49.845 28.8785 50.5691 28.9842 51.2902 28.9306C51.6799 28.9227 52.0588 28.801 52.3802 28.5806C53.3002 28.0006 53.2402 27.1006 52.2602 26.4906C51.7762 26.2224 51.2582 26.0205 50.7202 25.8906C48.8022 25.4126 47.0086 24.5294 45.4602 23.3006C43.6202 21.7106 43.8402 18.5706 44.7102 17.0906C45.2126 16.1956 45.9583 15.4613 46.8609 14.9728C47.7636 14.4843 48.7862 14.2617 49.8102 14.3306Z" fill="#019DA4"/>
<path d="M37.6603 13.5604C37.6603 14.5604 37.6603 15.5004 37.6603 16.4704C37.6603 16.8204 37.7403 16.9504 38.1003 16.9304C38.6203 16.9304 39.1003 16.9304 39.6503 16.9304C39.9603 16.9304 40.1403 16.9904 40.2203 17.3304C40.4703 18.4504 40.7603 19.5704 41.0503 20.6704C41.1603 21.0604 41.0503 21.1704 40.6803 21.1504C39.8103 21.1504 38.9403 21.1504 38.0703 21.1504C37.7603 21.1504 37.6503 21.2204 37.6503 21.5604C37.6503 23.2704 37.6503 24.9904 37.6503 26.7004C37.6529 26.8917 37.6933 27.0805 37.7692 27.2561C37.8451 27.4317 37.955 27.5905 38.0926 27.7235C38.2302 27.8564 38.3927 27.9608 38.5708 28.0306C38.7489 28.1004 38.939 28.1344 39.1303 28.1304C39.9103 28.1304 40.7003 28.1304 41.4803 28.1304C41.8203 28.1304 42.0003 28.1904 42.0903 28.5604C42.3503 29.7004 42.6403 30.8304 42.9503 31.9504C43.0403 32.2604 42.9503 32.3604 42.6703 32.3604C41.1648 32.4455 39.6558 32.4455 38.1503 32.3604C37.2635 32.2454 36.4194 31.9108 35.6947 31.3869C34.97 30.863 34.3875 30.1664 34.0003 29.3604C33.5161 28.45 33.2717 27.4313 33.2903 26.4004C33.2903 21.4937 33.2903 16.5804 33.2903 11.6604C33.2903 11.2604 33.3903 11.1004 33.7803 11.0104C34.9003 10.7604 36.0003 10.4604 37.1103 10.1704C37.4603 10.0804 37.6403 10.1704 37.6303 10.5904C37.6303 11.5904 37.6303 12.5904 37.6303 13.5904L37.6603 13.5604Z" fill="#019DA4"/>
<path d="M27.0303 19.9902C27.0303 16.1502 27.0303 12.3102 27.0303 8.47017C27.0303 7.81017 27.2303 7.65017 27.8503 7.68017C28.8503 7.74017 29.8503 7.68017 30.8503 7.68017C31.2003 7.68017 31.3003 7.78017 31.3003 8.13017C31.3003 16.0302 31.3003 23.9335 31.3003 31.8402C31.3003 32.2402 31.1803 32.3202 30.8103 32.3102C29.7503 32.3102 28.7003 32.3102 27.6503 32.3102C27.1803 32.3102 27.0703 32.2002 27.0703 31.7402C27.0403 27.8302 27.0303 23.9102 27.0303 19.9902Z" fill="#019DA4"/>
<path d="M106.29 19.92C106.29 16.04 106.29 12.17 106.29 8.29004C106.29 7.84004 106.36 7.67004 106.85 7.69004C107.92 7.69004 109 7.69004 110.07 7.69004C110.42 7.69004 110.52 7.81004 110.52 8.15004C110.52 16.05 110.52 23.9534 110.52 31.86C110.52 32.27 110.37 32.33 110.02 32.32C108.94 32.32 107.87 32.32 106.8 32.32C106.39 32.32 106.29 32.21 106.29 31.81C106.29 27.81 106.29 23.88 106.29 19.92V19.92Z" fill="#019DA4"/>
<path d="M4.62027 23.5397C4.62027 26.2797 4.62027 29.0297 4.62027 31.7697C4.62027 32.1997 4.52027 32.3397 4.08027 32.3197C2.99027 32.3197 1.89027 32.3197 0.800273 32.3197C0.450273 32.3197 0.280273 32.3197 0.280273 31.8597C0.28694 26.293 0.290273 20.723 0.290273 15.1497C0.290273 14.7997 0.390273 14.6797 0.750273 14.6797C1.88027 14.6797 3.02027 14.6797 4.15027 14.6797C4.55027 14.6797 4.63027 14.7997 4.63027 15.1597C4.61027 17.9697 4.62027 20.7497 4.62027 23.5397Z" fill="#019DA4"/>
<path d="M99.6303 23.4501C99.6303 20.7301 99.6303 18.0001 99.6303 15.2801C99.6303 14.8301 99.7103 14.6701 100.19 14.6901C101.19 14.6901 102.3 14.6901 103.35 14.6901C103.71 14.6901 103.85 14.7601 103.85 15.1601C103.85 20.7068 103.85 26.2601 103.85 31.8201C103.85 32.1901 103.76 32.3201 103.37 32.3101C102.37 32.3101 101.3 32.3101 100.27 32.3101C99.7703 32.3101 99.6103 32.2101 99.6203 31.6801C99.6203 28.9301 99.6203 26.1901 99.6203 23.4401L99.6303 23.4501Z" fill="#019DA4"/>
<path d="M43.1404 37.7299C43.1404 38.9599 43.1404 40.1999 43.1404 41.4399C43.1404 41.9799 42.8404 41.8599 42.5604 41.8599C42.2804 41.8599 41.9404 41.9699 41.9404 41.4499C41.9404 39.5699 41.9404 37.6999 41.9404 35.8199C41.9404 35.4599 42.0404 35.3299 42.4304 35.3099C42.6766 35.2608 42.9321 35.2951 43.1567 35.4074C43.3812 35.5197 43.562 35.7035 43.6704 35.9299C44.0504 36.6499 44.5404 37.3099 44.9704 38.0099C45.1704 38.3199 45.3004 38.4199 45.5404 38.0099C46.0104 37.1899 46.5404 36.4099 47.0604 35.6199C47.2716 35.4759 47.5109 35.3783 47.7626 35.3335C48.0142 35.2887 48.2725 35.2977 48.5204 35.3599C48.6404 35.4599 48.5904 35.5899 48.5904 35.7099C48.5904 37.6499 48.5904 39.5899 48.5904 41.5299C48.5904 42.0999 48.2204 41.8199 48.0004 41.8499C47.7804 41.8799 47.4204 41.9999 47.4404 41.4899C47.4404 40.3099 47.4404 39.1299 47.4404 37.9599C47.4806 37.775 47.4484 37.5818 47.3504 37.4199L45.2904 40.6799C44.5304 39.6799 44.0304 38.5999 43.2904 37.6799L43.1404 37.7299Z" fill="#019DA4"/>
<path d="M28.2102 41.8603C28.2102 40.8603 28.8102 40.7903 29.4602 40.7003C29.9872 40.664 30.4824 40.4349 30.8513 40.0568C31.2202 39.6787 31.4369 39.178 31.4602 38.6503C31.4437 38.1105 31.2319 37.5951 30.8641 37.1996C30.4962 36.8042 29.9974 36.5557 29.4602 36.5003C29.0327 36.4388 28.602 36.4021 28.1702 36.3903C27.7702 36.3903 27.7002 36.5203 27.7002 36.8903C27.7002 38.3803 27.7002 39.8903 27.7002 41.3503C27.7002 41.8003 27.5402 41.9003 27.1402 41.8803C26.7402 41.8603 26.4702 41.8803 26.4802 41.3603C26.4802 39.5203 26.4802 37.6903 26.4802 35.8503C26.4802 35.3903 26.6502 35.3003 27.0502 35.3103C27.8202 35.3103 28.5802 35.3103 29.3402 35.3103C29.864 35.3217 30.3774 35.4584 30.8374 35.7089C31.2975 35.9595 31.6909 36.3166 31.9846 36.7503C32.2783 37.1841 32.4639 37.6819 32.5258 38.2021C32.5877 38.7223 32.524 39.2497 32.3402 39.7403C32.1135 40.3664 31.6987 40.9072 31.1527 41.2885C30.6067 41.6698 29.9562 41.873 29.2902 41.8703C28.9309 41.842 28.57 41.8387 28.2102 41.8603V41.8603Z" fill="#019DA4"/>
<path d="M24.2303 41.8098H24.0703C22.9503 41.8698 22.9603 41.8098 22.5103 40.8098C21.9703 39.5898 21.4103 38.3798 20.8603 37.1698C20.7879 37.0417 20.7078 36.9181 20.6203 36.7998C20.2303 37.6598 19.8603 38.4498 19.5003 39.2498C19.4103 39.4498 19.5003 39.5598 19.7203 39.5598C19.8833 39.5749 20.0473 39.5749 20.2103 39.5598C20.9403 39.3998 21.2103 39.8298 21.4503 40.3998C21.5703 40.6798 21.5103 40.7698 21.2103 40.7598C20.6103 40.7598 20.0103 40.7598 19.4103 40.7598C19.2386 40.7284 19.0614 40.7623 18.9134 40.8548C18.7654 40.9473 18.6573 41.0917 18.6103 41.2598C18.4912 41.5001 18.2876 41.6881 18.0385 41.7878C17.7894 41.8874 17.5123 41.8917 17.2603 41.7998C16.9803 41.6998 17.1303 41.5298 17.1803 41.4098C18.0603 39.4598 18.9503 37.5198 19.8103 35.5698C19.9703 35.2098 20.2403 35.2398 20.5203 35.2598C20.8003 35.2798 21.2903 35.1098 21.5203 35.6398C22.0703 37.0198 22.6903 38.3198 23.2903 39.6798C23.6003 40.3398 23.9003 41.0498 24.2303 41.8098Z" fill="#019DA4"/>
<path d="M7.63029 41.8001C7.52029 41.8001 7.48029 41.8701 7.45029 41.8601C6.05029 41.8601 6.45029 42.1501 5.85029 40.8601C5.25029 39.5701 4.66029 38.2501 4.02029 36.8601L2.89029 39.2901C2.77029 39.5601 2.89029 39.6701 3.18029 39.6401C3.3468 39.6301 3.51377 39.6301 3.68029 39.6401C4.44029 39.6401 4.68029 39.8101 4.85029 40.5501C4.94029 40.8701 4.75029 40.8301 4.55029 40.8301H2.55029C2.45269 40.8131 2.3522 40.8295 2.26509 40.8767C2.17798 40.9239 2.10934 40.9991 2.07029 41.0901C1.63029 41.9901 1.55029 42.0001 0.420288 41.7901L1.71029 38.8701C2.17029 37.8701 2.64029 36.8201 3.09029 35.7901C3.21029 35.5101 3.34029 35.2601 3.71029 35.3201C4.08029 35.3801 4.61029 35.1001 4.87029 35.7101C5.63029 37.4601 6.42029 39.2001 7.20029 40.9401C7.34029 41.2101 7.48029 41.4801 7.63029 41.8001Z" fill="#019DA4"/>
<path d="M34.9602 38.5905C34.9602 37.6405 34.9602 36.6905 34.9602 35.7405C34.9602 35.4305 35.0402 35.3105 35.3702 35.3105C36.6202 35.3105 37.8802 35.3105 39.1402 35.3105C39.6302 35.3105 39.5302 35.6105 39.5302 35.8805C39.5302 36.1505 39.5302 36.4105 39.1402 36.4005C38.3102 36.4005 37.4902 36.4005 36.6602 36.4005C36.2902 36.4005 36.1202 36.4505 36.1302 36.8905C36.1302 38.0205 36.1302 38.0205 37.2602 38.0205C37.6102 38.0205 37.9602 38.0205 38.3102 38.0205C38.6602 38.0205 38.6502 38.0205 38.7202 38.3105C38.9202 39.2005 38.9502 39.1905 38.0402 39.1905C37.5602 39.1905 37.0402 39.1905 36.6102 39.1905C36.1802 39.1905 36.1402 39.3205 36.1302 39.6805C36.1302 40.8505 36.1302 40.8505 37.2502 40.8505C37.8902 40.8505 38.5302 40.8505 39.1602 40.8505C39.7902 40.8505 39.5002 41.2005 39.5302 41.4505C39.5602 41.7005 39.5302 41.9205 39.1802 41.9205C37.9002 41.9205 36.6202 41.9205 35.3402 41.9205C34.9802 41.9205 34.9502 41.7705 34.9502 41.4905C34.9502 40.5405 34.9502 39.5905 34.9502 38.6405L34.9602 38.5905Z" fill="#019DA4"/>
<path d="M2.48004 11.8997H0.690039C0.410039 11.8997 0.290039 11.8297 0.300039 11.5197C0.290039 10.3697 0.290039 9.21969 0.290039 8.05969C0.290039 7.74969 0.430039 7.67969 0.710039 7.67969C1.88004 7.67969 3.05004 7.67969 4.23004 7.67969C4.52004 7.67969 4.63004 7.75969 4.63004 8.05969C4.63004 9.20969 4.63004 10.3597 4.63004 11.5197C4.63004 11.8397 4.49004 11.8897 4.22004 11.8797L2.48004 11.8997Z" fill="#019DA4"/>
<path d="M101.74 11.8997C101.16 11.8997 100.59 11.8997 100.01 11.8997C99.7202 11.8997 99.6102 11.8197 99.6202 11.5097C99.6202 10.3597 99.6202 9.19969 99.6202 8.04969C99.6202 7.71969 99.7702 7.67969 100.03 7.67969C101.16 7.67969 102.3 7.67969 103.43 7.67969C103.73 7.67969 103.84 7.76969 103.83 8.05969C103.83 9.20969 103.83 10.3697 103.83 11.5197C103.83 11.8497 103.68 11.8897 103.41 11.8797L101.74 11.8997Z" fill="#019DA4"/>
<path d="M12.5902 41.9699C11.7868 42.0087 10.9968 41.7526 10.3689 41.2499C9.74094 40.7472 9.31824 40.0324 9.18023 39.2399C9.0051 38.384 9.16317 37.4936 9.62218 36.7502C10.0812 36.0069 10.8065 35.4667 11.6502 35.2399C12.2003 35.0919 12.7775 35.0754 13.3352 35.1918C13.8928 35.3082 14.4153 35.5542 14.8602 35.9099C14.9602 35.9799 15.0102 36.0399 14.9902 36.1599C14.884 36.3766 14.703 36.5476 14.4807 36.6414C14.2583 36.7351 14.0095 36.7452 13.7802 36.6699C13.3975 36.4231 12.9477 36.3012 12.4927 36.3209C12.0378 36.3406 11.6002 36.501 11.2402 36.7799C10.8906 37.0255 10.6185 37.3659 10.456 37.761C10.2935 38.156 10.2474 38.5894 10.3231 39.0098C10.3988 39.4303 10.5931 39.8203 10.8832 40.1339C11.1732 40.4476 11.547 40.6717 11.9602 40.7799C12.2866 40.8825 12.6327 40.9061 12.97 40.8487C13.3073 40.7913 13.6261 40.6547 13.9002 40.4499C14.5002 39.9799 14.6402 40.6599 14.9002 40.8899C15.1602 41.1199 14.7502 41.3099 14.5902 41.4199C14.3128 41.6445 13.9919 41.8093 13.6477 41.9039C13.3035 41.9985 12.9435 42.021 12.5902 41.9699Z" fill="#019DA4"/>
<path d="M53.41 40.4698C53.71 39.4698 52.93 38.7598 52.41 37.9298C51.89 37.0998 51.5001 36.4598 51.0301 35.7398C50.8301 35.4298 50.8401 35.3198 51.2401 35.3098C51.8401 35.3098 52.3401 35.3098 52.6501 35.9998C52.9601 36.6898 53.43 37.1898 53.79 37.8098C53.97 38.0998 54.04 38.1298 54.23 37.8098C54.63 37.1398 55.0801 36.5098 55.4901 35.8098C55.6597 35.5749 55.8976 35.3981 56.1714 35.3033C56.4451 35.2084 56.7415 35.2002 57.02 35.2798C57.28 35.3998 57.1 35.5298 57.02 35.6598C56.43 36.5998 55.8801 37.5698 55.2401 38.4698C54.7842 39.0581 54.5728 39.7995 54.6501 40.5398C54.67 40.7226 54.67 40.907 54.6501 41.0898C54.6501 41.3298 54.78 41.6898 54.54 41.7698C54.2099 41.835 53.8702 41.835 53.54 41.7698C53.39 41.7698 53.4201 41.5798 53.4201 41.4698L53.41 40.4698Z" fill="#019DA4"/>
</g>
<path d="M137.71 36.407C140.637 36.407 143.444 35.2145 145.514 33.0918C147.584 30.9691 148.746 28.0902 148.746 25.0883C148.746 22.0863 147.584 19.2074 145.514 17.0847C143.444 14.962 140.637 13.7695 137.71 13.7695" stroke="#019DA4" stroke-width="10" stroke-miterlimit="10"/>
<path d="M159.201 3.21989C159.239 3.79894 159.153 4.3794 158.951 4.92147C158.749 5.46354 158.435 5.9544 158.031 6.36039C157.555 6.79158 157.05 7.20121 156.539 7.60365C155.417 8.48759 154.31 9.40746 153.14 10.2267C152.598 10.5626 152.006 10.8053 151.388 10.9454C150.954 11.0604 150.723 10.8088 150.687 10.3417C150.615 9.74467 150.776 9.14244 151.136 8.66725C151.746 7.82081 152.421 7.0254 153.154 6.28853C154.435 5.01484 155.864 3.90704 157.407 2.98993C157.604 2.88213 157.8 2.78152 158.003 2.69528C158.18 2.60031 158.382 2.56649 158.579 2.59887C158.776 2.63125 158.957 2.72809 159.096 2.87494L159.201 3.21989Z" fill="#FFA800"/>
<path d="M147.52 0C147.868 0.447601 148.083 0.988254 148.141 1.55771C148.198 2.12716 148.094 2.70146 147.842 3.21236C147.429 4.19691 146.882 5.11678 146.399 6.08696C146.217 6.44628 146.084 6.80561 145.887 7.17212C145.749 7.44371 145.564 7.68724 145.341 7.89077C144.738 8.39382 144.332 8.26446 144.283 7.45958C144.227 6.73383 144.299 6.00375 144.493 5.30363C145.031 3.46088 145.867 1.72393 146.967 0.165289L147.52 0Z" fill="#FFB800"/>
<path d="M157.506 13.8915C158.697 13.6616 159.825 13.4244 160.967 13.2519C161.097 13.2393 161.227 13.2574 161.349 13.3048C161.47 13.3521 161.579 13.4275 161.668 13.525C161.759 13.6688 161.668 14.0353 161.521 14.2437C161.207 14.7239 160.801 15.1334 160.327 15.4473C159.854 15.7611 159.323 15.9727 158.767 16.0691C157.365 16.4068 155.964 16.7877 154.562 17.0895C154.133 17.1502 153.697 17.1357 153.273 17.0464C153.207 17.0466 153.143 17.027 153.088 16.99C153.033 16.953 152.989 16.9003 152.963 16.8383C152.937 16.7763 152.929 16.7079 152.941 16.6414C152.952 16.5749 152.983 16.5133 153.028 16.4643C153.326 16.0053 153.712 15.614 154.163 15.3145C155.263 14.7611 156.412 14.373 157.506 13.8915Z" fill="#FFB800"/>
<defs>
<clipPath id="clip0_1989_24483">
<rect width="132.71" height="34.32" fill="white" transform="translate(0.290039 7.67969)"/>
</clipPath>
</defs>
</svg>
