<svg xmlns="http://www.w3.org/2000/svg" viewBox="0 0 132.71 34.32"><defs><style>.cls-1{fill:#019da4;}</style></defs><title>Asset 1</title><g id="Layer_2" data-name="Layer 2"><g id="Layer_1-2" data-name="Layer 1"><path class="cls-1" d="M132.71,7.29c-.31-.14-.27.18-.33.29-1,2.21-2.06,4.43-3.09,6.65s-1.93,4.17-2.89,6.26-2,4.31-3,6.44a7.93,7.93,0,0,1-6.06,4.7,24.59,24.59,0,0,1-2.84.1c-.35,0-.43-.1-.34-.44.31-1.1.61-2.2.87-3.31.08-.36.23-.44.58-.46a4.58,4.58,0,0,0,2.72-.79,4.1,4.1,0,0,0,1.3-2c.07-.19,0-.36-.11-.53l-3.23-6.92q-2.31-5-4.61-9.89c-.15-.34,0-.38.26-.38h4c.17,0,.3,0,.39.2q1.44,3.14,2.9,6.25l2.77,6c.66-1.08,1.07-2.18,1.58-3.22.59-1.2,1.12-2.43,1.68-3.64.79-1.71,1.6-3.42,2.38-5.14a.62.62,0,0,1,.64-.44c1.46,0,2.91,0,4.37,0Z"/><path class="cls-1" d="M76.33,12.36q0,5.85,0,11.7c0,.45-.08.6-.56.58-1.07,0-2.15,0-3.22,0-.43,0-.55-.11-.55-.54,0-2.73,0-5.45,0-8.18a4.7,4.7,0,0,0-3.11-4.71A5,5,0,0,0,62.08,15,5.07,5.07,0,0,0,67.4,20.9a3.44,3.44,0,0,0,1.2-.26c.36-.17.4,0,.5.26.4,1,.81,2,1.23,3,.13.3.13.49-.26.62A8.82,8.82,0,0,1,60.92,23a8.68,8.68,0,0,1-3.14-6.68,10.08,10.08,0,0,1,.79-4.51A8.47,8.47,0,0,1,63.5,7.13a8.6,8.6,0,0,1,7.93.81c.15.09.31.3.49.2s.1-.38.1-.57c0-2.33,0-4.66,0-7,0-.42.08-.59.54-.57,1.07,0,2.15,0,3.22,0,.47,0,.58.12.58.58C76.33,4.52,76.33,8.44,76.33,12.36Z"/><path class="cls-1" d="M17.84,18c-2.08,0-4.17,0-6.25,0-.51,0-.6.13-.34.53a4.93,4.93,0,0,0,6.38,1.89,1.21,1.21,0,0,1,1.1.05c1.15.43,2.28.93,3.42,1.37.39.15.31.26.08.5a8.71,8.71,0,0,1-6.4,2.81,8.87,8.87,0,0,1-6-1.89,9,9,0,0,1-3.57-8.52A9.1,9.1,0,0,1,9.18,9a9,9,0,0,1,4.71-2.34A9.05,9.05,0,0,1,20.8,8.16a9,9,0,0,1,4,6.63,15.58,15.58,0,0,1,0,2.56c0,.42-.19.65-.72.64-2.06,0-4.12,0-6.19,0ZM11,13.78h4c1.51,0,3,0,4.52,0,.4,0,.48-.11.29-.46A5.43,5.43,0,0,0,18.79,12a5.17,5.17,0,0,0-3.91-1.15A4.81,4.81,0,0,0,11,13.78Z"/><path class="cls-1" d="M96.89,15.83c0,2.75,0,5.49,0,8.24,0,.47-.13.59-.59.58-1.07,0-2.14,0-3.22,0-.44,0-.54-.12-.54-.55,0-2.72,0-5.45,0-8.17a4.87,4.87,0,0,0-4-5,5,5,0,0,0-6.06,4.79A5.12,5.12,0,0,0,88,20.89a6.19,6.19,0,0,0,1.26-.28c.21-.06.25,0,.33.18.4,1,.82,2.06,1.26,3.07.17.39.06.52-.29.68a6,6,0,0,1-2.07.54,8.87,8.87,0,0,1-7.79-2.72,9.5,9.5,0,0,1-2.36-5.12,9.46,9.46,0,0,1,.83-5.63A8.51,8.51,0,0,1,85,6.81,8.72,8.72,0,0,1,92.07,8c.12.09.24.28.42.17s.08-.26.06-.39c-.11-.63.13-.81.77-.77a26.74,26.74,0,0,0,3,0c.46,0,.62.06.61.58C96.87,10.34,96.89,13.09,96.89,15.83Z"/><path class="cls-1" d="M49.52,6.65c2.84,0,4.9.63,6.61,2.26.31.29.32.48,0,.78-.74.69-1.45,1.41-2.14,2.14-.33.36-.55.41-.91,0a3.91,3.91,0,0,0-3-1.34,3.35,3.35,0,0,0-1.52.44,1.1,1.1,0,0,0-.06,1.89,4.91,4.91,0,0,0,1.76.71,10.92,10.92,0,0,1,5.17,2.58A4.24,4.24,0,0,1,57,19.28a5.61,5.61,0,0,1-1.71,4.39,5.39,5.39,0,0,1-3.46,1.43,10.37,10.37,0,0,1-7-1.88c-.25-.17-.47-.39-.71-.58s-.07-.33,0-.45c.83-.84,1.67-1.66,2.49-2.5.23-.24.33-.09.48.07A4.93,4.93,0,0,0,51,21.25a2,2,0,0,0,1.09-.35c.92-.58.86-1.48-.12-2.09a6.16,6.16,0,0,0-1.54-.6,13.85,13.85,0,0,1-5.26-2.59c-1.84-1.59-1.62-4.73-.75-6.21A5.43,5.43,0,0,1,49.52,6.65Z"/><path class="cls-1" d="M37.37,5.88c0,1,0,1.94,0,2.91,0,.35.08.48.44.46.52,0,1,0,1.55,0,.31,0,.49.06.57.4.25,1.12.54,2.24.83,3.34.11.39,0,.5-.37.48-.87,0-1.74,0-2.61,0-.31,0-.42.07-.42.41,0,1.71,0,3.43,0,5.14a1.45,1.45,0,0,0,1.48,1.43c.78,0,1.57,0,2.35,0,.34,0,.52.06.61.43.26,1.14.55,2.27.86,3.39.09.31,0,.41-.28.41a40.05,40.05,0,0,1-4.52,0,5.37,5.37,0,0,1-4.15-3A6.07,6.07,0,0,1,33,18.72q0-7.36,0-14.74c0-.4.1-.56.49-.65,1.12-.25,2.22-.55,3.33-.84.35-.09.53,0,.52.42,0,1,0,2,0,3Z"/><path class="cls-1" d="M26.74,12.31c0-3.84,0-7.68,0-11.52,0-.66.2-.82.82-.79,1,.06,2,0,3,0,.35,0,.45.1.45.45q0,11.85,0,23.71c0,.4-.12.48-.49.47-1.06,0-2.11,0-3.16,0-.47,0-.58-.11-.58-.57C26.75,20.15,26.74,16.23,26.74,12.31Z"/><path class="cls-1" d="M106,12.24c0-3.88,0-7.75,0-11.63,0-.45.07-.62.56-.6,1.07,0,2.15,0,3.22,0,.35,0,.45.12.45.46q0,11.85,0,23.71c0,.41-.15.47-.5.46-1.08,0-2.15,0-3.22,0-.41,0-.51-.11-.51-.51,0-4,0-7.93,0-11.89Z"/><path class="cls-1" d="M4.33,15.86c0,2.74,0,5.49,0,8.23,0,.43-.1.57-.54.55-1.09,0-2.19,0-3.28,0-.35,0-.52,0-.52-.46Q0,15.83,0,7.47C0,7.12.1,7,.46,7c1.13,0,2.27,0,3.4,0,.4,0,.48.12.48.48C4.32,10.29,4.33,13.07,4.33,15.86Z"/><path class="cls-1" d="M99.34,15.77c0-2.72,0-5.45,0-8.17,0-.45.08-.61.56-.59,1,0,2.11,0,3.16,0,.36,0,.5.07.5.47q0,8.32,0,16.66c0,.37-.09.5-.48.49-1,0-2.07,0-3.1,0-.5,0-.66-.1-.65-.63,0-2.75,0-5.49,0-8.24Z"/><path class="cls-1" d="M42.85,30.05c0,1.23,0,2.47,0,3.71,0,.54-.3.42-.58.42s-.62.11-.62-.41c0-1.88,0-3.75,0-5.63,0-.36.1-.49.49-.51a1.13,1.13,0,0,1,1.24.62c.38.72.87,1.38,1.3,2.08.2.31.33.41.57,0,.47-.82,1-1.6,1.52-2.39a1.81,1.81,0,0,1,1.46-.26c.12.1.07.23.07.35,0,1.94,0,3.88,0,5.82,0,.57-.37.29-.59.32s-.58.15-.56-.36c0-1.18,0-2.36,0-3.53a.74.74,0,0,0-.09-.54L45,33c-.76-1-1.26-2.08-2-3Z"/><path class="cls-1" d="M27.92,34.18c0-1,.6-1.07,1.25-1.16a2.15,2.15,0,0,0,2-2.05,2.23,2.23,0,0,0-2-2.15,11.22,11.22,0,0,0-1.29-.11c-.4,0-.47.13-.47.5,0,1.49,0,3,0,4.46,0,.45-.16.55-.56.53s-.67,0-.66-.52c0-1.84,0-3.67,0-5.51,0-.46.17-.55.57-.54.77,0,1.53,0,2.29,0a3.28,3.28,0,0,1,3,4.43A3.23,3.23,0,0,1,29,34.19,7.81,7.81,0,0,0,27.92,34.18Z"/><path class="cls-1" d="M23.94,34.13l-.16,0c-1.12.06-1.11,0-1.56-1-.54-1.22-1.1-2.43-1.65-3.64a3.6,3.6,0,0,0-.24-.37c-.39.86-.76,1.65-1.12,2.45-.09.2,0,.31.22.31a2.66,2.66,0,0,0,.49,0c.73-.16,1,.27,1.24.84.12.28.06.37-.24.36-.6,0-1.2,0-1.8,0a.7.7,0,0,0-.8.5,1.09,1.09,0,0,1-1.35.54c-.28-.1-.13-.27-.08-.39.88-1.95,1.77-3.89,2.63-5.84.16-.36.43-.33.71-.31s.77-.15,1,.38C21.78,29.34,22.4,30.64,23,32,23.31,32.66,23.61,33.37,23.94,34.13Z"/><path class="cls-1" d="M7.34,34.12c-.11,0-.15.07-.18.06-1.4,0-1,.29-1.6-1s-1.19-2.61-1.83-4L2.6,31.61c-.12.27,0,.38.29.35a4.17,4.17,0,0,1,.5,0c.76,0,1,.17,1.17.91.09.32-.1.28-.3.28h-2a.44.44,0,0,0-.48.26c-.44.9-.52.91-1.65.7l1.29-2.92c.46-1,.93-2.05,1.38-3.08.12-.28.25-.53.62-.47s.9-.22,1.16.39c.76,1.75,1.55,3.49,2.33,5.23C7.05,33.53,7.19,33.8,7.34,34.12Z"/><path class="cls-1" d="M34.67,30.91c0-.95,0-1.9,0-2.85,0-.31.08-.43.41-.43,1.25,0,2.51,0,3.77,0,.49,0,.39.3.39.57s0,.53-.39.52c-.83,0-1.65,0-2.48,0-.37,0-.54.05-.53.49,0,1.13,0,1.13,1.13,1.13.35,0,.7,0,1.05,0s.34,0,.41.29c.2.89.23.88-.68.88-.48,0-1,0-1.43,0s-.47.13-.48.49c0,1.17,0,1.17,1.12,1.17.64,0,1.28,0,1.91,0s.34.35.37.6,0,.47-.35.47c-1.28,0-2.56,0-3.84,0-.36,0-.39-.15-.39-.43,0-.95,0-1.9,0-2.85Z"/><path class="cls-1" d="M2.19,4.22H.4c-.28,0-.4-.07-.39-.38C0,2.69,0,1.54,0,.38,0,.07.14,0,.42,0,1.59,0,2.76,0,3.94,0c.29,0,.4.08.4.38,0,1.15,0,2.3,0,3.46,0,.32-.14.37-.41.36Z"/><path class="cls-1" d="M101.45,4.22c-.58,0-1.15,0-1.73,0-.29,0-.4-.08-.39-.39,0-1.15,0-2.31,0-3.46,0-.33.15-.37.41-.37,1.13,0,2.27,0,3.4,0,.3,0,.41.09.4.38,0,1.15,0,2.31,0,3.46,0,.33-.15.37-.42.36Z"/><path class="cls-1" d="M12.3,34.29a3.3,3.3,0,0,1-3.41-2.73,3.43,3.43,0,0,1,2.47-4,3.63,3.63,0,0,1,3.21.67c.1.07.15.13.13.25a1,1,0,0,1-1.21.51,2.2,2.2,0,0,0-2.54.11,2.24,2.24,0,0,0,.72,4,2.16,2.16,0,0,0,1.94-.33c.6-.47.74.21,1,.44s-.15.42-.31.53A2.59,2.59,0,0,1,12.3,34.29Z"/><path class="cls-1" d="M53.12,32.79c.3-1-.48-1.71-1-2.54s-.91-1.47-1.38-2.19c-.2-.31-.19-.42.21-.43.6,0,1.1,0,1.41.69s.78,1.19,1.14,1.81c.18.29.25.32.44,0,.4-.67.85-1.3,1.26-2a1.41,1.41,0,0,1,1.53-.53c.26.12.08.25,0,.38-.59.94-1.14,1.91-1.78,2.81a2.89,2.89,0,0,0-.59,2.07,2.53,2.53,0,0,1,0,.55c0,.24.13.6-.11.68a2.58,2.58,0,0,1-1,0c-.15,0-.12-.19-.12-.3Z"/></g></g></svg>