<svg width="24" height="24" viewBox="0 0 24 24" fill="none" xmlns="http://www.w3.org/2000/svg">
<path opacity="0.4" d="M11.9996 22.4818C11.1935 22.4818 10.3884 22.1757 9.77308 21.5646L9.00784 20.7993C8.71117 20.5037 8.31387 20.3402 7.89246 20.3391H6.81588C5.07573 20.3391 3.65949 18.9229 3.65949 17.1827V16.1051C3.65845 15.6848 3.49491 15.2874 3.19825 14.9887L2.44558 14.2371C1.2128 13.0116 1.20756 11.0084 2.43405 9.77453L3.1993 9.00823C3.49491 8.71157 3.65845 8.31427 3.65949 7.89286V6.81732C3.65949 5.07612 5.07573 3.65989 6.81588 3.65989H7.89351C8.31387 3.65989 8.71012 3.49636 9.00889 3.1976L9.7626 2.44598C10.988 1.21319 12.9903 1.20691 14.2251 2.43445L14.9904 3.19969C15.2881 3.49636 15.6844 3.65989 16.1047 3.65989H17.1824C18.9225 3.65989 20.3387 5.07612 20.3387 6.81732V7.89391C20.3398 8.31427 20.5033 8.71157 20.8 9.01033L21.5526 9.763C22.1491 10.3563 22.4793 11.1467 22.4825 11.9906C22.4846 12.8292 22.1617 13.6186 21.5736 14.2151C21.5631 14.2255 21.5537 14.2371 21.5432 14.2465L20.7989 14.9908C20.5033 15.2874 20.3398 15.6847 20.3387 16.1062V17.1827C20.3387 18.9229 18.9225 20.3391 17.1824 20.3391H16.1047C15.6844 20.3402 15.2871 20.5037 14.9893 20.8004L14.2356 21.553C13.6213 22.1715 12.81 22.4818 11.9996 22.4818Z" fill="#696984"/>
<path fill-rule="evenodd" clip-rule="evenodd" d="M10.0437 10.0506C9.87873 10.2156 9.66473 10.3046 9.42773 10.3046C9.20573 10.3046 8.98773 10.2136 8.81273 10.0496C8.64673 9.88459 8.55273 9.65858 8.55273 9.42958C8.55273 9.21158 8.64473 8.98758 8.80673 8.81458C8.89573 8.72458 9.00173 8.65658 9.10773 8.62058C9.40973 8.48258 9.81073 8.56358 10.0487 8.81358C10.1337 8.89858 10.1987 8.99158 10.2417 9.08858C10.2887 9.19258 10.3127 9.31058 10.3127 9.42958C10.3127 9.66758 10.2177 9.88858 10.0437 10.0506ZM15.1914 8.80948C14.8504 8.46948 14.2954 8.46948 13.9544 8.80948L8.81443 13.9495C8.47343 14.2905 8.47343 14.8455 8.81443 15.1875C8.98043 15.3525 9.19943 15.4435 9.43343 15.4435C9.66743 15.4435 9.88643 15.3525 10.0514 15.1875L15.1914 10.0475C15.5324 9.70548 15.5324 9.15148 15.1914 8.80948ZM14.9067 13.7636C14.5827 13.6276 14.1987 13.7016 13.9427 13.9576C13.8897 14.0196 13.8147 14.1156 13.7637 14.2286C13.7097 14.3506 13.7027 14.4816 13.7027 14.5696C13.7027 14.6576 13.7097 14.7876 13.7637 14.9096C13.8137 15.0216 13.8737 15.1126 13.9527 15.1916C14.1337 15.3596 14.3437 15.4446 14.5777 15.4446C14.7997 15.4446 15.0177 15.3546 15.1967 15.1876C15.3557 15.0286 15.4427 14.8086 15.4427 14.5696C15.4427 14.3296 15.3557 14.1106 15.1957 13.9506C15.1077 13.8636 15.0017 13.7956 14.9067 13.7636Z" fill="#696984"/>
</svg>
