<svg width="24" height="24" viewBox="0 0 24 24" fill="none" xmlns="http://www.w3.org/2000/svg">
<path opacity="0.4" d="M18.8088 9.021C18.3573 9.021 17.7592 9.011 17.0146 9.011C15.1987 9.011 13.7055 7.508 13.7055 5.675V2.459C13.7055 2.206 13.5036 2 13.253 2H7.96363C5.49517 2 3.5 4.026 3.5 6.509V17.284C3.5 19.889 5.59022 22 8.16958 22H16.0463C18.5058 22 20.5 19.987 20.5 17.502V9.471C20.5 9.217 20.299 9.012 20.0475 9.013C19.6247 9.016 19.1177 9.021 18.8088 9.021Z" fill="#696984"/>
<path opacity="0.4" d="M16.0847 2.56737C15.7857 2.25637 15.2637 2.47037 15.2637 2.90137V5.53837C15.2637 6.64437 16.1747 7.55437 17.2807 7.55437C17.9777 7.56237 18.9457 7.56437 19.7677 7.56237C20.1887 7.56137 20.4027 7.05837 20.1107 6.75437C19.0557 5.65737 17.1667 3.69137 16.0847 2.56737Z" fill="#696984"/>
<path d="M10.4594 15.5449C10.4594 15.0232 10.5232 14.6091 10.6509 14.3027C10.7823 13.9926 11.0377 13.6533 11.4171 13.2848C11.8002 12.9126 12.0428 12.6481 12.145 12.4912C12.3018 12.2504 12.3803 11.9914 12.3803 11.7141C12.3803 11.3456 12.2891 11.0647 12.1066 10.8714C11.9242 10.678 11.6579 10.5813 11.3076 10.5813C10.9683 10.5813 10.6947 10.6762 10.4868 10.8659C10.2825 11.0556 10.1803 11.3128 10.1803 11.6375H8.75195C8.7629 10.9443 9.00004 10.3952 9.46339 9.99027C9.92673 9.5853 10.5415 9.38281 11.3076 9.38281C12.0957 9.38281 12.7086 9.58347 13.1464 9.9848C13.5879 10.3861 13.8086 10.9443 13.8086 11.6594C13.8086 12.2979 13.5113 12.9272 12.9166 13.5474L12.1942 14.2589C11.9352 14.5544 11.802 14.9831 11.7947 15.5449H10.4594ZM10.3609 17.3728C10.3609 17.1429 10.432 16.9569 10.5743 16.8146C10.7203 16.6723 10.9173 16.6012 11.1654 16.6012C11.4171 16.6012 11.6141 16.6741 11.7564 16.8201C11.9023 16.966 11.9753 17.1502 11.9753 17.3728C11.9753 17.588 11.9042 17.7686 11.7619 17.9146C11.6232 18.0605 11.4244 18.1335 11.1654 18.1335C10.9063 18.1335 10.7075 18.0605 10.5689 17.9146C10.4302 17.7686 10.3609 17.588 10.3609 17.3728Z" fill="#696984"/>
</svg>
