<svg width="15" height="16" viewBox="0 0 15 16" fill="none" xmlns="http://www.w3.org/2000/svg">
<path opacity="0.4" d="M10.7714 15.084H4.22598C2.32024 15.084 0.769531 13.5476 0.769531 11.6589V7.88409C0.769531 5.99532 2.32024 4.45898 4.22598 4.45898H10.7714C12.6772 4.45898 14.2279 5.99532 14.2279 7.88409V11.6589C14.2279 13.5476 12.6772 15.084 10.7714 15.084Z" fill="#9399A6"/>
<path d="M10.1599 6.58366C9.86864 6.58366 9.63227 6.3544 9.63227 6.07192V4.00313C9.63227 2.8657 8.67834 1.94047 7.50633 1.94047C6.96676 1.94047 6.40045 2.15063 5.99735 2.5375C5.59355 2.92574 5.36984 3.44226 5.36773 3.99357V6.07192C5.36773 6.3544 5.13136 6.58366 4.84012 6.58366C4.54887 6.58366 4.3125 6.3544 4.3125 6.07192V4.00313C4.31602 3.16455 4.65088 2.3908 5.25447 1.81151C5.85736 1.23086 6.63682 0.939509 7.50844 0.916992C9.26012 0.916992 10.6875 2.30142 10.6875 4.00313V6.07192C10.6875 6.3544 10.4511 6.58366 10.1599 6.58366Z" fill="#9399A6"/>
</svg>
