<svg width="17" height="18" viewBox="0 0 17 18" fill="none" xmlns="http://www.w3.org/2000/svg">
<path fill-rule="evenodd" clip-rule="evenodd" d="M1.25254 2.50294C1.30915 2.26315 1.5232 2.09375 1.76958 2.09375H13.8112C13.8937 2.09375 13.9751 2.11295 14.0488 2.14984L13.8112 2.625C14.0488 2.14984 14.0488 2.14984 14.0488 2.14984L14.0498 2.15033L14.051 2.1509L14.0536 2.15225L14.0605 2.15578L14.0802 2.16626C14.0959 2.17478 14.1167 2.18639 14.1418 2.2012C14.192 2.23079 14.26 2.27338 14.3397 2.32983C14.4985 2.44233 14.7076 2.6124 14.9166 2.84758C15.3387 3.3224 15.7592 4.0632 15.7592 5.10417C15.7592 6.14513 15.3387 6.88593 14.9166 7.36076C14.7076 7.59594 14.4985 7.76601 14.3397 7.8785C14.26 7.93495 14.192 7.97754 14.1418 8.00713C14.1167 8.02194 14.0959 8.03356 14.0802 8.04207L14.0605 8.05255L14.0536 8.05609L14.051 8.05743L14.0498 8.058C14.0498 8.058 14.0488 8.0585 13.8112 7.58333L14.0488 8.0585C13.9751 8.09538 13.8937 8.11458 13.8112 8.11458H1.76958C1.5232 8.11458 1.30915 7.94518 1.25254 7.70539C1.19622 7.46679 1.31049 7.22081 1.52873 7.10982L1.53247 7.10782C1.5375 7.1051 1.54714 7.09976 1.56074 7.09175C1.588 7.07568 1.63075 7.0491 1.68387 7.01147C1.79068 6.93582 1.93574 6.81813 2.08086 6.65487C2.36712 6.33282 2.655 5.83404 2.655 5.10417C2.655 4.3743 2.36712 3.87551 2.08086 3.55346C1.93574 3.39021 1.79068 3.27252 1.68387 3.19686C1.63075 3.15924 1.588 3.13265 1.56074 3.11659C1.54714 3.10857 1.5375 3.10324 1.53247 3.10051L1.52873 3.09851C1.31049 2.98753 1.19622 2.74155 1.25254 2.50294ZM3.11881 3.15625C3.44515 3.62301 3.7175 4.26637 3.7175 5.10417C3.7175 5.94196 3.44515 6.58532 3.11881 7.05208H13.666C13.6839 7.04037 13.7038 7.02684 13.7255 7.01147C13.8323 6.93582 13.9774 6.81813 14.1225 6.65487C14.4088 6.33282 14.6967 5.83404 14.6967 5.10417C14.6967 4.3743 14.4088 3.87551 14.1225 3.55346C13.9774 3.39021 13.8323 3.27252 13.7255 3.19686C13.7038 3.18149 13.6839 3.16797 13.666 3.15625H3.11881Z" fill="#9399A6"/>
<path fill-rule="evenodd" clip-rule="evenodd" d="M2.94862 9.94183C3.02238 9.90494 3.10372 9.88574 3.1862 9.88574H15.2279C15.4742 9.88574 15.6883 10.0551 15.7449 10.2949C15.8012 10.5335 15.687 10.7795 15.4687 10.8905C15.4676 10.8911 15.4665 10.8916 15.4654 10.8922L15.2279 10.417C15.4654 10.8922 15.4657 10.892 15.4659 10.8919L15.4663 10.8917L15.4671 10.8913L15.4682 10.8908L15.465 10.8925C15.4599 10.8952 15.4503 10.9006 15.4367 10.9086C15.4094 10.9246 15.3667 10.9512 15.3136 10.9889C15.2068 11.0645 15.0617 11.1822 14.9166 11.3455C14.6303 11.6675 14.3424 12.1663 14.3424 12.8962C14.3424 13.626 14.6303 14.1248 14.9166 14.4469C15.0617 14.6101 15.2068 14.7278 15.3136 14.8035C15.3667 14.8411 15.4094 14.8677 15.4367 14.8837C15.4503 14.8918 15.4599 14.8971 15.465 14.8998L15.4682 14.9015L15.4671 14.901L15.4663 14.9006L15.4659 14.9004C15.4668 14.9009 15.4678 14.9013 15.4687 14.9018C15.687 15.0128 15.8012 15.2588 15.7449 15.4974C15.6883 15.7372 15.4742 15.9066 15.2279 15.9066H3.1862C3.10372 15.9066 3.02238 15.8874 2.94862 15.8505L3.1862 15.3753C2.94862 15.8505 2.94838 15.8504 2.94813 15.8502L2.94762 15.85L2.94649 15.8494L2.94384 15.8481L2.93698 15.8445L2.91726 15.8341C2.90154 15.8255 2.88075 15.8139 2.85561 15.7991C2.8054 15.7695 2.73747 15.7269 2.65777 15.6705C2.49896 15.558 2.28985 15.3879 2.0808 15.1527C1.65873 14.6779 1.23828 13.9371 1.23828 12.8962C1.23828 11.8552 1.65873 11.1144 2.0808 10.6396C2.28985 10.4044 2.49896 10.2343 2.65777 10.1218C2.73747 10.0654 2.8054 10.0228 2.85561 9.99319C2.88075 9.97838 2.90154 9.96677 2.91726 9.95826L2.93698 9.94778L2.94384 9.94424L2.94649 9.94289L2.94762 9.94233L2.94813 9.94207C2.94838 9.94195 2.94862 9.94183 3.1862 10.417L2.94862 9.94183ZM3.33146 10.9482C3.31357 10.96 3.29361 10.9735 3.27192 10.9889C3.16511 11.0645 3.02004 11.1822 2.87493 11.3455C2.58866 11.6675 2.30078 12.1663 2.30078 12.8962C2.30078 13.626 2.58866 14.1248 2.87493 14.4469C3.02004 14.6101 3.16511 14.7278 3.27192 14.8035C3.29361 14.8188 3.31357 14.8324 3.33146 14.8441H13.8786C13.5523 14.3773 13.2799 13.734 13.2799 12.8962C13.2799 12.0584 13.5523 11.415 13.8786 10.9482H3.33146ZM3.42729 14.9019L3.42728 14.9019L3.42729 14.9019Z" fill="#9399A6"/>
</svg>
