<svg width="13" height="15" viewBox="0 0 13 15" fill="none" xmlns="http://www.w3.org/2000/svg">
<path fill-rule="evenodd" clip-rule="evenodd" d="M0.125 10.9521V5.55957H12.875V10.9953C12.875 13.2188 11.4754 14.5859 9.23614 14.5859H3.75686C1.53856 14.5859 0.125 13.1904 0.125 10.9521ZM3.6379 9.20961C3.316 9.22449 3.05008 8.96878 3.03609 8.64365C3.03609 8.31782 3.28801 8.04865 3.60991 8.03378C3.92481 8.03378 4.18373 8.2824 4.19072 8.60045C4.20472 8.92699 3.9528 9.19615 3.6379 9.20961ZM6.514 9.20961C6.1921 9.22449 5.92618 8.96878 5.91218 8.64365C5.91218 8.31782 6.16411 8.04865 6.486 8.03378C6.80091 8.03378 7.05982 8.2824 7.06682 8.60045C7.08082 8.92699 6.8289 9.19615 6.514 9.20961ZM9.3691 11.8163C9.0472 11.8092 8.78828 11.54 8.78828 11.2142C8.78128 10.8884 9.0402 10.6199 9.3621 10.6128H9.3691C9.698 10.6128 9.96391 10.882 9.96391 11.2142C9.96391 11.5471 9.698 11.8163 9.3691 11.8163ZM5.91218 11.2142C5.92618 11.54 6.1921 11.7957 6.514 11.7809C6.8289 11.7674 7.08082 11.4982 7.06682 11.1724C7.05982 10.8537 6.80091 10.605 6.486 10.605C6.16411 10.6199 5.91218 10.8884 5.91218 11.2142ZM3.02909 11.2142C3.04308 11.54 3.309 11.7957 3.6309 11.7809C3.9458 11.7674 4.19772 11.4982 4.18373 11.1724C4.17673 10.8537 3.91781 10.605 3.60291 10.605C3.28101 10.6199 3.02909 10.8884 3.02909 11.2142ZM8.79528 8.63657C8.79528 8.31074 9.0472 8.04865 9.3691 8.04157C9.684 8.04157 9.93592 8.29586 9.94992 8.60824C9.95692 8.93407 9.70499 9.20324 9.39009 9.20961C9.06819 9.2167 8.80228 8.96878 8.79528 8.64365V8.63657Z" fill="#9399A6"/>
<path opacity="0.4" d="M0.12738 5.55957C0.136478 5.14378 0.171467 4.31857 0.237246 4.05294C0.573141 2.55907 1.71378 1.6099 3.34427 1.47461H9.65629C11.2728 1.61698 12.4274 2.57253 12.7633 4.05294C12.8284 4.31148 12.8634 5.14307 12.8725 5.55957H0.12738Z" fill="#9399A6"/>
<path d="M3.88258 3.6702C4.19048 3.6702 4.42141 3.43715 4.42141 3.12478V0.96507C4.42141 0.652695 4.19048 0.418945 3.88258 0.418945C3.57468 0.418945 3.34375 0.652695 3.34375 0.96507V3.12478C3.34375 3.43715 3.57468 3.6702 3.88258 3.6702Z" fill="#9399A6"/>
<path d="M9.11726 3.6702C9.41817 3.6702 9.65609 3.43715 9.65609 3.12478V0.96507C9.65609 0.652695 9.41817 0.418945 9.11726 0.418945C8.80936 0.418945 8.57843 0.652695 8.57843 0.96507V3.12478C8.57843 3.43715 8.80936 3.6702 9.11726 3.6702Z" fill="#9399A6"/>
</svg>
