<svg width="15" height="16" viewBox="0 0 15 16" fill="none" xmlns="http://www.w3.org/2000/svg">
<path opacity="0.4" d="M7.51416 0.916992C3.39874 0.916992 0.416656 4.27449 0.416656 8.00033C0.416656 9.19032 0.76374 10.4157 1.37291 11.5349C1.48624 11.7191 1.50041 11.9528 1.42249 12.1724L0.947906 13.7591C0.841656 14.1416 1.16749 14.4249 1.52874 14.3116L2.95957 13.8866C3.34916 13.7591 3.65374 13.922 4.0157 14.1416C5.04986 14.7507 6.33832 15.0624 7.49999 15.0624C11.0133 15.0624 14.5833 12.3495 14.5833 7.97908C14.5833 4.21074 11.5375 0.916992 7.51416 0.916992Z" fill="#9399A6"/>
<path fill-rule="evenodd" clip-rule="evenodd" d="M7.48618 8.91401C6.98326 8.90693 6.57951 8.50318 6.57951 8.00026C6.57951 7.50443 6.99035 7.09359 7.48618 7.10068C7.9891 7.10068 8.39285 7.50443 8.39285 8.00734C8.39285 8.50318 7.9891 8.91401 7.48618 8.91401ZM4.22048 8.91405C3.72465 8.91405 3.31381 8.50321 3.31381 8.00738C3.31381 7.50446 3.71756 7.10071 4.22048 7.10071C4.7234 7.10071 5.12715 7.50446 5.12715 8.00738C5.12715 8.50321 4.7234 8.90696 4.22048 8.91405ZM9.84479 8.00734C9.84479 8.50318 10.2485 8.91401 10.7515 8.91401C11.2544 8.91401 11.6581 8.50318 11.6581 8.00734C11.6581 7.50443 11.2544 7.10068 10.7515 7.10068C10.2485 7.10068 9.84479 7.50443 9.84479 8.00734Z" fill="#9399A6"/>
</svg>
