<svg width="15" height="16" viewBox="0 0 15 16" fill="none" xmlns="http://www.w3.org/2000/svg">
<path opacity="0.4" d="M14.5846 8.00033C14.5846 11.9125 11.4134 15.0837 7.5013 15.0837C3.58918 15.0837 0.417969 11.9125 0.417969 8.00033C0.417969 4.08891 3.58918 0.916992 7.5013 0.916992C11.4134 0.916992 14.5846 4.08891 14.5846 8.00033Z" fill="#9399A6"/>
<path d="M10.2336 5.66607L9.0861 9.29274C9.0436 9.44149 8.92318 9.5619 8.77443 9.60511L5.16193 10.7377C4.9211 10.8164 4.68735 10.5819 4.76527 10.3411L5.8986 6.70732C5.9411 6.55857 6.06152 6.44524 6.21027 6.39565L9.83693 5.26232C10.0849 5.1844 10.3115 5.41815 10.2336 5.66607Z" fill="#9399A6"/>
</svg>
