<svg width="13" height="15" viewBox="0 0 13 15" fill="none" xmlns="http://www.w3.org/2000/svg">
<path opacity="0.4" d="M9.46863 0.416992H3.53208C1.37875 0.416992 0.125 1.67783 0.125 3.83824V11.1553C0.125 13.3512 1.37875 14.5837 3.53208 14.5837H9.46863C11.6567 14.5837 12.875 13.3512 12.875 11.1553V3.83824C12.875 1.67783 11.6567 0.416992 9.46863 0.416992Z" fill="#696984"/>
<path fill-rule="evenodd" clip-rule="evenodd" d="M3.72367 3.71094V3.71802C3.41838 3.71802 3.17117 3.96594 3.17117 4.27052C3.17117 4.5751 3.41838 4.82302 3.72367 4.82302H5.84088C6.14617 4.82302 6.39409 4.5751 6.39409 4.26273C6.39409 3.95885 6.14617 3.71094 5.84088 3.71094H3.72367ZM9.27701 8.02469H3.72367C3.41838 8.02469 3.17117 7.77677 3.17117 7.47219C3.17117 7.1676 3.41838 6.91898 3.72367 6.91898H9.27701C9.58159 6.91898 9.8295 7.1676 9.8295 7.47219C9.8295 7.77677 9.58159 8.02469 9.27701 8.02469ZM9.27701 11.2618H3.72367C3.51117 11.2901 3.30576 11.1839 3.19242 11.0068C3.07909 10.8226 3.07909 10.5889 3.19242 10.4118C3.30576 10.2276 3.51117 10.1284 3.72367 10.1497H9.27701C9.55963 10.178 9.77284 10.4189 9.77284 10.7093C9.77284 10.9919 9.55963 11.2334 9.27701 11.2618Z" fill="#696984"/>
</svg>
