<svg width="13" height="13" viewBox="0 0 13 13" fill="none" xmlns="http://www.w3.org/2000/svg">
<path opacity="0.4" d="M12.1613 11.4268H8.1279C7.73437 11.4268 7.41431 11.7519 7.41431 12.1516C7.41431 12.5522 7.73437 12.8765 8.1279 12.8765H12.1613C12.5549 12.8765 12.8749 12.5522 12.8749 12.1516C12.8749 11.7519 12.5549 11.4268 12.1613 11.4268Z" fill="#9399A6"/>
<path d="M5.30222 2.89197L9.12429 5.98037C9.21649 6.05422 9.23223 6.18976 9.16027 6.28418L4.62911 12.1884C4.34427 12.5531 3.92451 12.7595 3.47477 12.7671L1.00118 12.7975C0.869256 12.7991 0.753821 12.7077 0.723839 12.5767L0.16166 10.1325C0.0642153 9.68324 0.16166 9.21877 0.446497 8.86089L5.00015 2.92852C5.0736 2.83334 5.20928 2.81659 5.30222 2.89197Z" fill="#9399A6"/>
<path opacity="0.4" d="M10.8354 4.13997L10.0986 5.05979C10.0244 5.15345 9.89095 5.16868 9.79875 5.09406C8.90302 4.36917 6.60932 2.50897 5.97294 1.99348C5.87999 1.91733 5.86725 1.7818 5.94221 1.68738L6.6528 0.804869C7.29743 -0.0251001 8.42179 -0.101244 9.32877 0.622123L10.3707 1.45209C10.7979 1.78713 11.0828 2.22876 11.1802 2.69324C11.2927 3.20416 11.1727 3.70595 10.8354 4.13997Z" fill="#9399A6"/>
</svg>
