<svg width="15" height="16" viewBox="0 0 15 16" fill="none" xmlns="http://www.w3.org/2000/svg">
<path opacity="0.4" d="M10.9598 3.12334H8.87514C8.3558 3.12677 7.86274 2.89576 7.53364 2.49481L6.84714 1.54573C6.52355 1.14126 6.0305 0.909161 5.51194 0.917194H4.03818C1.39296 0.917194 0.416755 2.46967 0.416755 5.1095V7.96304C0.413464 8.27685 14.5803 8.27645 14.5812 7.96304V7.13337C14.5938 4.49354 13.6428 3.12334 10.9598 3.12334Z" fill="#9399A6"/>
<path fill-rule="evenodd" clip-rule="evenodd" d="M13.7562 4.13526C13.9828 4.40023 14.1579 4.70504 14.2726 5.03406C14.4983 5.71029 14.6028 6.42093 14.5812 7.13336V10.8543C14.5803 11.1677 14.5572 11.4806 14.512 11.7908C14.4258 12.3381 14.2333 12.8634 13.9451 13.337C13.8127 13.5657 13.6519 13.7769 13.4665 13.9655C12.6272 14.7357 11.5128 15.1367 10.3741 15.078H4.6176C3.4771 15.1362 2.36085 14.7355 1.51892 13.9655C1.33574 13.7765 1.17705 13.5654 1.04656 13.337C0.760113 12.8637 0.571654 12.338 0.492327 11.7908C0.441886 11.4811 0.416612 11.168 0.416749 10.8543V7.13336C0.416626 6.8226 0.433446 6.51206 0.467134 6.20313C0.474219 6.14893 0.484844 6.09561 0.49536 6.04284C0.512891 5.95488 0.530116 5.86844 0.530116 5.78201C0.594049 5.4092 0.710677 5.04733 0.876512 4.70722C1.36777 3.65757 2.37547 3.12332 4.02558 3.12332H10.9535C11.8777 3.05184 12.7951 3.33007 13.5231 3.9027C13.607 3.9738 13.6849 4.05158 13.7562 4.13526ZM3.9374 10.5086H11.0669H11.0795C11.2359 10.5154 11.3886 10.4594 11.5033 10.3531C11.6181 10.2468 11.6855 10.0991 11.6904 9.94289C11.6992 9.80561 11.654 9.6703 11.5644 9.56577C11.4614 9.42531 11.298 9.34147 11.1236 9.3395H3.9374C3.61391 9.3395 3.35168 9.60121 3.35168 9.92404C3.35168 10.2469 3.61391 10.5086 3.9374 10.5086Z" fill="#9399A6"/>
</svg>
