<svg width="11" height="16" viewBox="0 0 11 16" fill="none" xmlns="http://www.w3.org/2000/svg">
<path fill-rule="evenodd" clip-rule="evenodd" d="M3.04325 1.58054C4.59086 0.681312 6.49312 0.697029 8.02621 1.62171C9.54422 2.56522 10.4668 4.24912 10.4582 6.06051C10.4229 7.86003 9.4336 9.55158 8.19698 10.8592C7.48324 11.6174 6.68479 12.2877 5.81795 12.8567C5.72867 12.9083 5.63089 12.9429 5.52941 12.9587C5.43174 12.9545 5.33662 12.9256 5.25264 12.8747C3.92924 12.0198 2.76822 10.9286 1.82542 9.65355C1.03652 8.58921 0.588321 7.30333 0.541688 5.97054C0.540664 4.15567 1.49565 2.47977 3.04325 1.58054ZM3.93755 6.72163C4.19788 7.36342 4.81236 7.78205 5.49407 7.78205C5.94068 7.78526 6.36999 7.60637 6.68634 7.28525C7.0027 6.96412 7.17982 6.52744 7.17824 6.07251C7.18062 5.3781 6.7718 4.75071 6.14267 4.48329C5.51353 4.21587 4.78818 4.36116 4.30529 4.85132C3.8224 5.34149 3.67723 6.07984 3.93755 6.72163Z" fill="#9399A6"/>
<ellipse opacity="0.4" cx="5.50004" cy="14.3753" rx="3.54167" ry="0.708333" fill="#9399A6"/>
</svg>
