<svg width="13" height="16" viewBox="0 0 13 16" fill="none" xmlns="http://www.w3.org/2000/svg">
<path opacity="0.4" d="M11.3229 5.8902C11.0031 5.8902 10.5795 5.88312 10.0521 5.88312C8.76577 5.88312 7.70811 4.81849 7.70811 3.52012V1.24212C7.70811 1.06291 7.56504 0.916992 7.38759 0.916992H3.64092C1.89243 0.916992 0.479187 2.35208 0.479187 4.11087V11.7432C0.479187 13.5884 1.95976 15.0837 3.78681 15.0837H9.36613C11.1083 15.0837 12.5209 13.6578 12.5209 11.8976V6.20895C12.5209 6.02903 12.3785 5.88383 12.2003 5.88453C11.9009 5.88666 11.5418 5.8902 11.3229 5.8902Z" fill="#9399A6"/>
<path opacity="0.4" d="M9.39288 1.31929C9.18109 1.09899 8.81134 1.25058 8.81134 1.55587V3.42374C8.81134 4.20716 9.45663 4.85174 10.24 4.85174C10.7338 4.85741 11.4194 4.85883 12.0017 4.85741C12.2999 4.8567 12.4515 4.50041 12.2446 4.28508C11.4973 3.50804 10.1593 2.11545 9.39288 1.31929Z" fill="#9399A6"/>
<path fill-rule="evenodd" clip-rule="evenodd" d="M4.35653 7.56643H6.75424C7.04536 7.56643 7.28195 7.33055 7.28195 7.03943C7.28195 6.7483 7.04536 6.51172 6.75424 6.51172H4.35653C4.0654 6.51172 3.82953 6.7483 3.82953 7.03943C3.82953 7.33055 4.0654 7.56643 4.35653 7.56643ZM4.3566 11.104H8.21277C8.50389 11.104 8.74047 10.8681 8.74047 10.577C8.74047 10.2859 8.50389 10.0493 8.21277 10.0493H4.3566C4.06547 10.0493 3.8296 10.2859 3.8296 10.577C3.8296 10.8681 4.06547 11.104 4.3566 11.104Z" fill="#9399A6"/>
</svg>
