<svg width="15" height="16" viewBox="0 0 15 16" fill="none" xmlns="http://www.w3.org/2000/svg">
<path opacity="0.4" d="M14.5834 8.00374C14.5834 11.9059 11.4041 15.0837 7.50008 15.0837C3.59604 15.0837 0.416748 11.9059 0.416748 8.00374C0.416748 4.09475 3.59604 0.916992 7.50008 0.916992C11.4041 0.916992 14.5834 4.09475 14.5834 8.00374Z" fill="#9399A6"/>
<path d="M10.3333 8.00377C10.3333 8.18279 10.277 8.3625 10.1643 8.5064C10.1432 8.53463 10.0446 8.65099 9.96709 8.72673L9.92483 8.76804C9.33321 9.3953 7.86121 10.3386 7.11464 10.6409C7.11464 10.6478 6.67093 10.8275 6.45964 10.8337H6.43146C6.10748 10.8337 5.80463 10.6553 5.64968 10.3661C5.56516 10.2071 5.48769 9.74577 5.48065 9.73957C5.41726 9.32576 5.375 8.69231 5.375 7.99688C5.375 7.26772 5.41726 6.60604 5.49473 6.1998C5.49473 6.19291 5.57221 5.8211 5.62151 5.69717C5.69898 5.51884 5.83984 5.36667 6.01592 5.27027C6.15678 5.20211 6.30469 5.16699 6.45964 5.16699C6.62163 5.17457 6.92448 5.27716 7.04421 5.32536C7.83304 5.62831 9.34026 6.61981 9.91779 7.22572C10.0164 7.32212 10.122 7.43986 10.1502 7.46671C10.2699 7.61819 10.3333 7.80409 10.3333 8.00377Z" fill="#9399A6"/>
</svg>
