<svg width="15" height="14" viewBox="0 0 15 14" fill="none" xmlns="http://www.w3.org/2000/svg">
<path opacity="0.4" d="M8.19154 0.705151L9.76863 3.87443C9.88482 4.10405 10.1066 4.2635 10.3623 4.29894L13.9048 4.81487C14.1116 4.84392 14.2994 4.95306 14.4262 5.1196C14.5516 5.28402 14.6055 5.49238 14.575 5.69719C14.5502 5.86728 14.4701 6.02461 14.3476 6.14508L11.7807 8.63331C11.593 8.80694 11.508 9.06419 11.5533 9.31578L12.1853 12.8139C12.2526 13.2363 11.9727 13.6346 11.5533 13.7146C11.3804 13.7423 11.2033 13.7132 11.0474 13.6339L7.8876 11.9876C7.65309 11.8692 7.37607 11.8692 7.14156 11.9876L3.98172 13.6339C3.59347 13.8401 3.1124 13.6998 2.89632 13.3171C2.81626 13.1647 2.78792 12.9911 2.81413 12.8217L3.4461 9.32287C3.49144 9.07199 3.40572 8.81332 3.21868 8.63969L0.651835 6.15288C0.346478 5.85806 0.337267 5.37261 0.631289 5.06716C0.637665 5.06078 0.64475 5.0537 0.651835 5.04661C0.773694 4.92259 0.933812 4.84392 1.10668 4.82337L4.64911 4.30673C4.90416 4.27059 5.12592 4.11255 5.24282 3.88152L6.76323 0.705151C6.89855 0.433013 7.17911 0.263635 7.48376 0.270722H7.5787C7.84296 0.302613 8.07322 0.466321 8.19154 0.705151Z" fill="#9399A6"/>
<path d="M7.49433 11.8993C7.35713 11.9036 7.22346 11.9404 7.10323 12.0063L3.95883 13.6489C3.57409 13.8325 3.11368 13.69 2.89797 13.3221C2.81805 13.1718 2.78906 12.9995 2.81593 12.8308L3.44396 9.33941C3.4864 9.08562 3.40153 8.82757 3.21694 8.64893L0.648945 6.16276C0.344124 5.86431 0.338467 5.37445 0.636922 5.06891C0.641166 5.06465 0.644702 5.06111 0.648945 5.05756C0.770591 4.93705 0.927598 4.85765 1.09663 4.83284L4.64203 4.31108C4.89876 4.27847 5.12154 4.11825 5.2347 3.88573L6.77578 0.669383C6.92217 0.40992 7.20295 0.255377 7.49999 0.271682C7.49433 0.48223 7.49433 11.7561 7.49433 11.8993Z" fill="#9399A6"/>
</svg>
