<svg width="15" height="11" viewBox="0 0 15 11" fill="none" xmlns="http://www.w3.org/2000/svg">
<path opacity="0.4" d="M14.1096 1.77227C13.8128 1.5853 13.448 1.56876 13.137 1.72697L12.0873 2.25696C11.6991 2.45256 11.4583 2.84808 11.4583 3.28818V7.42024C11.4583 7.86034 11.6991 8.25514 12.0873 8.45218L13.1363 8.98145C13.2787 9.0548 13.431 9.09004 13.5833 9.09004C13.766 9.09004 13.9474 9.03826 14.1096 8.93687C14.4064 8.75061 14.5834 8.42773 14.5834 8.07392V2.63594C14.5834 2.28213 14.4064 1.95924 14.1096 1.77227Z" fill="#9399A6"/>
<path d="M7.43286 10.667H3.33015C1.61455 10.667 0.416748 9.48404 0.416748 7.79051V2.91847C0.416748 1.22423 1.61455 0.0419922 3.33015 0.0419922H7.43286C9.14846 0.0419922 10.3463 1.22423 10.3463 2.91847V7.79051C10.3463 9.48404 9.14846 10.667 7.43286 10.667Z" fill="#9399A6"/>
</svg>
