<svg width="13" height="15" viewBox="0 0 13 15" fill="none" xmlns="http://www.w3.org/2000/svg">
<path d="M6.37624 9.77913H6.62395C7.98669 9.77913 9.14289 8.90634 9.54979 7.69609C9.6088 7.51991 9.47363 7.3383 9.2863 7.3383H8.52328C8.28037 7.3383 8.08413 7.1445 8.08413 6.9053C8.08413 6.66542 8.28037 6.47094 8.52328 6.47094H9.26297C9.50794 6.47094 9.70624 6.2751 9.70624 6.03319C9.70624 5.79128 9.50794 5.59544 9.26297 5.59544H8.52328C8.28037 5.59544 8.08413 5.40096 8.08413 5.16176C8.08413 4.92188 8.28037 4.7274 8.52328 4.7274H9.26297C9.50794 4.7274 9.70624 4.53156 9.70624 4.28965C9.70624 4.04773 9.50794 3.8519 9.26297 3.8519H8.52328C8.28037 3.8519 8.08413 3.65742 8.08413 3.41754C8.08413 3.17833 8.28037 2.98385 8.52328 2.98385H9.32541C9.50931 2.98385 9.64105 2.81038 9.59165 2.63487C9.22729 1.35483 8.03678 0.416992 6.62395 0.416992H6.37624C4.67384 0.416992 3.29395 1.77903 3.29395 3.46091V6.73521C3.29395 8.41641 4.67384 9.77913 6.37624 9.77913Z" fill="#9399A6"/>
<path opacity="0.4" d="M11.835 5.95996C11.4562 5.95996 11.1488 6.26286 11.1488 6.63759C11.1488 9.16854 9.06353 11.2279 6.50067 11.2279C3.93712 11.2279 1.85184 9.16854 1.85184 6.63759C1.85184 6.26286 1.54443 5.95996 1.16567 5.95996C0.786898 5.95996 0.479492 6.26286 0.479492 6.63759C0.479492 9.68693 2.8166 12.2043 5.81449 12.5425V13.9058C5.81449 14.2799 6.12121 14.5835 6.50067 14.5835C6.87944 14.5835 7.18684 14.2799 7.18684 13.9058V12.5425C10.184 12.2043 12.5212 9.68693 12.5212 6.63759C12.5212 6.26286 12.2138 5.95996 11.835 5.95996Z" fill="#9399A6"/>
</svg>
