<svg width="15" height="15" viewBox="0 0 15 15" fill="none" xmlns="http://www.w3.org/2000/svg">
<path opacity="0.4" d="M0.416809 7.34766C0.452226 9.00374 0.551392 11.8364 0.565559 12.1487C0.615851 12.8167 0.871559 13.4917 1.26964 13.9677C1.82356 14.6357 2.50568 14.9339 3.45698 14.9339C4.77164 14.941 6.22089 14.941 7.62835 14.941C9.04148 14.941 10.4128 14.941 11.5709 14.9339C12.5088 14.9339 13.2121 14.6279 13.759 13.9677C14.1571 13.4917 14.4128 12.8096 14.4489 12.1487C14.4631 11.8859 14.5339 8.81107 14.5764 7.34766H0.416809Z" fill="#9399A6"/>
<path d="M6.96552 10.3975V11.314C6.96552 11.6073 7.20352 11.8453 7.49677 11.8453C7.79002 11.8453 8.02802 11.6073 8.02802 11.314V10.3975C8.02802 10.1042 7.79002 9.86621 7.49677 9.86621C7.20352 9.86621 6.96552 10.1042 6.96552 10.3975Z" fill="#9399A6"/>
<path fill-rule="evenodd" clip-rule="evenodd" d="M6.233 9.81083C6.16216 10.068 5.91495 10.2323 5.6472 10.1969C3.84025 9.9447 2.11333 9.30366 0.655578 8.34103C0.50612 8.24328 0.41687 8.07612 0.41687 7.89762V5.44253C0.41687 3.95503 1.62954 2.7452 3.12058 2.7452H4.51387C4.64704 1.7167 5.51829 0.916992 6.5822 0.916992H8.41112C9.47433 0.916992 10.3463 1.7167 10.4795 2.7452H11.8798C13.3666 2.7452 14.5765 3.95503 14.5765 5.44253V7.89762C14.5765 8.07612 14.4865 8.24258 14.3385 8.34103C12.8779 9.30791 11.1439 9.95178 9.32487 10.2032C9.30008 10.2068 9.276 10.2082 9.25191 10.2082C9.01179 10.2082 8.79716 10.046 8.73695 9.80799C8.59387 9.24416 8.08175 8.84962 7.49312 8.84962C6.8967 8.84962 6.39025 9.23566 6.233 9.81083ZM8.41112 1.97949H6.5822C6.10549 1.97949 5.70741 2.30533 5.58841 2.7452H9.4042C9.2852 2.30533 8.88712 1.97949 8.41112 1.97949Z" fill="#9399A6"/>
</svg>
