<?xml version="1.0" encoding="utf-8"?>
<!-- Generator: Adobe Illustrator 24.2.3, SVG Export Plug-In . SVG Version: 6.00 Build 0)  -->
<svg version="1.1" id="Layer_1" xmlns="http://www.w3.org/2000/svg" xmlns:xlink="http://www.w3.org/1999/xlink" x="0px" y="0px"
	 viewBox="0 0 1683.8 1683.8" style="enable-background:new 0 0 1683.8 1683.8;" xml:space="preserve">
<style type="text/css">
	.st0{fill:#d00000;}
</style>
<path id="Path_6259" class="st0" d="M1244.8,1540.8c76.9-44.4,165.6-72.6,222-135.2c58.4-64.9,76.6-156.7,111.3-234.8
	c35.1-78.9,90.8-154.1,99.9-239.9c9-85-29.5-170.1-47.7-255.5c-17.5-82.4-16-175.8-60.4-252.7c-44.4-76.9-126.1-122.3-188.7-178.7
	c-64.9-58.4-119.3-134.3-197.4-169c-78.9-35.1-171.9-24.4-257.7-33.5c-85-9-173.6-39.2-259-21C584.7,37.9,515.9,100.6,439,145
	s-165.6,72.6-222,135.2c-58.4,64.9-76.6,156.7-111.3,234.8C70.6,594,14.9,669.2,5.8,755c-9,85,29.5,170.1,47.7,255.5
	c17.5,82.4,16,175.8,60.4,252.7s126.1,122.3,188.7,178.7c64.9,58.4,119.3,134.3,197.4,169c78.9,35.1,171.9,24.4,257.7,33.5
	c85,9,173.6,39.2,259,21C1099.1,1647.9,1167.9,1585.2,1244.8,1540.8z"/>
</svg>
