<svg width="862" height="644" viewBox="0 0 862 644" fill="none" xmlns="http://www.w3.org/2000/svg">
<mask id="mask0_0_1" style="mask-type:alpha" maskUnits="userSpaceOnUse" x="184" y="28" width="451" height="448">
<path d="M634.624 28.1113H184.878V475.814H634.624V28.1113Z" fill="url(#paint0_linear_0_1)"/>
</mask>
<g mask="url(#mask0_0_1)">
<path fill-rule="evenodd" clip-rule="evenodd" d="M292.155 460.197C293.068 459.343 294.469 459.404 295.321 460.258C296.173 461.173 296.113 462.576 295.26 463.43C294.347 464.284 292.947 464.223 292.094 463.369C291.242 462.454 291.242 461.051 292.155 460.197ZM297.696 454.95C298.609 454.096 300.009 454.157 300.861 455.011C301.714 455.926 301.653 457.33 300.801 458.184C299.887 459.038 298.487 458.977 297.635 458.123C296.782 457.269 296.782 455.743 297.696 454.95ZM302.992 449.887C303.906 449.033 305.306 449.094 306.158 449.948C307.011 450.863 306.95 452.266 306.097 453.12C305.184 453.974 303.784 453.913 302.932 453.059C302.079 452.144 302.079 450.741 302.992 449.887ZM308.655 444.458C309.568 443.604 310.968 443.665 311.821 444.519C312.673 445.434 312.612 446.837 311.76 447.691C310.846 448.545 309.446 448.484 308.594 447.63C307.741 446.715 307.802 445.312 308.655 444.458ZM313.951 439.456C314.865 438.602 316.265 438.663 317.117 439.517C317.97 440.432 317.909 441.835 317.057 442.689C316.143 443.543 314.743 443.482 313.891 442.628C313.038 441.713 313.038 440.31 313.951 439.456ZM319.492 434.209C320.405 433.355 321.805 433.416 322.658 434.27C323.51 435.185 323.449 436.589 322.597 437.443C321.684 438.297 320.283 438.236 319.431 437.382C318.579 436.467 318.579 435.002 319.492 434.209ZM324.789 429.146C325.702 428.292 327.102 428.353 327.955 429.207C328.807 430.122 328.746 431.525 327.894 432.379C326.981 433.233 325.58 433.172 324.728 432.318C323.875 431.403 323.875 430 324.789 429.146ZM330.329 423.839C331.242 422.985 332.643 423.046 333.495 423.9C334.347 424.815 334.287 426.218 333.434 427.072C332.521 427.926 331.121 427.865 330.268 427.011C329.416 426.096 329.477 424.693 330.329 423.839ZM335.626 418.837C336.539 417.983 337.94 418.044 338.792 418.898C339.644 419.813 339.583 421.216 338.731 422.07C337.818 422.924 336.417 422.863 335.565 422.009C334.713 421.094 334.774 419.691 335.626 418.837ZM341.166 413.529C342.08 412.675 343.48 412.736 344.332 413.59C345.185 414.505 345.124 415.908 344.271 416.762C343.358 417.617 341.958 417.556 341.105 416.701C340.253 415.786 340.314 414.383 341.166 413.529ZM346.463 408.527C347.376 407.673 348.777 407.734 349.629 408.588C350.482 409.503 350.421 410.906 349.568 411.76C348.655 412.614 347.255 412.553 346.402 411.699C345.55 410.784 345.55 409.381 346.463 408.527ZM352.125 403.098C353.039 402.244 354.439 402.305 355.291 403.159C356.144 404.074 356.083 405.477 355.23 406.331C354.317 407.185 352.917 407.124 352.065 406.27C351.212 405.355 351.273 403.952 352.125 403.098ZM357.422 398.096C358.336 397.241 359.736 397.302 360.588 398.156C361.441 399.072 361.38 400.475 360.527 401.329C359.614 402.183 358.214 402.122 357.361 401.268C356.509 400.353 356.57 398.95 357.422 398.096ZM362.963 392.788C363.876 391.934 365.276 391.995 366.129 392.849C366.981 393.764 366.92 395.167 366.068 396.021C365.154 396.875 363.754 396.814 362.902 395.96C362.049 395.045 362.11 393.642 362.963 392.788ZM368.26 387.786C369.173 386.932 370.573 386.993 371.425 387.847C372.278 388.762 372.217 390.165 371.365 391.019C370.451 391.873 369.051 391.812 368.199 390.958C367.346 390.043 367.346 388.64 368.26 387.786ZM373.983 382.357C374.896 381.503 376.296 381.564 377.149 382.418C378.001 383.333 377.94 384.736 377.088 385.59C376.174 386.444 374.774 386.383 373.922 385.529C373.069 384.614 373.069 383.211 373.983 382.357ZM379.279 377.354C380.193 376.5 381.593 376.561 382.445 377.415C383.298 378.33 383.237 379.734 382.385 380.588C381.471 381.442 380.071 381.381 379.219 380.527C378.305 379.612 378.366 378.147 379.279 377.354ZM384.82 372.047C385.733 371.193 387.133 371.254 387.986 372.108C388.838 373.023 388.777 374.426 387.925 375.28C387.012 376.134 385.611 376.073 384.759 375.219C383.846 374.304 383.907 372.901 384.82 372.047ZM390.056 367.045C390.969 366.191 392.369 366.252 393.222 367.106C394.074 368.021 394.013 369.424 393.161 370.278C392.248 371.132 390.847 371.071 389.995 370.217C389.143 369.302 389.203 367.899 390.056 367.045ZM395.779 361.616C396.692 360.762 398.092 360.823 398.945 361.677C399.797 362.592 399.736 363.995 398.884 364.849C397.971 365.703 396.57 365.642 395.718 364.788C394.866 363.873 394.866 362.47 395.779 361.616ZM401.076 356.613C401.989 355.759 403.389 355.82 404.242 356.674C405.094 357.589 405.033 358.992 404.181 359.847C403.268 360.701 401.867 360.64 401.015 359.786C400.102 358.87 400.163 357.467 401.076 356.613ZM406.616 351.306C407.529 350.452 408.93 350.513 409.782 351.367C410.634 352.282 410.574 353.685 409.721 354.539C408.808 355.393 407.408 355.332 406.555 354.478C405.642 353.563 405.703 352.16 406.616 351.306ZM411.852 346.304C412.765 345.45 414.166 345.511 415.018 346.365C415.87 347.28 415.81 348.683 414.957 349.537C414.044 350.391 412.644 350.33 411.791 349.476C410.939 348.561 411 347.158 411.852 346.304ZM417.453 340.997C418.367 340.143 419.767 340.204 420.619 341.058C421.472 341.973 421.411 343.376 420.558 344.23C419.645 345.084 418.245 345.023 417.393 344.169C416.54 343.254 416.54 341.851 417.453 340.997ZM422.75 335.933C423.664 335.079 425.064 335.14 425.916 335.994C426.769 336.909 426.708 338.312 425.855 339.166C424.942 340.021 423.542 339.96 422.689 339.105C421.837 338.19 421.837 336.787 422.75 335.933ZM428.291 330.687C429.204 329.833 430.604 329.894 431.457 330.748C432.309 331.663 432.248 333.066 431.396 333.92C430.482 334.774 429.082 334.713 428.23 333.859C427.377 332.944 427.377 331.541 428.291 330.687ZM433.588 325.685C434.501 324.831 435.901 324.892 436.754 325.746C437.606 326.661 437.545 328.064 436.693 328.918C435.779 329.772 434.379 329.711 433.527 328.857C432.613 327.942 432.674 326.539 433.588 325.685ZM439.25 320.255C440.163 319.401 441.563 319.462 442.416 320.316C443.268 321.232 443.207 322.635 442.355 323.489C441.442 324.343 440.041 324.282 439.189 323.428C438.336 322.513 438.336 321.11 439.25 320.255ZM444.547 315.253C445.46 314.399 446.86 314.46 447.713 315.314C448.565 316.229 448.504 317.632 447.652 318.486C446.738 319.34 445.338 319.279 444.486 318.425C443.633 317.449 443.633 316.046 444.547 315.253ZM450.087 309.946C451 309.092 452.401 309.153 453.253 310.007C454.105 310.922 454.044 312.325 453.192 313.179C452.279 314.033 450.878 313.972 450.026 313.118C449.174 312.203 449.174 310.8 450.087 309.946ZM455.384 304.944C456.297 304.09 457.697 304.151 458.55 305.005C459.402 305.92 459.341 307.323 458.489 308.177C457.576 309.031 456.175 308.97 455.323 308.116C454.471 307.201 454.471 305.798 455.384 304.944ZM461.046 299.575C461.959 298.721 463.36 298.782 464.212 299.636C465.064 300.551 465.003 301.955 464.151 302.809C463.238 303.663 461.838 303.602 460.985 302.748C460.072 301.833 460.133 300.429 461.046 299.575ZM466.282 294.512C467.195 293.658 468.596 293.719 469.448 294.573C470.3 295.488 470.239 296.891 469.387 297.745C468.474 298.599 467.073 298.538 466.221 297.684C465.369 296.769 465.43 295.366 466.282 294.512ZM471.822 289.266C472.736 288.412 474.136 288.473 474.988 289.327C475.841 290.242 475.78 291.645 474.927 292.499C474.014 293.353 472.614 293.292 471.762 292.438C470.909 291.523 470.97 290.12 471.822 289.266ZM477.119 284.203C478.033 283.349 479.433 283.41 480.285 284.264C481.138 285.179 481.077 286.582 480.224 287.436C479.311 288.29 477.911 288.229 477.058 287.375C476.206 286.46 476.267 285.057 477.119 284.203ZM482.842 278.834C483.756 277.98 485.156 278.041 486.008 278.895C486.861 279.81 486.8 281.213 485.947 282.068C485.034 282.922 483.634 282.861 482.781 282.007C481.868 281.091 481.929 279.688 482.842 278.834ZM488.078 273.771C488.992 272.917 490.392 272.978 491.244 273.832C492.097 274.747 492.036 276.15 491.183 277.004C490.27 277.858 488.87 277.797 488.017 276.943C487.165 276.028 487.226 274.625 488.078 273.771ZM493.619 268.525C494.532 267.671 495.932 267.732 496.785 268.586C497.637 269.501 497.576 270.904 496.724 271.758C495.811 272.612 494.41 272.551 493.558 271.697C492.705 270.782 492.766 269.379 493.619 268.525ZM498.916 263.523C499.829 262.669 501.229 262.73 502.082 263.584C502.934 264.499 502.873 265.902 502.021 266.756C501.107 267.61 499.707 267.549 498.855 266.695C498.002 265.719 498.063 264.316 498.916 263.523ZM504.517 258.215C505.43 257.361 506.83 257.422 507.683 258.276C508.535 259.191 508.474 260.594 507.622 261.448C506.709 262.303 505.308 262.242 504.456 261.387C503.604 260.472 503.604 259.008 504.517 258.215ZM509.814 253.152C510.727 252.298 512.127 252.359 512.98 253.213C513.832 254.128 513.771 255.531 512.919 256.385C512.005 257.239 510.605 257.178 509.753 256.324C508.84 255.409 508.9 254.006 509.814 253.152ZM515.354 247.906C516.267 247.052 517.668 247.113 518.52 247.967C519.372 248.882 519.312 250.285 518.459 251.139C517.546 251.993 516.146 251.932 515.293 251.078C514.38 250.163 514.441 248.76 515.354 247.906ZM520.59 242.842C521.503 241.988 522.904 242.049 523.756 242.904C524.608 243.819 524.548 245.222 523.695 246.076C522.782 246.93 521.382 246.869 520.529 246.015C519.677 245.1 519.738 243.697 520.59 242.842ZM526.313 237.474C527.226 236.62 528.627 236.681 529.479 237.535C530.331 238.45 530.271 239.853 529.418 240.707C528.505 241.561 527.105 241.5 526.252 240.646C525.4 239.731 525.4 238.328 526.313 237.474ZM531.61 232.411C532.523 231.557 533.924 231.618 534.776 232.472C535.628 233.387 535.567 234.79 534.715 235.644C533.802 236.498 532.402 236.437 531.549 235.583C530.697 234.668 530.697 233.265 531.61 232.411ZM537.15 227.165C538.064 226.311 539.464 226.372 540.316 227.226C541.169 228.141 541.108 229.544 540.255 230.398C539.342 231.252 537.942 231.191 537.09 230.337C536.176 229.422 536.237 228.019 537.15 227.165ZM542.447 222.101C543.361 221.247 544.761 221.308 545.613 222.162C546.466 223.077 546.405 224.481 545.552 225.335C544.639 226.189 543.239 226.128 542.386 225.274C541.473 224.359 541.534 222.955 542.447 222.101ZM548.109 216.733C549.023 215.879 550.423 215.94 551.275 216.794C552.128 217.709 552.067 219.112 551.215 219.966C550.301 220.82 548.901 220.759 548.049 219.905C547.196 218.929 547.257 217.526 548.109 216.733ZM553.406 211.67C554.32 210.816 555.72 210.877 556.572 211.731C557.425 212.646 557.364 214.049 556.511 214.903C555.598 215.757 554.198 215.696 553.345 214.842C552.493 213.927 552.493 212.524 553.406 211.67ZM558.947 206.424C559.86 205.57 561.26 205.631 562.113 206.485C562.965 207.4 562.904 208.803 562.052 209.657C561.139 210.511 559.738 210.45 558.886 209.596C558.033 208.681 558.033 207.278 558.947 206.424ZM564.244 201.36C565.157 200.506 566.557 200.567 567.41 201.421C568.262 202.336 568.201 203.739 567.349 204.594C566.435 205.448 565.035 205.387 564.183 204.533C563.33 203.617 563.33 202.214 564.244 201.36ZM569.906 195.992C570.819 195.138 572.219 195.199 573.072 196.053C573.924 196.968 573.863 198.371 573.011 199.225C572.098 200.079 570.697 200.018 569.845 199.164C568.992 198.249 569.053 196.785 569.906 195.992ZM575.203 190.929C576.116 190.075 577.516 190.136 578.369 190.99C579.221 191.905 579.16 193.308 578.308 194.162C577.394 195.016 575.994 194.955 575.142 194.101C574.289 193.186 574.35 191.783 575.203 190.929ZM580.743 185.683C581.656 184.828 583.057 184.889 583.909 185.744C584.761 186.659 584.7 188.062 583.848 188.916C582.935 189.77 581.534 189.709 580.682 188.855C579.83 187.94 579.83 186.537 580.743 185.683ZM586.04 180.619C586.953 179.765 588.353 179.826 589.206 180.68C590.058 181.595 589.997 182.998 589.145 183.852C588.232 184.706 586.831 184.645 585.979 183.791C585.127 182.876 585.127 181.473 586.04 180.619ZM591.58 175.312C592.494 174.458 593.894 174.519 594.746 175.373C595.599 176.288 595.538 177.691 594.685 178.545C593.772 179.399 592.372 179.338 591.519 178.484C590.667 177.569 590.728 176.166 591.58 175.312ZM596.877 170.31C597.79 169.456 599.191 169.517 600.043 170.371C600.895 171.286 600.835 172.689 599.982 173.543C599.069 174.397 597.669 174.336 596.816 173.482C595.964 172.567 596.025 171.164 596.877 170.31ZM602.418 165.063C603.331 164.209 604.731 164.27 605.583 165.124C606.436 166.04 606.375 167.443 605.523 168.297C604.609 169.151 603.209 169.09 602.357 168.236C601.504 167.321 601.565 165.857 602.418 165.063ZM607.714 160C608.628 159.146 610.028 159.207 610.88 160.061C611.733 160.976 611.672 162.379 610.819 163.233C609.906 164.087 608.506 164.026 607.654 163.172C606.801 162.257 606.862 160.854 607.714 160ZM613.437 154.571C614.351 153.717 615.751 153.778 616.603 154.632C617.456 155.547 617.395 156.95 616.543 157.804C615.629 158.658 614.229 158.597 613.377 157.743C612.463 156.828 612.524 155.425 613.437 154.571ZM618.673 149.569C619.587 148.715 620.987 148.776 621.839 149.63C622.692 150.545 622.631 151.948 621.778 152.802C620.865 153.656 619.465 153.595 618.613 152.741C617.76 151.826 617.821 150.423 618.673 149.569ZM624.214 144.322C625.127 143.468 626.527 143.529 627.38 144.383C628.232 145.298 628.171 146.702 627.319 147.556C626.406 148.41 625.005 148.349 624.153 147.495C623.301 146.58 623.361 145.176 624.214 144.322ZM629.511 139.259C630.424 138.405 631.824 138.466 632.677 139.32C633.529 140.235 633.468 141.638 632.616 142.492C631.703 143.346 630.302 143.285 629.45 142.431C628.597 141.516 628.658 140.113 629.511 139.259ZM288.198 471.97C289.111 471.116 290.511 471.177 291.364 472.031C292.216 472.946 292.155 474.349 291.303 475.204C290.39 476.058 288.989 475.997 288.137 475.142C287.284 474.227 287.345 472.824 288.198 471.97ZM293.495 466.907C294.408 466.053 295.808 466.114 296.661 466.968C297.513 467.883 297.452 469.286 296.6 470.14C295.686 470.994 294.286 470.933 293.434 470.079C292.581 469.164 292.642 467.761 293.495 466.907ZM299.035 461.661C299.948 460.807 301.349 460.868 302.201 461.722C303.053 462.637 302.992 464.04 302.14 464.894C301.227 465.748 299.826 465.687 298.974 464.833C298.122 463.918 298.183 462.515 299.035 461.661ZM304.332 456.659C305.245 455.805 306.645 455.865 307.498 456.72C308.35 457.635 308.289 459.038 307.437 459.892C306.524 460.746 305.123 460.685 304.271 459.831C303.419 458.916 303.479 457.513 304.332 456.659ZM310.055 451.229C310.968 450.375 312.368 450.436 313.221 451.29C314.073 452.205 314.012 453.608 313.16 454.462C312.247 455.316 310.846 455.255 309.994 454.401C309.081 453.486 309.142 452.083 310.055 451.229ZM315.291 446.227C316.204 445.373 317.604 445.434 318.457 446.288C319.309 447.203 319.248 448.606 318.396 449.46C317.483 450.314 316.082 450.253 315.23 449.399C314.378 448.545 314.439 447.02 315.291 446.227ZM320.831 440.92C321.745 440.066 323.145 440.127 323.997 440.981C324.85 441.896 324.789 443.299 323.936 444.153C323.023 445.007 321.623 444.946 320.77 444.092C319.918 443.177 319.979 441.774 320.831 440.92ZM326.128 435.917C327.041 435.063 328.442 435.124 329.294 435.978C330.146 436.893 330.086 438.297 329.233 439.151C328.32 440.005 326.92 439.944 326.067 439.09C325.215 438.236 325.276 436.772 326.128 435.917ZM331.729 430.61C332.643 429.756 334.043 429.817 334.895 430.671C335.748 431.586 335.687 432.989 334.834 433.843C333.921 434.697 332.521 434.636 331.669 433.782C330.816 432.867 330.816 431.464 331.729 430.61ZM337.026 425.547C337.94 424.693 339.34 424.754 340.192 425.608C341.045 426.523 340.984 427.926 340.131 428.78C339.218 429.634 337.818 429.573 336.965 428.719C336.052 427.804 336.113 426.401 337.026 425.547ZM342.567 420.301C343.48 419.447 344.88 419.508 345.733 420.362C346.585 421.277 346.524 422.68 345.672 423.534C344.759 424.388 343.358 424.327 342.506 423.473C341.593 422.558 341.653 421.155 342.567 420.301ZM347.803 415.298C348.716 414.444 350.116 414.505 350.969 415.359C351.821 416.274 351.76 417.678 350.908 418.532C349.995 419.386 348.594 419.325 347.742 418.471C346.889 417.556 346.95 416.091 347.803 415.298ZM353.526 409.869C354.439 409.015 355.839 409.076 356.692 409.93C357.544 410.845 357.483 412.248 356.631 413.102C355.718 413.956 354.317 413.895 353.465 413.041C352.612 412.126 352.612 410.723 353.526 409.869ZM358.823 404.806C359.736 403.952 361.136 404.013 361.989 404.867C362.841 405.782 362.78 407.185 361.928 408.039C361.014 408.893 359.614 408.832 358.762 407.978C357.848 407.063 357.909 405.66 358.823 404.806ZM364.363 399.56C365.276 398.706 366.677 398.767 367.529 399.621C368.381 400.536 368.32 401.939 367.468 402.793C366.555 403.647 365.154 403.586 364.302 402.732C363.389 401.817 363.45 400.414 364.363 399.56ZM369.599 394.557C370.512 393.703 371.913 393.764 372.765 394.618C373.617 395.533 373.556 396.936 372.704 397.79C371.791 398.645 370.39 398.584 369.538 397.73C368.686 396.814 368.747 395.411 369.599 394.557ZM375.322 389.128C376.235 388.274 377.636 388.335 378.488 389.189C379.34 390.104 379.279 391.507 378.427 392.361C377.514 393.215 376.114 393.154 375.261 392.3C374.409 391.385 374.47 389.982 375.322 389.128ZM380.619 384.065C381.532 383.211 382.932 383.272 383.785 384.126C384.637 385.041 384.576 386.444 383.724 387.298C382.811 388.152 381.41 388.091 380.558 387.237C379.706 386.322 379.706 384.919 380.619 384.065ZM386.159 378.819C387.073 377.964 388.473 378.025 389.325 378.88C390.178 379.795 390.117 381.198 389.264 382.052C388.351 382.906 386.951 382.845 386.098 381.991C385.246 381.076 385.246 379.673 386.159 378.819ZM391.456 373.816C392.369 372.962 393.77 373.023 394.622 373.877C395.474 374.792 395.414 376.195 394.561 377.049C393.648 377.903 392.248 377.842 391.395 376.988C390.543 376.012 390.543 374.609 391.456 373.816ZM397.118 368.387C398.032 367.533 399.432 367.594 400.284 368.448C401.137 369.363 401.076 370.766 400.223 371.62C399.31 372.474 397.91 372.413 397.057 371.559C396.205 370.644 396.266 369.241 397.118 368.387ZM402.415 363.324C403.328 362.47 404.729 362.531 405.581 363.385C406.434 364.3 406.373 365.703 405.52 366.557C404.607 367.411 403.207 367.35 402.354 366.496C401.502 365.581 401.502 364.178 402.415 363.324ZM407.956 358.077C408.869 357.223 410.269 357.284 411.122 358.138C411.974 359.053 411.913 360.457 411.061 361.311C410.147 362.165 408.747 362.104 407.895 361.25C407.042 360.335 407.042 358.931 407.956 358.077ZM413.252 353.075C414.166 352.221 415.566 352.282 416.418 353.136C417.271 354.051 417.21 355.454 416.358 356.308C415.444 357.162 414.044 357.101 413.192 356.247C412.339 355.332 412.339 353.868 413.252 353.075ZM418.793 347.768C419.706 346.914 421.106 346.975 421.959 347.829C422.811 348.744 422.75 350.147 421.898 351.001C420.985 351.855 419.584 351.794 418.732 350.94C417.88 350.025 417.941 348.622 418.793 347.768ZM424.09 342.705C425.003 341.851 426.403 341.912 427.256 342.766C428.108 343.681 428.047 345.084 427.195 345.938C426.282 346.792 424.881 346.731 424.029 345.877C423.176 344.962 423.237 343.559 424.09 342.705ZM429.63 337.458C430.543 336.604 431.944 336.665 432.796 337.519C433.648 338.434 433.588 339.838 432.735 340.692C431.822 341.546 430.422 341.485 429.569 340.631C428.717 339.715 428.778 338.312 429.63 337.458ZM434.927 332.395C435.84 331.541 437.241 331.602 438.093 332.456C438.945 333.371 438.884 334.774 438.032 335.628C437.119 336.482 435.718 336.421 434.866 335.567C434.014 334.652 434.014 333.249 434.927 332.395ZM440.589 327.027C441.502 326.173 442.903 326.234 443.755 327.088C444.607 328.003 444.547 329.406 443.694 330.26C442.781 331.114 441.381 331.053 440.528 330.199C439.676 329.284 439.737 327.881 440.589 327.027ZM445.886 321.964C446.799 321.11 448.2 321.171 449.052 322.025C449.904 322.94 449.843 324.343 448.991 325.197C448.078 326.051 446.678 325.99 445.825 325.136C444.973 324.221 445.034 322.818 445.886 321.964ZM451.426 316.717C452.34 315.863 453.74 315.924 454.592 316.778C455.445 317.693 455.384 319.096 454.531 319.951C453.618 320.805 452.218 320.744 451.366 319.889C450.513 318.974 450.574 317.571 451.426 316.717ZM456.723 311.654C457.637 310.8 459.037 310.861 459.889 311.715C460.742 312.63 460.681 314.033 459.828 314.887C458.915 315.741 457.515 315.68 456.662 314.826C455.81 313.911 455.871 312.508 456.723 311.654ZM462.385 306.286C463.299 305.432 464.699 305.493 465.551 306.347C466.404 307.262 466.343 308.665 465.491 309.519C464.577 310.373 463.177 310.312 462.325 309.458C461.472 308.543 461.472 307.14 462.385 306.286ZM467.682 301.284C468.596 300.429 469.996 300.49 470.848 301.345C471.701 302.199 471.64 303.663 470.787 304.517C469.874 305.371 468.474 305.31 467.621 304.456C466.769 303.541 466.769 302.138 467.682 301.284ZM473.223 296.037C474.136 295.183 475.536 295.244 476.389 296.098C477.241 297.013 477.18 298.416 476.328 299.27C475.415 300.124 474.014 300.063 473.162 299.209C472.249 298.294 472.309 296.83 473.223 296.037ZM478.52 290.974C479.433 290.12 480.833 290.181 481.686 291.035C482.538 291.95 482.477 293.353 481.625 294.207C480.711 295.061 479.311 295 478.459 294.146C477.545 293.231 477.606 291.828 478.52 290.974ZM484.182 285.545C485.095 284.691 486.495 284.752 487.348 285.606C488.2 286.521 488.139 287.924 487.287 288.778C486.374 289.632 484.973 289.571 484.121 288.717C483.269 287.802 483.269 286.399 484.182 285.545ZM489.479 280.542C490.392 279.688 491.792 279.749 492.645 280.603C493.497 281.518 493.436 282.922 492.584 283.776C491.67 284.63 490.27 284.569 489.418 283.715C488.565 282.8 488.565 281.396 489.479 280.542ZM495.019 275.296C495.932 274.442 497.333 274.503 498.185 275.357C499.037 276.272 498.976 277.675 498.124 278.529C497.211 279.383 495.811 279.322 494.958 278.468C494.106 277.553 494.106 276.15 495.019 275.296ZM500.316 270.233C501.229 269.379 502.629 269.44 503.482 270.294C504.334 271.209 504.273 272.612 503.421 273.466C502.508 274.32 501.107 274.259 500.255 273.405C499.342 272.49 499.403 271.087 500.316 270.233ZM505.856 264.926C506.77 264.072 508.17 264.133 509.022 264.987C509.875 265.902 509.814 267.305 508.961 268.159C508.048 269.013 506.648 268.952 505.795 268.098C504.943 267.183 505.004 265.78 505.856 264.926ZM511.153 259.923C512.066 259.069 513.467 259.13 514.319 259.984C515.171 260.899 515.111 262.303 514.258 263.157C513.345 264.011 511.945 263.95 511.092 263.096C510.24 262.181 510.24 260.777 511.153 259.923ZM516.694 254.677C517.607 253.823 519.007 253.884 519.859 254.738C520.712 255.653 520.651 257.056 519.799 257.91C518.885 258.764 517.485 258.703 516.633 257.849C515.78 256.873 515.78 255.47 516.694 254.677ZM521.99 249.614C522.904 248.76 524.304 248.821 525.156 249.675C526.009 250.59 525.948 251.993 525.095 252.847C524.182 253.701 522.782 253.64 521.93 252.786C521.077 251.871 521.077 250.468 521.99 249.614ZM527.653 244.185C528.566 243.331 529.966 243.392 530.819 244.246C531.671 245.161 531.61 246.564 530.758 247.418C529.844 248.272 528.444 248.211 527.592 247.357C526.739 246.442 526.8 245.039 527.653 244.185ZM532.949 239.182C533.863 238.328 535.263 238.389 536.115 239.243C536.968 240.158 536.907 241.561 536.055 242.415C535.141 243.27 533.741 243.209 532.889 242.354C532.036 241.439 532.097 240.036 532.949 239.182ZM538.49 233.936C539.403 233.082 540.803 233.143 541.656 233.997C542.508 234.912 542.447 236.315 541.595 237.169C540.682 238.023 539.281 237.962 538.429 237.108C537.577 236.193 537.577 234.729 538.49 233.936ZM543.787 228.873C544.7 228.019 546.1 228.08 546.953 228.934C547.805 229.849 547.744 231.252 546.892 232.106C545.978 232.96 544.578 232.899 543.726 232.045C542.873 231.13 542.873 229.727 543.787 228.873ZM549.51 223.444C550.423 222.589 551.823 222.65 552.676 223.505C553.528 224.42 553.467 225.823 552.615 226.677C551.702 227.531 550.301 227.47 549.449 226.616C548.536 225.701 548.597 224.298 549.51 223.444ZM554.746 218.441C555.659 217.587 557.059 217.648 557.912 218.502C558.764 219.417 558.703 220.82 557.851 221.674C556.938 222.528 555.537 222.467 554.685 221.613C553.832 220.698 553.893 219.295 554.746 218.441ZM560.286 213.134C561.199 212.28 562.6 212.341 563.452 213.195C564.304 214.11 564.244 215.513 563.391 216.367C562.478 217.221 561.078 217.16 560.225 216.306C559.373 215.391 559.434 213.988 560.286 213.134ZM565.583 208.132C566.496 207.278 567.897 207.339 568.749 208.193C569.601 209.108 569.54 210.511 568.688 211.365C567.775 212.219 566.375 212.158 565.522 211.304C564.67 210.389 564.731 208.986 565.583 208.132ZM571.306 202.702C572.219 201.848 573.62 201.909 574.472 202.763C575.324 203.678 575.263 205.082 574.411 205.936C573.498 206.79 572.098 206.729 571.245 205.875C570.332 204.96 570.393 203.556 571.306 202.702ZM576.603 197.7C577.516 196.846 578.916 196.907 579.769 197.761C580.621 198.676 580.56 200.079 579.708 200.933C578.795 201.787 577.394 201.726 576.542 200.872C575.629 199.957 575.69 198.554 576.603 197.7ZM582.082 192.393C582.996 191.539 584.396 191.6 585.248 192.454C586.101 193.369 586.04 194.772 585.188 195.626C584.274 196.48 582.874 196.419 582.022 195.565C581.169 194.65 581.23 193.247 582.082 192.393ZM587.379 187.391C588.293 186.537 589.693 186.598 590.545 187.452C591.398 188.367 591.337 189.77 590.484 190.624C589.571 191.478 588.171 191.417 587.318 190.563C586.466 189.648 586.527 188.245 587.379 187.391ZM592.981 182.083C593.894 181.229 595.294 181.29 596.147 182.144C596.999 183.059 596.938 184.462 596.086 185.317C595.172 186.171 593.772 186.11 592.92 185.256C592.067 184.34 592.067 182.937 592.981 182.083ZM598.277 177.081C599.191 176.227 600.591 176.288 601.443 177.142C602.296 178.057 602.235 179.46 601.383 180.314C600.469 181.168 599.069 181.107 598.217 180.253C597.364 179.338 597.364 177.874 598.277 177.081ZM603.818 171.774C604.731 170.92 606.131 170.981 606.984 171.835C607.836 172.75 607.775 174.153 606.923 175.007C606.01 175.861 604.609 175.8 603.757 174.946C602.844 174.031 602.905 172.628 603.818 171.774ZM609.115 166.772C610.028 165.918 611.428 165.979 612.281 166.833C613.133 167.748 613.072 169.151 612.22 170.005C611.307 170.859 609.906 170.798 609.054 169.944C608.141 169.029 608.201 167.626 609.115 166.772ZM614.777 161.342C615.69 160.488 617.09 160.549 617.943 161.403C618.795 162.318 618.734 163.721 617.882 164.575C616.969 165.43 615.568 165.368 614.716 164.514C613.864 163.599 613.864 162.196 614.777 161.342ZM620.074 156.34C620.987 155.486 622.387 155.547 623.24 156.401C624.092 157.316 624.031 158.719 623.179 159.573C622.266 160.427 620.865 160.366 620.013 159.512C619.161 158.597 619.16 157.194 620.074 156.34ZM625.614 151.033C626.527 150.179 627.928 150.24 628.78 151.094C629.632 152.009 629.572 153.412 628.719 154.266C627.806 155.12 626.406 155.059 625.553 154.205C624.701 153.29 624.701 151.887 625.614 151.033ZM630.911 146.031C631.824 145.176 633.225 145.237 634.077 146.091C634.929 147.007 634.868 148.41 634.016 149.264C633.103 150.118 631.703 150.057 630.85 149.203C629.937 148.288 629.998 146.885 630.911 146.031ZM280.222 463.491C281.135 462.637 282.536 462.698 283.388 463.552C284.24 464.467 284.179 465.87 283.327 466.724C282.414 467.578 281.013 467.517 280.161 466.663C279.309 465.748 279.309 464.345 280.222 463.491ZM285.519 458.489C286.432 457.635 287.832 457.696 288.685 458.55C289.537 459.465 289.476 460.868 288.624 461.722C287.711 462.576 286.31 462.515 285.458 461.661C284.606 460.746 284.606 459.343 285.519 458.489ZM291.059 453.242C291.972 452.388 293.373 452.449 294.225 453.303C295.078 454.218 295.017 455.621 294.164 456.476C293.251 457.33 291.851 457.269 290.998 456.415C290.146 455.499 290.146 454.096 291.059 453.242ZM296.356 448.179C297.269 447.325 298.67 447.386 299.522 448.24C300.374 449.155 300.314 450.558 299.461 451.412C298.548 452.266 297.148 452.205 296.295 451.351C295.382 450.436 295.443 449.033 296.356 448.179ZM302.018 442.811C302.932 441.957 304.332 442.018 305.184 442.872C306.037 443.787 305.976 445.19 305.123 446.044C304.21 446.898 302.81 446.837 301.957 445.983C301.105 445.007 301.105 443.604 302.018 442.811ZM307.315 437.748C308.228 436.894 309.629 436.954 310.481 437.809C311.333 438.724 311.273 440.127 310.42 440.981C309.507 441.835 308.107 441.774 307.254 440.92C306.402 440.005 306.402 438.602 307.315 437.748ZM312.856 432.501C313.769 431.647 315.169 431.708 316.021 432.562C316.874 433.477 316.813 434.88 315.961 435.734C315.047 436.589 313.647 436.527 312.795 435.673C311.942 434.758 311.942 433.355 312.856 432.501ZM318.152 427.438C319.066 426.584 320.466 426.645 321.318 427.499C322.171 428.414 322.11 429.817 321.257 430.671C320.344 431.525 318.944 431.464 318.092 430.61C317.178 429.695 317.239 428.292 318.152 427.438ZM323.693 422.131C324.606 421.277 326.006 421.338 326.859 422.192C327.711 423.107 327.65 424.51 326.798 425.364C325.885 426.218 324.484 426.157 323.632 425.303C322.78 424.388 322.84 422.985 323.693 422.131ZM328.99 417.129C329.903 416.274 331.303 416.335 332.156 417.189C333.008 418.105 332.947 419.508 332.095 420.362C331.181 421.216 329.781 421.155 328.929 420.301C328.076 419.386 328.137 417.983 328.99 417.129ZM334.53 411.882C335.443 411.028 336.844 411.089 337.696 411.943C338.548 412.858 338.488 414.261 337.635 415.115C336.722 415.969 335.322 415.908 334.469 415.054C333.617 414.139 333.617 412.675 334.53 411.882ZM339.827 406.819C340.74 405.965 342.141 406.026 342.993 406.88C343.845 407.795 343.784 409.198 342.932 410.052C342.019 410.906 340.618 410.845 339.766 409.991C338.914 409.076 338.914 407.673 339.827 406.819ZM345.489 401.39C346.402 400.536 347.803 400.597 348.655 401.451C349.507 402.366 349.447 403.769 348.594 404.623C347.681 405.477 346.281 405.416 345.428 404.562C344.576 403.647 344.637 402.244 345.489 401.39ZM350.786 396.387C351.699 395.533 353.1 395.594 353.952 396.448C354.804 397.363 354.743 398.767 353.891 399.621C352.978 400.475 351.577 400.414 350.725 399.56C349.873 398.645 349.934 397.241 350.786 396.387ZM356.326 391.141C357.24 390.287 358.64 390.348 359.492 391.202C360.345 392.117 360.284 393.52 359.431 394.374C358.518 395.228 357.118 395.167 356.266 394.313C355.413 393.398 355.474 391.995 356.326 391.141ZM361.623 386.078C362.536 385.224 363.937 385.285 364.789 386.139C365.642 387.054 365.581 388.457 364.728 389.311C363.815 390.165 362.415 390.104 361.562 389.25C360.71 388.335 360.71 386.932 361.623 386.078ZM367.346 380.649C368.26 379.795 369.66 379.856 370.512 380.71C371.365 381.625 371.304 383.028 370.451 383.882C369.538 384.736 368.138 384.675 367.285 383.821C366.372 382.906 366.433 381.503 367.346 380.649ZM372.643 375.646C373.556 374.792 374.957 374.853 375.809 375.707C376.661 376.622 376.601 378.025 375.748 378.88C374.835 379.734 373.435 379.673 372.582 378.819C371.669 377.903 371.73 376.5 372.643 375.646ZM378.123 370.339C379.036 369.485 380.436 369.546 381.289 370.4C382.141 371.315 382.08 372.718 381.228 373.572C380.314 374.426 378.914 374.365 378.062 373.511C377.209 372.596 377.27 371.193 378.123 370.339ZM383.42 365.337C384.333 364.483 385.733 364.544 386.585 365.398C387.438 366.313 387.377 367.716 386.525 368.57C385.611 369.424 384.211 369.363 383.359 368.509C382.506 367.594 382.567 366.191 383.42 365.337ZM389.143 359.908C390.056 359.053 391.456 359.115 392.309 359.969C393.161 360.884 393.1 362.287 392.248 363.141C391.334 363.995 389.934 363.934 389.082 363.08C388.229 362.165 388.229 360.762 389.143 359.908ZM394.439 354.905C395.353 354.051 396.753 354.112 397.605 354.966C398.458 355.881 398.397 357.284 397.545 358.138C396.631 358.992 395.231 358.931 394.379 358.077C393.465 357.162 393.526 355.759 394.439 354.905ZM399.919 349.659C400.832 348.805 402.233 348.866 403.085 349.72C403.937 350.635 403.876 352.038 403.024 352.892C402.111 353.746 400.71 353.685 399.858 352.831C399.006 351.855 399.067 350.452 399.919 349.659ZM405.216 344.596C406.129 343.742 407.529 343.803 408.382 344.657C409.234 345.572 409.173 346.975 408.321 347.829C407.408 348.683 406.007 348.622 405.155 347.768C404.303 346.853 404.363 345.45 405.216 344.596ZM410.817 339.288C411.73 338.434 413.131 338.495 413.983 339.349C414.835 340.265 414.775 341.668 413.922 342.522C413.009 343.376 411.609 343.315 410.756 342.461C409.904 341.546 409.904 340.143 410.817 339.288ZM416.114 334.286C417.027 333.432 418.428 333.493 419.28 334.347C420.132 335.262 420.071 336.665 419.219 337.519C418.306 338.373 416.905 338.312 416.053 337.458C415.201 336.543 415.201 335.14 416.114 334.286ZM421.654 328.979C422.568 328.125 423.968 328.186 424.82 329.04C425.673 329.955 425.612 331.358 424.759 332.212C423.846 333.066 422.446 333.005 421.594 332.151C420.741 331.236 420.741 329.833 421.654 328.979ZM426.951 323.977C427.865 323.123 429.265 323.184 430.117 324.038C430.97 324.953 430.909 326.356 430.056 327.21C429.143 328.064 427.743 328.003 426.89 327.149C425.977 326.234 426.038 324.831 426.951 323.977ZM432.613 318.547C433.527 317.693 434.927 317.754 435.779 318.608C436.632 319.523 436.571 320.927 435.718 321.781C434.805 322.635 433.405 322.574 432.553 321.72C431.7 320.805 431.7 319.401 432.613 318.547ZM437.91 313.545C438.824 312.691 440.224 312.752 441.076 313.606C441.929 314.521 441.868 315.924 441.015 316.778C440.102 317.632 438.702 317.571 437.849 316.717C436.997 315.802 436.997 314.399 437.91 313.545ZM443.451 308.238C444.364 307.384 445.764 307.445 446.617 308.299C447.469 309.214 447.408 310.617 446.556 311.471C445.642 312.325 444.242 312.264 443.39 311.41C442.537 310.495 442.537 309.092 443.451 308.238ZM448.748 303.236C449.661 302.382 451.061 302.443 451.914 303.297C452.766 304.212 452.705 305.615 451.853 306.469C450.939 307.323 449.539 307.262 448.687 306.408C447.773 305.493 447.834 304.09 448.748 303.236ZM454.349 297.867C455.262 297.013 456.662 297.074 457.515 297.928C458.367 298.843 458.306 300.246 457.454 301.101C456.541 301.955 455.14 301.894 454.288 301.04C453.436 300.124 453.496 298.721 454.349 297.867ZM459.646 292.804C460.559 291.95 461.959 292.011 462.812 292.865C463.664 293.78 463.603 295.183 462.751 296.037C461.838 296.891 460.437 296.83 459.585 295.976C458.732 295.061 458.793 293.658 459.646 292.804ZM465.186 287.558C466.099 286.704 467.5 286.765 468.352 287.619C469.204 288.534 469.144 289.937 468.291 290.791C467.378 291.645 465.978 291.584 465.125 290.73C464.273 289.815 464.334 288.412 465.186 287.558ZM470.483 282.556C471.396 281.702 472.797 281.763 473.649 282.617C474.501 283.532 474.44 284.935 473.588 285.789C472.675 286.643 471.274 286.582 470.422 285.728C469.57 284.813 469.57 283.41 470.483 282.556ZM476.145 277.126C477.058 276.272 478.459 276.333 479.311 277.187C480.163 278.102 480.103 279.505 479.25 280.359C478.337 281.213 476.937 281.152 476.084 280.298C475.232 279.383 475.293 277.98 476.145 277.126ZM481.442 272.063C482.355 271.209 483.756 271.27 484.608 272.124C485.46 273.039 485.399 274.442 484.547 275.296C483.634 276.15 482.233 276.089 481.381 275.235C480.529 274.32 480.59 272.917 481.442 272.063ZM486.982 266.817C487.896 265.963 489.296 266.024 490.148 266.878C491.001 267.793 490.94 269.196 490.087 270.05C489.174 270.904 487.774 270.843 486.922 269.989C486.069 269.074 486.13 267.671 486.982 266.817ZM492.279 261.814C493.193 260.96 494.593 261.021 495.445 261.875C496.298 262.791 496.237 264.194 495.384 265.048C494.471 265.902 493.071 265.841 492.218 264.987C491.366 264.072 491.427 262.669 492.279 261.814ZM497.881 256.507C498.794 255.653 500.194 255.714 501.046 256.568C501.899 257.483 501.838 258.886 500.986 259.74C500.072 260.594 498.672 260.533 497.82 259.679C496.967 258.764 496.967 257.361 497.881 256.507ZM503.177 251.444C504.091 250.59 505.491 250.651 506.343 251.505C507.196 252.42 507.135 253.823 506.282 254.677C505.369 255.531 503.969 255.47 503.117 254.616C502.203 253.701 502.264 252.298 503.177 251.444ZM508.657 246.198C509.57 245.344 510.97 245.405 511.823 246.259C512.675 247.174 512.614 248.577 511.762 249.431C510.849 250.285 509.448 250.224 508.596 249.37C507.744 248.455 507.805 247.052 508.657 246.198ZM513.954 241.195C514.867 240.341 516.267 240.402 517.12 241.256C517.972 242.171 517.911 243.575 517.059 244.429C516.146 245.283 514.745 245.222 513.893 244.368C513.041 243.392 513.101 241.988 513.954 241.195ZM519.677 235.766C520.59 234.912 521.99 234.973 522.843 235.827C523.695 236.742 523.634 238.145 522.782 238.999C521.869 239.853 520.468 239.792 519.616 238.938C518.764 238.023 518.764 236.62 519.677 235.766ZM524.974 230.703C525.887 229.849 527.287 229.91 528.14 230.764C528.992 231.679 528.931 233.082 528.079 233.936C527.166 234.79 525.765 234.729 524.913 233.875C524 232.96 524.06 231.557 524.974 230.703ZM530.514 225.457C531.427 224.603 532.828 224.664 533.68 225.518C534.532 226.433 534.472 227.836 533.619 228.69C532.706 229.544 531.306 229.483 530.453 228.629C529.54 227.714 529.601 226.311 530.514 225.457ZM535.75 220.454C536.663 219.6 538.064 219.661 538.916 220.515C539.768 221.43 539.708 222.833 538.855 223.688C537.942 224.542 536.542 224.481 535.689 223.627C534.837 222.711 534.898 221.247 535.75 220.454ZM541.473 215.025C542.386 214.171 543.787 214.232 544.639 215.086C545.491 216.001 545.431 217.404 544.578 218.258C543.665 219.112 542.265 219.051 541.412 218.197C540.56 217.282 540.56 215.879 541.473 215.025ZM546.77 209.962C547.683 209.108 549.084 209.169 549.936 210.023C550.788 210.938 550.727 212.341 549.875 213.195C548.962 214.049 547.561 213.988 546.709 213.134C545.857 212.219 545.857 210.816 546.77 209.962ZM552.31 204.716C553.224 203.861 554.624 203.923 555.476 204.777C556.329 205.692 556.268 207.095 555.415 207.949C554.502 208.803 553.102 208.742 552.25 207.888C551.397 206.973 551.397 205.57 552.31 204.716ZM557.607 199.652C558.521 198.798 559.921 198.859 560.773 199.713C561.626 200.628 561.565 202.031 560.712 202.885C559.799 203.739 558.399 203.678 557.546 202.824C556.694 201.909 556.694 200.506 557.607 199.652ZM563.269 194.284C564.183 193.43 565.583 193.491 566.435 194.345C567.288 195.26 567.227 196.663 566.374 197.517C565.461 198.371 564.061 198.31 563.209 197.456C562.356 196.541 562.417 195.138 563.269 194.284ZM568.566 189.221C569.48 188.367 570.88 188.428 571.732 189.282C572.585 190.197 572.524 191.6 571.671 192.454C570.758 193.308 569.358 193.247 568.505 192.393C567.653 191.478 567.653 190.075 568.566 189.221ZM574.107 183.974C575.02 183.12 576.42 183.181 577.273 184.035C578.125 184.951 578.064 186.354 577.212 187.208C576.299 188.062 574.898 188.001 574.046 187.147C573.193 186.232 573.193 184.829 574.107 183.974ZM579.404 178.972C580.317 178.118 581.717 178.179 582.57 179.033C583.422 179.948 583.361 181.351 582.509 182.205C581.595 183.059 580.195 182.998 579.343 182.144C578.49 181.168 578.49 179.765 579.404 178.972ZM584.944 173.665C585.857 172.811 587.258 172.872 588.11 173.726C588.962 174.641 588.901 176.044 588.049 176.898C587.136 177.752 585.735 177.691 584.883 176.837C584.031 175.922 584.092 174.458 584.944 173.665ZM590.241 168.602C591.154 167.748 592.554 167.809 593.407 168.663C594.259 169.578 594.198 170.981 593.346 171.835C592.433 172.689 591.032 172.628 590.18 171.774C589.328 170.859 589.388 169.456 590.241 168.602ZM595.781 163.355C596.694 162.501 598.095 162.562 598.947 163.416C599.8 164.331 599.739 165.735 598.886 166.589C597.973 167.443 596.573 167.382 595.72 166.528C594.868 165.613 594.929 164.209 595.781 163.355ZM601.078 158.292C601.991 157.438 603.392 157.499 604.244 158.353C605.096 159.268 605.036 160.671 604.183 161.525C603.27 162.379 601.87 162.318 601.017 161.464C600.165 160.549 600.165 159.146 601.078 158.292ZM606.74 152.924C607.654 152.07 609.054 152.131 609.906 152.985C610.759 153.9 610.698 155.303 609.845 156.157C608.932 157.011 607.532 156.95 606.679 156.096C605.827 155.181 605.888 153.717 606.74 152.924ZM612.037 147.861C612.95 147.007 614.351 147.068 615.203 147.922C616.055 148.837 615.995 150.24 615.142 151.094C614.229 151.948 612.829 151.887 611.976 151.033C611.124 150.118 611.185 148.715 612.037 147.861ZM617.578 142.614C618.491 141.76 619.891 141.821 620.743 142.675C621.596 143.59 621.535 144.993 620.683 145.847C619.769 146.702 618.369 146.641 617.517 145.786C616.664 144.871 616.725 143.468 617.578 142.614ZM622.874 137.551C623.788 136.697 625.188 136.758 626.04 137.612C626.893 138.527 626.832 139.93 625.979 140.784C625.066 141.638 623.666 141.577 622.814 140.723C621.961 139.808 622.022 138.405 622.874 137.551ZM199.856 411.943C200.891 410.967 202.595 410.967 203.57 412.065C204.544 413.102 204.544 414.81 203.448 415.786C202.413 416.762 200.708 416.762 199.734 415.664C198.76 414.627 198.821 412.98 199.856 411.943ZM206.431 405.721C207.466 404.745 209.171 404.745 210.145 405.843C211.119 406.88 211.119 408.588 210.023 409.564C208.988 410.54 207.284 410.54 206.309 409.442C205.335 408.405 205.396 406.697 206.431 405.721ZM212.702 399.743C213.737 398.767 215.442 398.767 216.416 399.865C217.39 400.902 217.39 402.61 216.294 403.586C215.259 404.562 213.555 404.562 212.58 403.464C211.606 402.427 211.667 400.78 212.702 399.743ZM219.46 393.337C220.495 392.361 222.2 392.361 223.174 393.459C224.148 394.496 224.148 396.204 223.052 397.18C222.017 398.157 220.313 398.156 219.338 397.058C218.364 396.021 218.425 394.313 219.46 393.337ZM225.731 387.359C226.766 386.383 228.471 386.383 229.445 387.481C230.419 388.518 230.419 390.226 229.323 391.202C228.288 392.178 226.584 392.178 225.609 391.08C224.635 390.043 224.696 388.335 225.731 387.359ZM232.307 381.076C233.342 380.1 235.046 380.1 236.021 381.198C236.995 382.235 236.995 383.943 235.899 384.919C234.864 385.895 233.159 385.895 232.185 384.797C231.211 383.76 231.272 382.113 232.307 381.076ZM238.639 375.097C239.674 374.121 241.378 374.121 242.352 375.219C243.327 376.256 243.327 377.964 242.231 378.941C241.196 379.917 239.491 379.917 238.517 378.819C237.543 377.781 237.543 376.134 238.639 375.097ZM245.214 368.814C246.249 367.838 247.954 367.838 248.928 368.936C249.902 369.973 249.902 371.681 248.806 372.657C247.771 373.633 246.066 373.633 245.092 372.535C244.118 371.498 244.179 369.851 245.214 368.814ZM251.546 362.836C252.581 361.86 254.286 361.86 255.26 362.958C256.234 363.995 256.234 365.703 255.138 366.679C254.103 367.655 252.398 367.655 251.424 366.557C250.389 365.52 250.45 363.873 251.546 362.836ZM258.06 356.613C259.095 355.637 260.8 355.637 261.774 356.735C262.748 357.772 262.748 359.48 261.653 360.457C260.617 361.433 258.913 361.433 257.939 360.335C256.964 359.297 257.025 357.589 258.06 356.613ZM264.392 350.635C265.427 349.659 267.132 349.659 268.106 350.757C269.08 351.794 269.08 353.502 267.984 354.478C266.949 355.454 265.245 355.454 264.27 354.356C263.296 353.319 263.296 351.611 264.392 350.635ZM271.15 344.169C272.185 343.193 273.89 343.193 274.864 344.291C275.838 345.328 275.838 347.036 274.742 348.012C273.707 348.988 272.003 348.988 271.029 347.89C270.054 346.853 270.054 345.206 271.15 344.169ZM277.421 338.19C278.456 337.214 280.161 337.214 281.135 338.312C282.109 339.349 282.109 341.058 281.013 342.034C279.978 343.01 278.274 343.01 277.3 341.912C276.325 340.875 276.325 339.227 277.421 338.19ZM283.997 331.968C285.032 330.992 286.737 330.992 287.711 332.09C288.685 333.127 288.685 334.835 287.589 335.811C286.554 336.787 284.849 336.787 283.875 335.689C282.901 334.652 282.901 332.944 283.997 331.968ZM290.268 325.99C291.303 325.014 293.008 325.014 293.982 326.112C294.956 327.149 294.956 328.857 293.86 329.833C292.825 330.809 291.12 330.809 290.146 329.711C289.172 328.674 289.233 326.966 290.268 325.99ZM297.026 319.523C298.061 318.547 299.766 318.547 300.74 319.645C301.714 320.683 301.714 322.391 300.618 323.367C299.583 324.343 297.878 324.343 296.904 323.245C295.93 322.208 295.991 320.561 297.026 319.523ZM303.297 313.545C304.332 312.569 306.037 312.569 307.011 313.667C307.985 314.704 307.985 316.412 306.889 317.388C305.854 318.364 304.149 318.364 303.175 317.266C302.201 316.229 302.262 314.582 303.297 313.545ZM309.872 307.323C310.907 306.347 312.612 306.347 313.586 307.445C314.56 308.482 314.56 310.19 313.464 311.166C312.429 312.142 310.725 312.142 309.75 311.044C308.776 310.007 308.837 308.299 309.872 307.323ZM316.143 301.345C317.178 300.368 318.883 300.368 319.857 301.467C320.831 302.504 320.831 304.212 319.735 305.188C318.7 306.164 316.996 306.164 316.021 305.066C315.047 304.029 315.108 302.321 316.143 301.345ZM322.901 294.939C323.936 293.963 325.641 293.963 326.615 295.061C327.589 296.098 327.589 297.806 326.493 298.782C325.458 299.758 323.754 299.758 322.78 298.66C321.805 297.623 321.866 295.915 322.901 294.939ZM329.233 288.961C330.268 287.985 331.973 287.985 332.947 289.083C333.921 290.12 333.921 291.828 332.825 292.804C331.79 293.78 330.086 293.78 329.111 292.682C328.137 291.645 328.137 289.937 329.233 288.961ZM335.809 282.678C336.844 281.702 338.548 281.702 339.523 282.8C340.497 283.837 340.497 285.545 339.401 286.521C338.366 287.497 336.661 287.497 335.687 286.399C334.652 285.362 334.713 283.715 335.809 282.678ZM342.08 276.699C343.115 275.723 344.819 275.723 345.794 276.821C346.768 277.858 346.768 279.566 345.672 280.542C344.637 281.518 342.932 281.519 341.958 280.42C340.984 279.383 340.984 277.736 342.08 276.699ZM348.655 270.416C349.69 269.44 351.395 269.44 352.369 270.538C353.343 271.575 353.343 273.283 352.247 274.259C351.212 275.235 349.507 275.235 348.533 274.137C347.559 273.1 347.62 271.453 348.655 270.416ZM354.987 264.438C356.022 263.462 357.727 263.462 358.701 264.56C359.675 265.597 359.675 267.305 358.579 268.281C357.544 269.257 355.839 269.257 354.865 268.159C353.891 267.122 353.891 265.475 354.987 264.438ZM361.562 258.215C362.597 257.239 364.302 257.239 365.276 258.337C366.25 259.374 366.25 261.082 365.154 262.059C364.119 263.035 362.415 263.035 361.441 261.936C360.466 260.899 360.466 259.191 361.562 258.215ZM367.833 252.237C368.868 251.261 370.573 251.261 371.547 252.359C372.521 253.396 372.521 255.104 371.425 256.08C370.39 257.056 368.686 257.056 367.712 255.958C366.737 254.921 366.737 253.213 367.833 252.237ZM374.591 245.771C375.626 244.795 377.331 244.795 378.305 245.893C379.279 246.93 379.279 248.638 378.184 249.614C377.149 250.59 375.444 250.59 374.47 249.492C373.496 248.455 373.496 246.808 374.591 245.771ZM380.862 239.792C381.897 238.816 383.602 238.816 384.576 239.914C385.55 240.951 385.55 242.659 384.455 243.636C383.42 244.612 381.715 244.612 380.741 243.514C379.767 242.476 379.827 240.829 380.862 239.792ZM387.438 233.57C388.473 232.594 390.178 232.594 391.152 233.692C392.126 234.729 392.126 236.437 391.03 237.413C389.995 238.389 388.29 238.389 387.316 237.291C386.342 236.254 386.342 234.546 387.438 233.57ZM393.709 227.592C394.744 226.616 396.449 226.616 397.423 227.714C398.397 228.751 398.397 230.459 397.301 231.435C396.266 232.411 394.561 232.411 393.587 231.313C392.613 230.276 392.674 228.568 393.709 227.592ZM400.406 221.186C401.441 220.21 403.146 220.21 404.12 221.308C405.094 222.345 405.094 224.054 403.998 225.03C402.963 226.006 401.258 226.006 400.284 224.908C399.31 223.871 399.371 222.223 400.406 221.186ZM406.677 215.208C407.712 214.232 409.417 214.232 410.391 215.33C411.365 216.367 411.365 218.075 410.269 219.051C409.234 220.027 407.529 220.027 406.555 218.929C405.581 217.892 405.642 216.245 406.677 215.208ZM413.252 208.986C414.287 208.01 415.992 208.01 416.966 209.108C417.941 210.145 417.941 211.853 416.845 212.829C415.81 213.805 414.105 213.805 413.131 212.707C412.157 211.67 412.217 209.962 413.252 208.986ZM419.523 203.007C420.558 202.031 422.263 202.031 423.237 203.129C424.212 204.167 424.211 205.875 423.116 206.851C422.081 207.827 420.376 207.827 419.402 206.729C418.428 205.692 418.488 203.984 419.523 203.007ZM426.282 196.602C427.317 195.626 429.021 195.626 429.995 196.724C430.97 197.761 430.97 199.469 429.874 200.445C428.839 201.421 427.134 201.421 426.16 200.323C425.186 199.286 425.247 197.578 426.282 196.602ZM432.613 190.624C433.648 189.648 435.353 189.648 436.327 190.746C437.301 191.783 437.301 193.491 436.206 194.467C435.171 195.443 433.466 195.443 432.492 194.345C431.518 193.308 431.518 191.6 432.613 190.624ZM439.189 184.34C440.224 183.364 441.929 183.364 442.903 184.462C443.877 185.5 443.877 187.208 442.781 188.184C441.746 189.16 440.041 189.16 439.067 188.062C438.032 187.025 438.093 185.378 439.189 184.34ZM445.46 178.362C446.495 177.386 448.2 177.386 449.174 178.484C450.148 179.521 450.148 181.229 449.052 182.205C448.017 183.181 446.312 183.181 445.338 182.083C444.364 181.046 444.364 179.399 445.46 178.362ZM452.035 172.079C453.07 171.103 454.775 171.103 455.749 172.201C456.723 173.238 456.723 174.946 455.627 175.922C454.592 176.898 452.888 176.898 451.914 175.8C450.939 174.763 451 173.116 452.035 172.079ZM458.367 166.101C459.402 165.124 461.107 165.124 462.081 166.223C463.055 167.26 463.055 168.968 461.959 169.944C460.924 170.92 459.22 170.92 458.245 169.822C457.271 168.785 457.271 167.138 458.367 166.101ZM464.943 159.878C465.978 158.902 467.682 158.902 468.656 160C469.631 161.037 469.631 162.745 468.535 163.721C467.5 164.697 465.795 164.697 464.821 163.599C463.847 162.562 463.847 160.854 464.943 159.878ZM471.214 153.9C472.249 152.924 473.953 152.924 474.927 154.022C475.902 155.059 475.902 156.767 474.806 157.743C473.771 158.719 472.066 158.719 471.092 157.621C470.118 156.523 470.118 154.876 471.214 153.9ZM477.972 147.434C479.007 146.458 480.711 146.458 481.686 147.556C482.66 148.593 482.66 150.301 481.564 151.277C480.529 152.253 478.824 152.253 477.85 151.155C476.876 150.118 476.876 148.471 477.972 147.434ZM484.243 141.455C485.278 140.479 486.982 140.479 487.957 141.577C488.931 142.614 488.931 144.322 487.835 145.298C486.8 146.275 485.095 146.275 484.121 145.176C483.147 144.139 483.208 142.492 484.243 141.455ZM490.818 135.233C491.853 134.257 493.558 134.257 494.532 135.355C495.506 136.392 495.506 138.1 494.41 139.076C493.375 140.052 491.67 140.052 490.696 138.954C489.722 137.917 489.722 136.209 490.818 135.233ZM497.089 129.255C498.124 128.279 499.829 128.279 500.803 129.377C501.777 130.414 501.777 132.122 500.681 133.098C499.646 134.074 497.941 134.074 496.967 132.976C495.993 131.939 496.054 130.231 497.089 129.255ZM503.847 122.788C504.882 121.812 506.587 121.812 507.561 122.91C508.535 123.947 508.535 125.655 507.439 126.631C506.404 127.608 504.699 127.608 503.725 126.509C502.751 125.472 502.812 123.825 503.847 122.788ZM510.118 116.81C511.153 115.834 512.858 115.834 513.832 116.932C514.806 117.969 514.806 119.677 513.71 120.653C512.675 121.629 510.97 121.629 509.996 120.531C509.022 119.494 509.083 117.847 510.118 116.81ZM516.694 110.588C517.729 109.612 519.433 109.612 520.407 110.71C521.382 111.747 521.382 113.455 520.286 114.431C519.251 115.407 517.546 115.407 516.572 114.309C515.598 113.272 515.659 111.564 516.694 110.588ZM523.025 104.609C524.06 103.633 525.765 103.633 526.739 104.731C527.713 105.768 527.713 107.477 526.618 108.453C525.583 109.429 523.878 109.429 522.904 108.331C521.869 107.293 521.93 105.585 523.025 104.609ZM529.723 98.204C530.758 97.228 532.462 97.228 533.437 98.326C534.411 99.3631 534.411 101.071 533.315 102.047C532.28 103.023 530.575 103.023 529.601 101.925C528.627 100.888 528.688 99.1801 529.723 98.204ZM536.055 92.2257C537.09 91.2497 538.794 91.2497 539.768 92.3477C540.743 93.3848 540.743 95.0929 539.647 96.0689C538.612 97.045 536.907 97.045 535.933 95.9469C534.959 94.9099 534.959 93.2018 536.055 92.2257ZM542.63 85.9424C543.665 84.9663 545.37 84.9663 546.344 86.0644C547.318 87.1015 547.318 88.8095 546.222 89.7856C545.187 90.7616 543.482 90.7616 542.508 89.6636C541.534 88.6265 541.534 86.9794 542.63 85.9424ZM548.901 79.9641C549.936 78.988 551.641 78.988 552.615 80.0861C553.589 81.1231 553.589 82.8312 552.493 83.8073C551.458 84.7833 549.753 84.7833 548.779 83.6853C547.805 82.6482 547.805 81.0011 548.901 79.9641ZM555.537 73.6808C556.572 72.7047 558.277 72.7047 559.251 73.8028C560.225 74.8398 560.225 76.5479 559.129 77.524C558.094 78.5 556.39 78.5 555.415 77.402C554.38 76.3649 554.441 74.7178 555.537 73.6808ZM561.808 67.7024C562.843 66.7264 564.548 66.7264 565.522 67.8245C566.496 68.8615 566.496 70.5696 565.4 71.5456C564.365 72.5217 562.661 72.5217 561.686 71.4236C560.712 70.3866 560.712 68.7395 561.808 67.7024ZM568.384 61.4801C569.419 60.5041 571.123 60.5041 572.098 61.6021C573.072 62.6392 573.072 64.3473 571.976 65.3233C570.941 66.2994 569.236 66.2994 568.262 65.2013C567.288 64.1033 567.288 62.4562 568.384 61.4801ZM574.655 55.5018C575.69 54.5258 577.394 54.5258 578.369 55.6238C579.343 56.7219 579.343 58.369 578.247 59.345C577.212 60.3211 575.507 60.3211 574.533 59.223C573.559 58.186 573.559 56.4779 574.655 55.5018ZM581.413 49.0355C582.448 48.0594 584.152 48.0594 585.127 49.1575C586.101 50.1945 586.101 51.9026 585.005 52.8787C583.97 53.8547 582.265 53.8547 581.291 52.7567C580.317 51.7196 580.317 50.0725 581.413 49.0355ZM587.684 43.0572C588.719 42.0811 590.423 42.0811 591.398 43.1792C592.372 44.2162 592.372 45.9243 591.276 46.9004C590.241 47.8764 588.536 47.8764 587.562 46.7784C586.588 45.7413 586.649 44.0942 587.684 43.0572ZM594.259 36.8349C595.294 35.8588 596.999 35.8588 597.973 36.9569C598.947 37.9939 598.947 39.702 597.851 40.678C596.816 41.6541 595.112 41.6541 594.137 40.556C593.163 39.519 593.224 37.8109 594.259 36.8349ZM600.53 30.8565C601.565 29.8805 603.27 29.8805 604.244 30.9785C605.218 32.0766 605.218 33.7237 604.122 34.6997C603.087 35.6758 601.383 35.6758 600.408 34.5777C599.434 33.5407 599.495 31.8326 600.53 30.8565ZM195.229 425.974C196.264 424.998 197.968 424.998 198.942 426.096C199.917 427.133 199.917 428.841 198.821 429.817C197.786 430.793 196.081 430.793 195.107 429.695C194.133 428.658 194.133 426.95 195.229 425.974ZM201.5 419.996C202.535 419.02 204.239 419.02 205.213 420.118C206.188 421.155 206.188 422.863 205.092 423.839C204.057 424.815 202.352 424.815 201.378 423.717C200.404 422.68 200.404 420.972 201.5 419.996ZM208.075 413.712C209.11 412.736 210.815 412.736 211.789 413.834C212.763 414.871 212.763 416.579 211.667 417.556C210.632 418.532 208.927 418.532 207.953 417.434C206.979 416.396 206.979 414.749 208.075 413.712ZM214.346 407.734C215.381 406.758 217.086 406.758 218.06 407.856C219.034 408.893 219.034 410.601 217.938 411.577C216.903 412.553 215.198 412.553 214.224 411.455C213.25 410.418 213.311 408.771 214.346 407.734ZM221.104 401.329C222.139 400.353 223.844 400.353 224.818 401.451C225.792 402.488 225.792 404.196 224.696 405.172C223.661 406.148 221.956 406.148 220.982 405.05C220.008 404.013 220.069 402.366 221.104 401.329ZM227.375 395.35C228.41 394.374 230.115 394.374 231.089 395.472C232.063 396.509 232.063 398.217 230.967 399.194C229.932 400.17 228.227 400.17 227.253 399.072C226.279 398.034 226.34 396.387 227.375 395.35ZM233.951 389.128C234.986 388.152 236.69 388.152 237.664 389.25C238.639 390.287 238.639 391.995 237.543 392.971C236.508 393.947 234.803 393.947 233.829 392.849C232.855 391.812 232.915 390.104 233.951 389.128ZM240.222 383.15C241.257 382.174 242.961 382.174 243.935 383.272C244.91 384.309 244.91 386.017 243.814 386.993C242.779 387.969 241.074 387.969 240.1 386.871C239.126 385.834 239.186 384.126 240.222 383.15ZM246.858 376.866C247.893 375.89 249.598 375.89 250.572 376.988C251.546 378.025 251.546 379.734 250.45 380.71C249.415 381.686 247.71 381.686 246.736 380.588C245.762 379.49 245.823 377.842 246.858 376.866ZM253.129 370.888C254.164 369.912 255.869 369.912 256.843 371.01C257.817 372.047 257.817 373.755 256.721 374.731C255.686 375.707 253.981 375.707 253.007 374.609C252.033 373.511 252.094 371.864 253.129 370.888ZM259.704 364.605C260.739 363.629 262.444 363.629 263.418 364.727C264.392 365.764 264.392 367.472 263.296 368.448C262.261 369.424 260.557 369.424 259.582 368.326C258.608 367.289 258.669 365.642 259.704 364.605ZM265.975 358.626C267.01 357.65 268.715 357.65 269.689 358.748C270.663 359.786 270.663 361.494 269.567 362.47C268.532 363.446 266.828 363.446 265.853 362.348C264.879 361.311 264.94 359.664 265.975 358.626ZM272.733 352.221C273.768 351.245 275.473 351.245 276.447 352.343C277.421 353.38 277.421 355.088 276.325 356.064C275.29 357.04 273.586 357.04 272.612 355.942C271.637 354.905 271.698 353.197 272.733 352.221ZM279.004 346.243C280.039 345.267 281.744 345.267 282.718 346.365C283.692 347.402 283.692 349.11 282.596 350.086C281.561 351.062 279.857 351.062 278.883 349.964C277.908 348.927 277.969 347.219 279.004 346.243ZM285.58 339.96C286.615 338.983 288.319 338.983 289.294 340.082C290.268 341.119 290.268 342.827 289.172 343.803C288.137 344.779 286.432 344.779 285.458 343.681C284.484 342.644 284.545 340.997 285.58 339.96ZM291.851 333.981C292.886 333.005 294.59 333.005 295.565 334.103C296.539 335.14 296.539 336.848 295.443 337.824C294.408 338.8 292.703 338.8 291.729 337.702C290.755 336.665 290.816 335.018 291.851 333.981ZM298.67 327.576C299.705 326.6 301.409 326.6 302.384 327.698C303.358 328.735 303.358 330.443 302.262 331.419C301.227 332.395 299.522 332.395 298.548 331.297C297.574 330.26 297.574 328.552 298.67 327.576ZM304.941 321.598C305.976 320.622 307.68 320.622 308.655 321.72C309.629 322.757 309.629 324.465 308.533 325.441C307.498 326.417 305.793 326.417 304.819 325.319C303.845 324.282 303.906 322.574 304.941 321.598ZM311.516 315.314C312.551 314.338 314.256 314.338 315.23 315.436C316.204 316.473 316.204 318.181 315.108 319.157C314.073 320.134 312.368 320.133 311.394 319.035C310.42 317.998 310.481 316.351 311.516 315.314ZM317.787 309.336C318.822 308.36 320.527 308.36 321.501 309.458C322.475 310.495 322.475 312.203 321.379 313.179C320.344 314.155 318.639 314.155 317.665 313.057C316.691 312.02 316.752 310.373 317.787 309.336ZM324.545 302.931C325.58 301.955 327.285 301.955 328.259 303.053C329.233 304.09 329.233 305.798 328.137 306.774C327.102 307.75 325.398 307.75 324.423 306.652C323.449 305.615 323.51 303.968 324.545 302.931ZM330.816 296.952C331.851 295.976 333.556 295.976 334.53 297.074C335.504 298.111 335.504 299.819 334.408 300.796C333.373 301.772 331.669 301.772 330.694 300.673C329.72 299.636 329.781 297.989 330.816 296.952ZM337.392 290.73C338.427 289.754 340.131 289.754 341.105 290.852C342.08 291.889 342.08 293.597 340.984 294.573C339.949 295.549 338.244 295.549 337.27 294.451C336.296 293.414 336.357 291.706 337.392 290.73ZM343.663 284.752C344.698 283.776 346.402 283.776 347.376 284.874C348.351 285.911 348.351 287.619 347.255 288.595C346.22 289.571 344.515 289.571 343.541 288.473C342.567 287.436 342.628 285.728 343.663 284.752ZM350.299 278.468C351.334 277.492 353.039 277.492 354.013 278.59C354.987 279.627 354.987 281.335 353.891 282.312C352.856 283.288 351.151 283.288 350.177 282.19C349.203 281.091 349.264 279.444 350.299 278.468ZM356.57 272.49C357.605 271.514 359.31 271.514 360.284 272.612C361.258 273.649 361.258 275.357 360.162 276.333C359.127 277.309 357.422 277.309 356.448 276.211C355.474 275.113 355.535 273.466 356.57 272.49ZM363.145 266.207C364.18 265.231 365.885 265.231 366.859 266.329C367.833 267.366 367.833 269.074 366.737 270.05C365.702 271.026 363.998 271.026 363.024 269.928C362.049 268.891 362.11 267.244 363.145 266.207ZM369.416 260.228C370.451 259.252 372.156 259.252 373.13 260.35C374.104 261.387 374.104 263.096 373.008 264.072C371.973 265.048 370.269 265.048 369.295 263.95C368.32 262.913 368.381 261.265 369.416 260.228ZM376.174 253.823C377.209 252.847 378.914 252.847 379.888 253.945C380.862 254.982 380.862 256.69 379.767 257.666C378.732 258.642 377.027 258.642 376.053 257.544C375.079 256.507 375.139 254.799 376.174 253.823ZM382.445 247.845C383.48 246.869 385.185 246.869 386.159 247.967C387.133 249.004 387.133 250.712 386.038 251.688C385.003 252.664 383.298 252.664 382.324 251.566C381.35 250.529 381.41 248.821 382.445 247.845ZM389.021 241.561C390.056 240.585 391.761 240.585 392.735 241.683C393.709 242.721 393.709 244.429 392.613 245.405C391.578 246.381 389.873 246.381 388.899 245.283C387.925 244.246 387.986 242.598 389.021 241.561ZM395.353 235.583C396.388 234.607 398.092 234.607 399.067 235.705C400.041 236.742 400.041 238.45 398.945 239.426C397.91 240.402 396.205 240.402 395.231 239.304C394.257 238.267 394.257 236.62 395.353 235.583ZM402.05 229.239C403.085 228.263 404.79 228.263 405.764 229.361C406.738 230.398 406.738 232.106 405.642 233.082C404.607 234.058 402.902 234.058 401.928 232.96C400.954 231.923 400.954 230.215 402.05 229.239ZM408.321 223.26C409.356 222.284 411.061 222.284 412.035 223.383C413.009 224.42 413.009 226.128 411.913 227.104C410.878 228.08 409.173 228.08 408.199 226.982C407.225 225.945 407.286 224.237 408.321 223.26ZM414.896 216.977C415.931 216.001 417.636 216.001 418.61 217.099C419.584 218.136 419.584 219.844 418.488 220.82C417.453 221.796 415.749 221.796 414.775 220.698C413.8 219.661 413.861 218.014 414.896 216.977ZM421.167 210.999C422.202 210.023 423.907 210.023 424.881 211.121C425.855 212.158 425.855 213.866 424.759 214.842C423.724 215.818 422.02 215.818 421.046 214.72C420.071 213.683 420.132 212.036 421.167 210.999ZM427.925 204.594C428.96 203.617 430.665 203.617 431.639 204.716C432.613 205.753 432.613 207.461 431.518 208.437C430.483 209.413 428.778 209.413 427.804 208.315C426.829 207.278 426.89 205.631 427.925 204.594ZM434.196 198.615C435.231 197.639 436.936 197.639 437.91 198.737C438.884 199.774 438.884 201.482 437.789 202.458C436.754 203.434 435.049 203.434 434.075 202.336C433.1 201.299 433.161 199.652 434.196 198.615ZM440.772 192.393C441.807 191.417 443.512 191.417 444.486 192.515C445.46 193.552 445.46 195.26 444.364 196.236C443.329 197.212 441.624 197.212 440.65 196.114C439.676 195.077 439.737 193.369 440.772 192.393ZM447.043 186.415C448.078 185.439 449.783 185.439 450.757 186.537C451.731 187.574 451.731 189.282 450.635 190.258C449.6 191.234 447.895 191.234 446.921 190.136C445.947 189.099 446.008 187.391 447.043 186.415ZM453.679 180.131C454.714 179.155 456.419 179.155 457.393 180.253C458.367 181.29 458.367 182.998 457.271 183.974C456.236 184.951 454.531 184.951 453.557 183.852C452.583 182.754 452.644 181.107 453.679 180.131ZM459.95 174.153C460.985 173.177 462.69 173.177 463.664 174.275C464.638 175.312 464.638 177.02 463.542 177.996C462.507 178.972 460.802 178.972 459.828 177.874C458.854 176.776 458.915 175.129 459.95 174.153ZM466.526 167.87C467.561 166.894 469.265 166.894 470.239 167.992C471.214 169.029 471.214 170.737 470.118 171.713C469.083 172.689 467.378 172.689 466.404 171.591C465.43 170.554 465.491 168.907 466.526 167.87ZM472.797 161.891C473.832 160.915 475.536 160.915 476.51 162.013C477.485 163.05 477.485 164.758 476.389 165.735C475.354 166.711 473.649 166.711 472.675 165.613C471.701 164.575 471.762 162.928 472.797 161.891ZM479.555 155.486C480.59 154.51 482.294 154.51 483.269 155.608C484.243 156.645 484.243 158.353 483.147 159.329C482.112 160.305 480.407 160.305 479.433 159.207C478.459 158.17 478.52 156.462 479.555 155.486ZM485.826 149.508C486.861 148.532 488.565 148.532 489.54 149.63C490.514 150.667 490.514 152.375 489.418 153.351C488.383 154.327 486.678 154.327 485.704 153.229C484.73 152.192 484.791 150.484 485.826 149.508ZM492.401 143.224C493.436 142.248 495.141 142.248 496.115 143.346C497.089 144.383 497.089 146.091 495.993 147.068C494.958 148.044 493.253 148.044 492.279 146.946C491.305 145.908 491.366 144.261 492.401 143.224ZM498.733 137.246C499.768 136.27 501.473 136.27 502.447 137.368C503.421 138.405 503.421 140.113 502.325 141.089C501.29 142.065 499.585 142.065 498.611 140.967C497.637 139.93 497.637 138.283 498.733 137.246ZM505.491 130.841C506.526 129.865 508.231 129.865 509.205 130.963C510.179 132 510.179 133.708 509.083 134.684C508.048 135.66 506.343 135.66 505.369 134.562C504.395 133.525 504.395 131.817 505.491 130.841ZM511.762 124.862C512.797 123.886 514.502 123.886 515.476 124.984C516.45 126.021 516.45 127.73 515.354 128.706C514.319 129.682 512.614 129.682 511.64 128.584C510.666 127.547 510.727 125.838 511.762 124.862ZM518.337 118.579C519.372 117.603 521.077 117.603 522.051 118.701C523.025 119.738 523.025 121.446 521.93 122.422C520.895 123.398 519.19 123.398 518.216 122.3C517.241 121.263 517.302 119.616 518.337 118.579ZM524.608 112.601C525.643 111.625 527.348 111.625 528.322 112.723C529.296 113.76 529.296 115.468 528.201 116.444C527.166 117.42 525.461 117.42 524.487 116.322C523.512 115.285 523.573 113.638 524.608 112.601ZM531.366 106.195C532.401 105.219 534.106 105.219 535.08 106.317C536.055 107.354 536.055 109.063 534.959 110.039C533.924 111.015 532.219 111.015 531.245 109.917C530.271 108.88 530.331 107.232 531.366 106.195ZM537.637 100.217C538.673 99.2411 540.377 99.2411 541.351 100.339C542.326 101.376 542.326 103.084 541.23 104.06C540.195 105.036 538.49 105.036 537.516 103.938C536.542 102.901 536.602 101.254 537.637 100.217ZM544.213 93.9948C545.248 93.0188 546.953 93.0188 547.927 94.1168C548.901 95.1539 548.901 96.862 547.805 97.838C546.77 98.8141 545.065 98.8141 544.091 97.716C543.117 96.6789 543.178 94.9709 544.213 93.9948ZM550.484 88.0165C551.519 87.0404 553.224 87.0404 554.198 88.1385C555.172 89.1756 555.172 90.8836 554.076 91.8597C553.041 92.8357 551.336 92.8357 550.362 91.7377C549.388 90.7006 549.449 88.9925 550.484 88.0165ZM557.12 81.6722C558.155 80.6961 559.86 80.6961 560.834 81.7942C561.808 82.8312 561.808 84.5393 560.712 85.5154C559.677 86.4914 557.973 86.4914 556.998 85.3934C556.024 84.3563 556.085 82.7092 557.12 81.6722ZM563.391 75.7549C564.426 74.7788 566.131 74.7788 567.105 75.8769C568.079 76.9139 568.079 78.622 566.983 79.5981C565.948 80.5741 564.244 80.5741 563.269 79.4761C562.295 78.378 562.356 76.7309 563.391 75.7549ZM569.967 69.4715C571.002 68.4955 572.706 68.4955 573.681 69.5935C574.655 70.6306 574.655 72.3387 573.559 73.3147C572.524 74.2908 570.819 74.2908 569.845 73.1927C568.871 72.1557 568.932 70.5086 569.967 69.4715ZM576.238 63.4932C577.273 62.5172 578.977 62.5172 579.952 63.6152C580.926 64.6523 580.926 66.3604 579.83 67.3364C578.795 68.3125 577.09 68.3125 576.116 67.2144C575.142 66.1774 575.203 64.5303 576.238 63.4932ZM582.996 57.0879C584.031 56.1118 585.735 56.1118 586.71 57.2099C587.684 58.247 587.684 59.955 586.588 60.9311C585.553 61.9071 583.848 61.9071 582.874 60.8091C581.9 59.772 581.961 58.0639 582.996 57.0879ZM589.328 51.1096C590.363 50.1335 592.067 50.1335 593.041 51.2316C594.016 52.2687 594.016 53.9767 592.92 54.9528C591.885 55.9288 590.18 55.9288 589.206 54.8308C588.171 53.7937 588.232 52.0856 589.328 51.1096ZM595.842 44.8263C596.877 43.8502 598.582 43.8502 599.556 44.9483C600.53 45.9853 600.53 47.6934 599.434 48.6695C598.399 49.6455 596.694 49.6455 595.72 48.5475C594.746 47.5104 594.807 45.8633 595.842 44.8263ZM602.174 38.848C603.209 37.8719 604.914 37.8719 605.888 38.97C606.862 40.007 606.862 41.7151 605.766 42.6912C604.731 43.6672 603.026 43.6672 602.052 42.5691C601.078 41.5321 601.078 39.885 602.174 38.848ZM185.67 415.908C186.705 414.932 188.41 414.932 189.384 416.03C190.358 417.068 190.358 418.776 189.262 419.752C188.227 420.728 186.522 420.728 185.548 419.63C184.574 418.593 184.635 416.945 185.67 415.908ZM192.002 409.93C193.037 408.954 194.742 408.954 195.716 410.052C196.69 411.089 196.69 412.797 195.594 413.773C194.559 414.749 192.854 414.749 191.88 413.651C190.906 412.614 190.906 410.967 192.002 409.93ZM198.577 403.708C199.612 402.732 201.317 402.732 202.291 403.83C203.265 404.867 203.265 406.575 202.169 407.551C201.134 408.527 199.43 408.527 198.455 407.429C197.481 406.392 197.481 404.684 198.577 403.708ZM204.848 397.73C205.883 396.753 207.588 396.753 208.562 397.851C209.536 398.889 209.536 400.597 208.44 401.573C207.405 402.549 205.701 402.549 204.726 401.451C203.752 400.414 203.752 398.706 204.848 397.73ZM211.606 391.324C212.641 390.348 214.346 390.348 215.32 391.446C216.294 392.483 216.294 394.191 215.198 395.167C214.163 396.143 212.459 396.143 211.484 395.045C210.51 394.008 210.51 392.3 211.606 391.324ZM217.877 385.346C218.912 384.37 220.617 384.37 221.591 385.468C222.565 386.505 222.565 388.213 221.469 389.189C220.434 390.165 218.73 390.165 217.755 389.067C216.781 388.03 216.842 386.322 217.877 385.346ZM224.453 379.063C225.488 378.086 227.192 378.086 228.167 379.185C229.141 380.222 229.141 381.93 228.045 382.906C227.01 383.882 225.305 383.882 224.331 382.784C223.357 381.747 223.418 380.1 224.453 379.063ZM230.724 373.084C231.759 372.108 233.463 372.108 234.438 373.206C235.412 374.243 235.412 375.951 234.316 376.927C233.281 377.903 231.576 377.903 230.602 376.805C229.628 375.768 229.689 374.121 230.724 373.084ZM237.36 366.801C238.395 365.825 240.1 365.825 241.074 366.923C242.048 367.96 242.048 369.668 240.952 370.644C239.917 371.62 238.212 371.62 237.238 370.522C236.264 369.485 236.264 367.838 237.36 366.801ZM243.631 360.823C244.666 359.847 246.371 359.847 247.345 360.945C248.319 361.982 248.319 363.69 247.223 364.666C246.188 365.642 244.483 365.642 243.509 364.544C242.535 363.507 242.596 361.86 243.631 360.823ZM250.206 354.6C251.241 353.624 252.946 353.624 253.92 354.722C254.894 355.759 254.894 357.467 253.799 358.443C252.764 359.42 251.059 359.419 250.085 358.321C249.11 357.223 249.171 355.576 250.206 354.6ZM256.477 348.622C257.512 347.646 259.217 347.646 260.191 348.744C261.165 349.781 261.165 351.489 260.07 352.465C259.035 353.441 257.33 353.441 256.356 352.343C255.382 351.306 255.442 349.598 256.477 348.622ZM263.235 342.156C264.27 341.18 265.975 341.18 266.949 342.278C267.924 343.315 267.924 345.023 266.828 345.999C265.793 346.975 264.088 346.975 263.114 345.877C262.14 344.84 262.2 343.193 263.235 342.156ZM269.506 336.177C270.541 335.201 272.246 335.201 273.22 336.299C274.195 337.336 274.195 339.044 273.099 340.021C272.064 340.997 270.359 340.997 269.385 339.899C268.411 338.861 268.471 337.214 269.506 336.177ZM276.082 329.955C277.117 328.979 278.822 328.979 279.796 330.077C280.77 331.114 280.77 332.822 279.674 333.798C278.639 334.774 276.934 334.774 275.96 333.676C274.986 332.639 275.047 330.931 276.082 329.955ZM282.353 323.977C283.388 323.001 285.093 323.001 286.067 324.099C287.041 325.136 287.041 326.844 285.945 327.82C284.91 328.796 283.205 328.796 282.231 327.698C281.257 326.661 281.318 324.953 282.353 323.977ZM289.172 317.51C290.207 316.534 291.912 316.534 292.886 317.632C293.86 318.669 293.86 320.378 292.764 321.354C291.729 322.33 290.024 322.33 289.05 321.232C288.076 320.194 288.076 318.547 289.172 317.51ZM295.443 311.532C296.478 310.556 298.183 310.556 299.157 311.654C300.131 312.691 300.131 314.399 299.035 315.375C298 316.351 296.295 316.351 295.321 315.253C294.347 314.216 294.347 312.569 295.443 311.532ZM302.018 305.31C303.053 304.334 304.758 304.334 305.732 305.432C306.706 306.469 306.706 308.177 305.61 309.153C304.575 310.129 302.871 310.129 301.897 309.031C300.922 307.994 300.922 306.286 302.018 305.31ZM308.289 299.331C309.324 298.355 311.029 298.355 312.003 299.453C312.977 300.49 312.977 302.199 311.881 303.175C310.846 304.151 309.142 304.151 308.168 303.053C307.193 302.016 307.254 300.307 308.289 299.331ZM315.047 292.926C316.082 291.95 317.787 291.95 318.761 293.048C319.735 294.085 319.735 295.793 318.639 296.769C317.604 297.745 315.9 297.745 314.926 296.647C313.951 295.61 313.951 293.902 315.047 292.926ZM321.318 286.948C322.353 285.972 324.058 285.972 325.032 287.07C326.006 288.107 326.006 289.815 324.91 290.791C323.875 291.767 322.171 291.767 321.197 290.669C320.222 289.632 320.283 287.924 321.318 286.948ZM327.894 280.664C328.929 279.688 330.634 279.688 331.608 280.786C332.582 281.824 332.582 283.532 331.486 284.508C330.451 285.484 328.746 285.484 327.772 284.386C326.798 283.349 326.859 281.702 327.894 280.664ZM334.165 274.686C335.2 273.71 336.905 273.71 337.879 274.808C338.853 275.845 338.853 277.553 337.757 278.529C336.722 279.505 335.017 279.505 334.043 278.407C333.069 277.37 333.13 275.723 334.165 274.686ZM340.801 268.403C341.836 267.427 343.541 267.427 344.515 268.525C345.489 269.562 345.489 271.27 344.393 272.246C343.358 273.222 341.653 273.222 340.679 272.124C339.705 271.087 339.766 269.379 340.801 268.403ZM347.072 262.425C348.107 261.448 349.812 261.448 350.786 262.547C351.76 263.584 351.76 265.292 350.664 266.268C349.629 267.244 347.924 267.244 346.95 266.146C345.976 265.109 346.037 263.462 347.072 262.425ZM353.648 256.202C354.683 255.226 356.387 255.226 357.361 256.324C358.336 257.361 358.336 259.069 357.24 260.045C356.205 261.021 354.5 261.021 353.526 259.923C352.552 258.825 352.612 257.178 353.648 256.202ZM359.919 250.224C360.954 249.248 362.658 249.248 363.632 250.346C364.607 251.383 364.607 253.091 363.511 254.067C362.476 255.043 360.771 255.043 359.797 253.945C358.823 252.908 358.883 251.2 359.919 250.224ZM366.677 243.758C367.712 242.781 369.416 242.782 370.39 243.88C371.365 244.917 371.365 246.625 370.269 247.601C369.234 248.577 367.529 248.577 366.555 247.479C365.581 246.442 365.642 244.795 366.677 243.758ZM372.948 237.779C373.983 236.803 375.687 236.803 376.661 237.901C377.636 238.938 377.636 240.646 376.54 241.622C375.505 242.598 373.8 242.598 372.826 241.5C371.852 240.463 371.913 238.816 372.948 237.779ZM379.523 231.557C380.558 230.581 382.263 230.581 383.237 231.679C384.211 232.716 384.211 234.424 383.115 235.4C382.08 236.376 380.375 236.376 379.401 235.278C378.427 234.241 378.488 232.533 379.523 231.557ZM385.794 225.579C386.829 224.603 388.534 224.603 389.508 225.701C390.482 226.738 390.482 228.446 389.386 229.422C388.351 230.398 386.646 230.398 385.672 229.3C384.698 228.263 384.759 226.555 385.794 225.579ZM392.552 219.173C393.587 218.197 395.292 218.197 396.266 219.295C397.24 220.332 397.24 222.04 396.144 223.016C395.109 223.993 393.404 223.993 392.43 222.894C391.456 221.857 391.456 220.21 392.552 219.173ZM398.823 213.195C399.858 212.219 401.563 212.219 402.537 213.317C403.511 214.354 403.511 216.062 402.415 217.038C401.38 218.014 399.675 218.014 398.701 216.916C397.727 215.879 397.727 214.232 398.823 213.195ZM405.398 206.973C406.434 205.997 408.138 205.997 409.112 207.095C410.087 208.132 410.087 209.84 408.991 210.816C407.956 211.792 406.251 211.792 405.277 210.694C404.303 209.657 404.303 207.949 405.398 206.973ZM411.669 200.994C412.705 200.018 414.409 200.018 415.383 201.116C416.358 202.153 416.358 203.861 415.262 204.838C414.227 205.814 412.522 205.814 411.548 204.716C410.574 203.678 410.634 201.97 411.669 200.994ZM418.428 194.589C419.463 193.613 421.167 193.613 422.141 194.711C423.116 195.748 423.116 197.456 422.02 198.432C420.985 199.408 419.28 199.408 418.306 198.31C417.332 197.273 417.332 195.565 418.428 194.589ZM424.699 188.611C425.734 187.635 427.438 187.635 428.412 188.733C429.387 189.77 429.387 191.478 428.291 192.454C427.256 193.43 425.551 193.43 424.577 192.332C423.603 191.295 423.664 189.587 424.699 188.611ZM431.274 182.327C432.309 181.351 434.014 181.351 434.988 182.449C435.962 183.486 435.962 185.195 434.866 186.171C433.831 187.147 432.126 187.147 431.152 186.049C430.178 185.012 430.239 183.364 431.274 182.327ZM437.545 176.349C438.58 175.373 440.285 175.373 441.259 176.471C442.233 177.508 442.233 179.216 441.137 180.192C440.102 181.168 438.397 181.168 437.423 180.07C436.449 179.033 436.51 177.386 437.545 176.349ZM444.181 170.066C445.216 169.09 446.921 169.09 447.895 170.188C448.869 171.225 448.869 172.933 447.773 173.909C446.738 174.885 445.034 174.885 444.06 173.787C443.085 172.75 443.146 171.042 444.181 170.066ZM450.452 164.087C451.487 163.111 453.192 163.111 454.166 164.209C455.14 165.246 455.14 166.955 454.044 167.931C453.009 168.907 451.305 168.907 450.331 167.809C449.356 166.772 449.417 165.124 450.452 164.087ZM457.028 157.865C458.063 156.889 459.767 156.889 460.742 157.987C461.716 159.024 461.716 160.732 460.62 161.708C459.585 162.684 457.88 162.684 456.906 161.586C455.932 160.488 455.993 158.841 457.028 157.865ZM463.299 151.887C464.334 150.911 466.038 150.911 467.013 152.009C467.987 153.046 467.987 154.754 466.891 155.73C465.856 156.706 464.151 156.706 463.177 155.608C462.203 154.571 462.264 152.863 463.299 151.887ZM470.057 145.42C471.092 144.444 472.797 144.444 473.771 145.542C474.745 146.58 474.745 148.288 473.649 149.264C472.614 150.24 470.909 150.24 469.935 149.142C468.961 148.105 469.022 146.458 470.057 145.42ZM476.328 139.442C477.363 138.466 479.068 138.466 480.042 139.564C481.016 140.601 481.016 142.309 479.92 143.285C478.885 144.261 477.18 144.261 476.206 143.163C475.232 142.126 475.293 140.479 476.328 139.442ZM482.903 133.22C483.938 132.244 485.643 132.244 486.617 133.342C487.591 134.379 487.591 136.087 486.495 137.063C485.46 138.039 483.756 138.039 482.781 136.941C481.807 135.904 481.868 134.196 482.903 133.22ZM489.174 127.242C490.209 126.265 491.914 126.265 492.888 127.364C493.862 128.401 493.862 130.109 492.766 131.085C491.731 132.061 490.027 132.061 489.052 130.963C488.078 129.926 488.139 128.218 489.174 127.242ZM495.993 120.775C497.028 119.799 498.733 119.799 499.707 120.897C500.681 121.934 500.681 123.642 499.585 124.618C498.55 125.594 496.846 125.594 495.871 124.496C494.897 123.459 494.897 121.812 495.993 120.775ZM502.264 114.797C503.299 113.821 505.004 113.821 505.978 114.919C506.952 115.956 506.952 117.664 505.856 118.64C504.821 119.616 503.117 119.616 502.142 118.518C501.168 117.481 501.168 115.834 502.264 114.797ZM508.84 108.575C509.875 107.599 511.579 107.599 512.553 108.697C513.528 109.734 513.528 111.442 512.432 112.418C511.397 113.394 509.692 113.394 508.718 112.296C507.744 111.259 507.744 109.551 508.84 108.575ZM515.111 102.596C516.146 101.62 517.85 101.62 518.824 102.718C519.799 103.755 519.799 105.463 518.703 106.439C517.668 107.415 515.963 107.415 514.989 106.317C514.015 105.219 514.076 103.572 515.111 102.596ZM521.869 96.1909C522.904 95.2149 524.608 95.2149 525.583 96.3129C526.557 97.35 526.557 99.0581 525.461 100.034C524.426 101.01 522.721 101.01 521.747 99.9121C520.773 98.8141 520.834 97.167 521.869 96.1909ZM528.14 90.2126C529.175 89.2366 530.879 89.2366 531.854 90.3346C532.828 91.3717 532.828 93.0798 531.732 94.0558C530.697 95.0319 528.992 95.0319 528.018 93.9338C527.044 92.8968 527.105 91.1887 528.14 90.2126ZM534.715 83.9293C535.75 82.9532 537.455 82.9532 538.429 84.0513C539.403 85.0883 539.403 86.7964 538.307 87.7725C537.272 88.7485 535.567 88.7485 534.593 87.6505C533.619 86.6134 533.68 84.9663 534.715 83.9293ZM540.986 77.951C542.021 76.9749 543.726 76.9749 544.7 78.073C545.674 79.11 545.674 80.8181 544.578 81.7942C543.543 82.7702 541.838 82.7702 540.864 81.6722C539.89 80.6351 539.951 78.988 540.986 77.951ZM547.622 71.6677C548.657 70.6916 550.362 70.6916 551.336 71.7897C552.31 72.8267 552.31 74.5348 551.215 75.5108C550.179 76.4869 548.475 76.4869 547.501 75.3888C546.526 74.3518 546.587 72.6437 547.622 71.6677ZM553.893 65.6893C554.928 64.7133 556.633 64.7133 557.607 65.8113C558.581 66.8484 558.581 68.5565 557.486 69.5325C556.45 70.5086 554.746 70.5086 553.772 69.4105C552.797 68.3735 552.858 66.7264 553.893 65.6893ZM560.469 59.467C561.504 58.491 563.209 58.491 564.183 59.589C565.157 60.6261 565.157 62.3342 564.061 63.3102C563.026 64.2863 561.321 64.2863 560.347 63.1882C559.373 62.0902 559.434 60.4431 560.469 59.467ZM566.74 53.4887C567.775 52.5127 569.48 52.5127 570.454 53.6107C571.428 54.6478 571.428 56.3559 570.332 57.3319C569.297 58.308 567.592 58.308 566.618 57.2099C565.644 56.1118 565.705 54.4648 566.74 53.4887ZM573.498 47.0224C574.533 46.0463 576.238 46.0463 577.212 47.1444C578.186 48.2424 578.186 49.8895 577.09 50.8656C576.055 51.8416 574.35 51.8416 573.376 50.7436C572.402 49.7065 572.463 48.0594 573.498 47.0224ZM579.769 41.0441C580.804 40.068 582.509 40.068 583.483 41.1661C584.457 42.2031 584.457 43.9112 583.361 44.8873C582.326 45.8633 580.621 45.8633 579.647 44.7653C578.673 43.7282 578.734 42.0811 579.769 41.0441ZM586.344 34.8217C587.379 33.8457 589.084 33.8457 590.058 34.9438C591.032 35.9808 591.032 37.6889 589.936 38.6649C588.901 39.641 587.197 39.641 586.223 38.5429C585.248 37.5059 585.309 35.7978 586.344 34.8217ZM592.676 28.8434C593.711 27.8674 595.416 27.8674 596.39 28.9654C597.364 30.0025 597.364 31.7106 596.268 32.6866C595.233 33.6627 593.529 33.6627 592.554 32.5646C591.519 31.5276 591.58 29.8195 592.676 28.8434ZM193.585 417.922C194.62 416.945 196.324 416.945 197.299 418.044C198.273 419.081 198.273 420.789 197.177 421.765C196.142 422.741 194.437 422.741 193.463 421.643C192.489 420.606 192.55 418.959 193.585 417.922ZM286.858 465.199C287.772 464.345 289.172 464.406 290.024 465.26C290.877 466.114 290.816 467.578 289.963 468.432C289.05 469.286 287.65 469.225 286.797 468.371C285.945 467.456 285.945 466.053 286.858 465.199Z" fill="white"/>
</g>
<g clip-path="url(#clip0_0_1)">
<path d="M85.8186 50.7641L129.37 26.224L86.4602 0.553711L85.8186 50.7641ZM93.8391 13.7925L114.211 25.9818L93.5183 37.6868L93.8391 13.7925Z" fill="white"/>
<path d="M106.35 90.9646L129.289 102.67L127.845 76.8379L106.35 90.9646ZM108.195 90.8839L126.963 78.5331L128.246 101.136L108.195 90.8839Z" fill="white"/>
<path d="M199.951 51.9746L210.859 38.6551L193.936 35.749L199.951 51.9746ZM200.112 50.7637L194.898 36.5563L209.656 39.0587L200.112 50.7637Z" fill="white"/>
<path d="M151.105 47.9385L150.303 58.9169L149.421 69.8147L159.286 65.052L169.071 60.37L160.088 54.1542L151.105 47.9385Z" fill="white"/>
<path d="M193.854 93.1434L197.463 97.1796L201.072 101.216L202.757 96.1302L204.441 90.9639L199.148 92.0133L193.854 93.1434Z" fill="white"/>
</g>
<path d="M515.434 31.5C515.434 31.5 515.334 31.5 515.133 31.5C514.933 31.5 514.632 31.5 514.331 31.5C513.629 31.5 512.627 31.6002 511.324 31.7004C508.717 31.9008 505.008 32.3015 500.598 33.2032C498.392 33.604 495.986 34.2051 493.581 34.9064C491.074 35.6077 488.568 36.5094 485.962 37.6115C484.659 38.2126 483.356 38.7136 482.052 39.4149C481.451 39.7155 480.749 40.1162 480.148 40.4168C479.847 40.6172 479.546 40.8175 479.246 41.0179L478.744 41.3185L478.243 41.619C476.94 42.4206 475.737 43.3222 474.534 44.2239C473.933 44.7249 473.331 45.1256 472.83 45.6266C472.529 45.9272 472.228 46.1275 472.028 46.4281L471.226 47.2296C470.123 48.3317 469.121 49.4338 468.219 50.636C467.717 51.2371 467.316 51.8383 466.915 52.4394C466.715 52.74 466.514 53.0405 466.314 53.3411C466.113 53.6417 465.913 53.9422 465.713 54.2428C464.209 56.7475 463.006 59.4526 462.204 62.1577C461.402 64.8628 460.901 67.4677 460.7 70.0726C460.5 72.5773 460.5 74.9818 460.6 77.186C460.6 77.6869 460.7 78.2881 460.7 78.789C460.801 79.2899 460.801 79.7909 460.901 80.2918C460.901 80.4922 461.001 80.7928 461.001 80.9932C461.001 81.1935 461.101 81.4941 461.101 81.6945C461.201 82.1954 461.201 82.5962 461.302 83.0971C461.602 84.9005 461.903 86.4033 462.204 87.6056C462.505 88.8079 462.705 89.8097 462.906 90.5111C463.106 91.2124 463.206 91.513 463.206 91.513C463.206 91.513 463.106 91.1122 463.006 90.5111C462.906 89.8097 462.605 88.908 462.404 87.6056C462.204 86.4033 461.903 84.8003 461.703 83.0971C461.703 82.6964 461.602 82.1954 461.602 81.6945C461.602 81.4941 461.602 81.1935 461.502 80.9932C461.502 80.7928 461.502 80.4922 461.502 80.2918C461.502 79.7909 461.402 79.2899 461.402 78.789C461.402 78.2881 461.402 77.6869 461.402 77.186C461.402 74.9818 461.402 72.6775 461.803 70.1728C462.104 67.6681 462.705 65.1634 463.607 62.5585C464.51 59.9536 465.713 57.4488 467.316 55.0443C467.517 54.7437 467.717 54.4432 467.918 54.1426C468.118 53.8421 468.319 53.5415 468.519 53.2409C468.92 52.6398 469.422 52.1388 469.923 51.5377C470.825 50.4356 471.827 49.4338 472.93 48.4319L473.732 47.7305C474.033 47.5302 474.334 47.2296 474.534 47.0292C475.135 46.5283 475.637 46.1275 476.238 45.7268C477.441 44.9253 478.644 44.1238 479.847 43.4224L480.348 43.1219L480.849 42.8213C481.15 42.6209 481.451 42.5207 481.752 42.3204C482.353 42.0198 482.955 41.7192 483.656 41.4187C484.859 40.8175 486.162 40.3166 487.466 39.8156C489.972 38.914 492.478 38.1124 494.884 37.5113C497.29 36.9102 499.595 36.4092 501.7 36.1087C506.011 35.4074 509.519 35.207 512.026 35.1068C513.228 35.1068 514.231 35.0066 514.933 35.0066C515.233 35.0066 515.534 35.0066 515.634 35.0066C515.835 35.0066 515.835 35.0066 515.835 35.0066L515.434 31.5Z" fill="#FFA800"/>
<path d="M526.767 41.0177C526.366 40.9175 526.066 40.5167 526.166 40.116L527.77 33.3032C527.87 32.9024 528.271 32.6018 528.672 32.702C529.073 32.8022 529.374 33.203 529.273 33.6037L527.67 40.4166C527.67 40.8173 527.168 41.1179 526.767 41.0177Z" fill="#384045"/>
<path d="M531.061 42.3197C528.254 43.522 524.746 45.2252 521.137 44.9246L520.736 46.4274C524.245 47.9303 529.257 50.1344 530.66 50.7356C532.966 51.7374 533.968 51.0361 533.968 51.0361L542.289 47.3291C542.289 47.5295 533.868 41.2176 531.061 42.3197Z" fill="white"/>
<path d="M539.799 27.2893C539.799 27.2893 539.298 26.1873 536.692 26.0871C535.088 25.9869 529.675 25.6863 525.865 25.3857L525.464 26.8886C528.873 28.2912 531.178 31.4972 533.083 33.8016C535.088 36.2061 545.513 34.3025 545.513 34.3025L539.799 27.2893Z" fill="white"/>
<path d="M528.235 42.4406C527.899 42.2776 527.631 42.1456 527.438 42.0501L528.646 37.1284L528.165 37.0104L528.646 37.1284L529.854 32.204C530.07 32.2072 530.37 32.2125 530.745 32.221C531.57 32.2397 532.757 32.2741 534.204 32.3365C537.097 32.4614 541.027 32.6988 545.173 33.1481C549.322 33.5977 553.675 34.2582 557.419 35.2265C561.186 36.2005 564.248 37.4645 565.902 39.0687C568.906 42.0717 570.732 45.9317 571.287 47.3922C570.136 48.4545 566.785 51.0874 562.599 52.3606L562.596 52.3616C560.401 53.0458 557.106 52.781 553.313 51.9331C549.546 51.0906 545.376 49.6942 541.484 48.2018C537.594 46.7103 533.992 45.1276 531.363 43.9173C530.048 43.3123 528.977 42.8007 528.235 42.4406Z" stroke="#384045"/>
<path d="M563.853 52.4403C568.765 50.7371 571.873 47.531 571.873 47.531C571.873 47.531 570.57 43.2229 566.961 39.516C566.66 39.2154 566.359 38.9148 566.059 38.6143C564.354 41.119 561.848 46.0282 562.65 52.841C563.051 52.7408 563.452 52.5405 563.853 52.4403Z" fill="white"/>
<path d="M509.813 32.5981C509.813 32.5981 524.649 47.5262 527.255 36.806C529.761 26.0858 509.813 32.5981 509.813 32.5981Z" fill="#FFA800"/>
<path d="M529.355 35.9095C529.154 35.8094 528.051 35.5088 527.751 35.609C527.55 35.609 524.643 35.5088 523.039 35.5088L522.839 36.2101C524.342 36.9114 526.949 38.2139 527.149 38.3141C527.45 38.4143 528.452 38.7148 528.753 38.7148C528.954 38.7148 529.956 38.5144 530.457 38.3141L530.758 37.0116C530.357 36.6109 529.555 36.0097 529.355 35.9095Z" fill="#FFA800"/>
<path d="M537.582 40.0164C537.983 38.3132 539.687 37.3113 541.391 37.7121C542.193 37.9124 542.895 38.4134 543.396 39.1147C543.797 39.816 543.998 40.7177 543.797 41.5192C543.396 43.2224 541.692 44.2243 539.988 43.8236C539.186 43.6232 538.484 43.1222 537.983 42.4209C537.482 41.7196 537.382 40.8179 537.582 40.0164Z" fill="#FFA800"/>
<path d="M549.92 40.7172C549.519 40.0159 548.817 39.515 547.915 39.3146C546.211 38.9138 544.507 39.9157 544.106 41.6189C543.905 42.4204 544.005 43.3221 544.507 44.0235C544.908 44.7248 545.609 45.2257 546.511 45.4261C548.216 45.8269 549.92 44.825 550.321 43.1218C550.521 42.2201 550.421 41.4186 549.92 40.7172Z" fill="#FFA800"/>
<path d="M556.94 44.6237C557.14 43.8222 557.04 42.9205 556.539 42.2192C556.138 41.5179 555.436 41.0169 554.534 40.8166C552.83 40.4158 551.125 41.4177 550.724 43.1209C550.524 43.9224 550.624 44.8241 551.125 45.5254C551.526 46.2267 552.228 46.7277 553.13 46.9281C554.835 47.429 556.539 46.3269 556.94 44.6237Z" fill="#FFA800"/>
<g clip-path="url(#clip1_0_1)">
<path d="M96.0062 227.35C96.0062 236.612 103.43 244.076 112.642 244.076C121.854 244.076 129.278 236.612 129.278 227.35C129.278 218.089 121.854 210.625 112.642 210.625C103.43 210.625 96.0062 218.089 96.0062 227.35Z" fill="white"/>
<path d="M99.5808 227.35C99.5808 234.607 105.424 240.482 112.642 240.482C119.86 240.482 125.703 234.607 125.703 227.35C125.703 220.093 119.86 214.219 112.642 214.219C105.424 214.219 99.5808 220.093 99.5808 227.35Z" fill="#FFA800"/>
<path d="M103.774 227.35C103.774 232.257 107.761 236.197 112.573 236.197C117.454 236.197 121.372 232.188 121.372 227.35C121.372 222.443 117.385 218.504 112.573 218.504C107.761 218.504 103.774 222.443 103.774 227.35Z" fill="white"/>
<path d="M108.517 227.35C108.517 229.631 110.374 231.497 112.642 231.497C114.911 231.497 116.767 229.631 116.767 227.35C116.767 225.069 114.911 223.203 112.642 223.203C110.374 223.203 108.517 225.069 108.517 227.35Z" fill="white"/>
<path d="M88.0321 228.663H112.642C113.398 228.663 113.948 228.041 113.948 227.35C113.948 226.59 113.33 226.037 112.642 226.037H88.0321C87.2759 226.037 86.726 226.659 86.726 227.35C86.726 228.111 87.2759 228.663 88.0321 228.663Z" fill="#384045"/>
<path d="M88.6509 227.074L84.4576 224.517H79.3018L82.189 227.35L79.3018 230.184H84.4576L88.6509 227.627V227.074Z" fill="#384045"/>
</g>
<defs>
<linearGradient id="paint0_linear_0_1" x1="184.877" y1="251.959" x2="634.634" y2="251.959" gradientUnits="userSpaceOnUse">
<stop stop-color="#010101"/>
<stop offset="1" stop-color="white"/>
</linearGradient>
<clipPath id="clip0_0_1">
<rect width="125.04" height="102.116" fill="white" transform="translate(85.8186 0.553711)"/>
</clipPath>
<clipPath id="clip1_0_1">
<rect width="115.557" height="33.4507" fill="white" transform="matrix(-1 0 0 1 129.278 210.625)"/>
</clipPath>
</defs>
</svg>
